<svg width="312" height="312" viewBox="0 0 312 312" fill="none" xmlns="http://www.w3.org/2000/svg">
<g clip-path="url(#clip0_5_614)">
<rect width="312" height="312" rx="17.414" fill="#F8F8F8"/>
<path d="M48.6265 288.179C48.4407 287.714 48.2549 287.265 48.0691 286.8C42.8855 273.247 44.3904 258.443 51.3391 245.483L73.3184 204.471C78.149 193.805 86.9185 184.823 98.2519 178.889L122.572 166.17C125.433 164.662 134.263 162.199 137.608 162.199L168.484 161.483C171.847 161.483 180.246 162.199 189.904 166.17L214.205 178.889C225.539 184.807 234.308 193.805 239.139 204.471L264.797 261.105C264.871 261.266 264.945 261.41 265.001 261.57C274.885 284.025 255.377 308.036 227.564 308.036H111.592C111.592 308.036 90.8201 310.698 72.3895 306.865C61.3348 304.555 52.4724 297.45 48.6265 288.195V288.179Z" fill="#4680E1"/>
<path d="M154 347C131.512 347 111.162 337.839 96.494 323.035C89.6469 316.14 84.0447 308.024 80.0306 299.038C75.5058 288.951 73 277.771 73 266C73 258.578 73.9975 251.388 75.8729 244.557C76.8545 240.966 78.0755 237.478 79.5279 234.103C82.329 227.559 85.976 221.454 90.3252 215.932C97.7309 206.523 107.18 198.798 118.001 193.427C128.846 188.033 141.064 185 154 185C162.395 185 170.487 186.277 178.1 188.647C179.449 189.062 180.774 189.517 182.091 190.004C185.498 191.265 188.794 192.749 191.97 194.441C217.571 208.047 235 234.989 235 266C235 269.886 234.729 273.717 234.186 277.46C228.632 316.771 194.851 347 154 347Z" fill="#95D1F9"/>
<path d="M235 266C235 269.886 234.729 273.717 234.186 277.46C228.632 316.771 194.851 347 154 347C131.512 347 111.162 337.839 96.494 323.035C89.6469 316.14 84.0447 308.024 80.0306 299.038C75.5058 288.951 73 277.771 73 266C73 258.578 73.9975 251.388 75.8729 244.557C76.8545 240.966 78.0755 237.478 79.5279 234.103C82.329 227.559 85.976 221.454 90.3252 215.932C97.7309 206.523 107.18 198.798 118.001 193.427C128.846 188.033 141.064 185 154 185C162.395 185 170.487 186.277 178.1 188.647C179.449 189.062 180.774 189.517 182.091 190.004C185.498 191.265 188.794 192.749 191.97 194.441C217.571 208.047 235 234.989 235 266Z" fill="#95D1F9"/>
<path d="M80.0939 242.474L75.8723 244.557C76.8539 240.966 78.0749 237.479 79.5273 234.103L81.5623 237.63C82.5598 239.37 81.8895 241.589 80.0939 242.474Z" fill="#F8F8F8"/>
<path d="M99.7982 313.028L96.4944 323.035C89.6473 316.14 84.0451 308.024 80.031 299.039L83.9813 301.864C84.1329 301.975 84.2925 302.071 84.4681 302.151L98.0346 308.83C99.5827 309.589 100.341 311.384 99.7982 313.028Z" fill="#F8F8F8"/>
<path d="M118.002 193.427L117.563 201.806C117.515 202.804 117.037 203.721 116.262 204.344L97.1736 219.514C95.5776 220.791 93.2234 220.408 92.1061 218.684L90.4383 216.115C90.3984 216.051 90.3585 215.995 90.3265 215.931C97.7323 206.522 107.181 198.797 118.002 193.427Z" fill="#F8F8F8"/>
<path d="M120.131 215.357L116.915 215.652C115.758 215.756 114.696 215.022 114.385 213.905C113.922 212.237 115.327 210.641 117.042 210.896L117.96 211.032C118.104 211.056 118.248 211.064 118.391 211.064H119.923C121.527 211.064 122.565 212.748 121.855 214.184C121.519 214.854 120.865 215.301 120.123 215.365L120.131 215.357Z" fill="#F8F8F8"/>
<path d="M234.998 266C234.998 269.886 234.727 273.717 234.184 277.459C233.474 277.539 232.803 277.858 232.285 278.361L228.31 282.272C227.951 282.623 227.68 283.038 227.504 283.509L225.19 289.526C225.078 289.821 224.927 290.1 224.735 290.356L222.549 293.308C222.309 293.628 221.966 293.851 221.575 293.923C220.865 294.066 220.155 293.715 219.835 293.069L213.395 280.061C213.268 279.814 213.116 279.582 212.94 279.375L209.014 274.706C208.36 273.924 207.386 273.469 206.365 273.469H204.481C204.17 273.469 203.851 273.429 203.555 273.342L193.444 270.533C192.343 270.221 191.481 271.482 192.16 272.4C192.343 272.655 192.615 272.823 192.926 272.871L196.716 273.509C197.762 273.685 198.672 274.323 199.182 275.249L199.238 275.345C200.02 276.765 199.717 278.545 198.496 279.622L193.389 284.139C193.077 284.418 192.718 284.634 192.319 284.785L188.84 286.102C187.491 286.613 185.975 286.238 185.017 285.168L178.154 277.443C177.835 277.084 177.292 277.044 176.917 277.34C176.598 277.595 176.486 278.042 176.654 278.417L180.572 287.092C181.187 288.448 182.607 289.262 184.092 289.111L189.414 288.56C191.034 288.392 192.447 289.669 192.447 291.297C192.447 291.864 192.271 292.423 191.944 292.885L182.128 306.763C181.785 307.25 181.57 307.809 181.506 308.399L179.678 325.589C179.599 326.347 179.271 327.057 178.745 327.608L164.939 342.132C164.284 342.818 163.375 343.209 162.425 343.209H158.858C157.557 343.209 156.368 342.483 155.769 341.334L149.521 329.188C149.266 328.701 149.138 328.15 149.138 327.6V308.048C149.138 307.689 149.082 307.33 148.97 306.987L147.111 301.217C146.832 300.347 146.225 299.621 145.411 299.206L141.78 297.306C141.317 297.067 140.806 296.939 140.296 296.915L124.535 296.381C123.122 296.325 121.877 295.431 121.398 294.106L118.198 285.392C117.911 284.61 117.911 283.764 118.198 282.99L124.064 267.157C124.359 266.375 124.918 265.728 125.652 265.321L135.18 260.11C135.539 259.911 135.922 259.783 136.329 259.719L144.685 258.466C145.914 258.283 147.151 258.778 147.925 259.759L150.886 263.526C151.54 264.364 152.545 264.851 153.615 264.851H159.64C159.823 264.851 160.007 264.867 160.191 264.898L168.578 266.255C169.152 266.343 169.735 266.295 170.278 266.103L172.76 265.234C174.164 264.747 174.834 263.159 174.22 261.81C173.741 260.741 172.584 260.15 171.435 260.374L168.65 260.924C167.157 261.22 165.673 260.406 165.122 258.993C164.468 257.317 165.362 255.426 167.078 254.875L170.733 253.686C171.219 253.527 171.73 253.479 172.241 253.542L175.114 253.902C176.957 254.133 178.649 252.872 178.96 251.045L178.992 250.861C179.311 249.026 178.114 247.27 176.295 246.879L170.349 245.626C167.971 245.131 165.825 247.174 166.216 249.576L166.335 250.318C166.575 251.795 165.649 253.199 164.213 253.582C163.383 253.798 162.688 254.372 162.329 255.155L161.459 256.99C161.212 257.525 160.765 257.948 160.222 258.163C159.073 258.626 157.773 258.107 157.246 256.998L153.176 248.347C152.897 247.757 152.242 247.446 151.604 247.605C150.79 247.813 150.359 248.706 150.694 249.473L151.205 250.638C151.269 250.773 151.34 250.909 151.428 251.037L154.102 254.923C154.852 256.008 154.445 257.517 153.248 258.075C152.17 258.57 150.894 258.107 150.399 257.038L149.345 254.756C149.202 254.46 149.026 254.189 148.811 253.942L145.786 250.462C144.733 249.249 142.977 248.922 141.557 249.664L139.593 250.694C138.652 251.188 138.277 252.345 138.74 253.303C139.194 254.237 138.843 255.362 137.934 255.873L132.499 258.969C131.39 259.6 130.025 259.568 128.94 258.889L128.03 258.315C127.152 257.764 126.57 256.846 126.442 255.817L126.242 254.277C126.107 253.183 126.49 252.09 127.288 251.332L127.942 250.709C128.349 250.318 128.836 250.039 129.379 249.88L131.813 249.177C133.281 248.754 134.079 247.166 133.56 245.73C133.161 244.652 133.504 243.447 134.414 242.737L141.604 237.127C142.434 236.473 142.921 235.475 142.921 234.422V232.929C142.921 232.459 143.201 232.036 143.639 231.852C144.086 231.661 144.605 231.764 144.948 232.115L146.401 233.632C146.816 234.063 147.334 234.382 147.909 234.557L150.542 235.339C151.332 235.571 152.178 235.523 152.929 235.188L154.955 234.294C155.929 233.871 156.647 233.017 156.911 231.988L157.222 230.799C157.437 229.937 157.988 229.187 158.746 228.716L160.382 227.702C160.669 227.519 160.885 227.239 160.981 226.92C161.132 226.402 160.965 225.843 160.558 225.492L158.435 223.664C157.892 223.201 157.629 222.491 157.725 221.781C157.932 220.408 156.751 219.227 155.37 219.419C154.413 219.554 153.671 220.336 153.591 221.294L152.929 228.7C152.793 230.168 151.612 231.317 150.135 231.413H150C148.882 231.485 147.837 230.878 147.342 229.881L146.84 228.851C146.449 228.061 145.491 227.726 144.693 228.109C144.015 228.436 143.209 228.253 142.738 227.67L141.628 226.306C140.743 225.212 140.607 223.688 141.285 222.451L149.393 207.704C149.657 207.225 150.024 206.818 150.471 206.507L156.759 202.213C157.844 201.471 159.249 201.407 160.39 202.038L170.86 207.807C171.379 208.095 171.698 208.645 171.698 209.236C171.698 209.938 171.251 210.561 170.581 210.784L167.269 211.877C166.319 212.197 165.912 213.314 166.439 214.16C166.814 214.766 167.564 215.038 168.243 214.814L171.674 213.657C172.831 213.266 173.613 212.181 173.613 210.952C173.613 210.313 173.837 209.691 174.236 209.188L175.098 208.095C175.664 207.376 176.486 206.914 177.396 206.802L185.496 205.812C186.198 205.725 186.853 205.429 187.379 204.958L189.143 203.386C190.181 202.461 190.564 201.008 190.117 199.691L189.558 198.024C189.167 196.866 189.598 195.59 190.603 194.903C191.01 194.624 191.481 194.464 191.968 194.44C217.569 208.047 234.998 234.988 234.998 266Z" fill="#F8F8F8"/>
<path d="M131.702 231.988L129.172 227.32C128.781 226.593 129.013 225.684 129.715 225.245C130.545 224.718 131.638 225.077 132.005 225.979L133.37 229.347C133.561 229.817 133.857 230.24 134.232 230.592L135.397 231.669C137.328 233.449 136.658 236.641 134.176 237.495L132.189 238.181C131.67 238.364 131.088 238.149 130.8 237.678C130.569 237.295 130.577 236.808 130.824 236.433L131.542 235.332C132.205 234.326 132.253 233.042 131.686 231.988H131.702Z" fill="#F8F8F8"/>
<path d="M127.801 235.132L129.062 234.103C129.724 233.56 129.828 232.586 129.293 231.916C128.702 231.182 127.601 231.126 126.947 231.804L125.814 232.977C125.247 233.568 125.263 234.502 125.861 235.068C126.396 235.571 127.226 235.603 127.793 235.14L127.801 235.132Z" fill="#F8F8F8"/>
<path d="M226.525 294.13L227.467 292.829C227.691 292.518 227.635 292.079 227.339 291.84C226.988 291.553 226.47 291.648 226.238 292.039L225.432 293.428C225.281 293.691 225.328 294.034 225.56 294.242C225.847 294.497 226.294 294.449 226.517 294.138L226.525 294.13Z" fill="#F8F8F8"/>
<path d="M241.336 255.405H225.308C224.191 255.405 223.447 257.414 223.933 259.173L225.753 265.865C226.342 268.036 227.366 269.776 228.638 270.745L240.24 279.662C240.592 279.931 240.964 280.075 241.357 280.075C242.867 280.075 244.098 277.939 244.098 275.32V260.159C244.098 257.54 242.867 255.405 241.357 255.405" fill="#824F36"/>
<path d="M66.9929 255.405C65.4828 255.405 64.252 257.664 64.252 260.454V276.495C64.252 279.267 65.4828 281.526 66.9929 281.526C67.3756 281.526 67.7582 281.374 68.1099 281.089L79.7148 271.654C80.987 270.629 82.0006 268.788 82.6005 266.491L84.4209 259.41C84.8967 257.55 84.1623 255.424 83.0453 255.424H67.0032" fill="#824F36"/>
<path d="M184.904 126.898L183.993 138.31L183.131 149.125L181.959 163.811L169.353 169.317C160.772 173.068 151.035 173.068 142.454 169.317L129.848 163.811L140.5 111.5L184.904 126.898Z" fill="#824F36"/>
<path d="M183.766 138.157L182.881 149.416C180.487 150.947 177.927 151.991 175.066 152.677C171.275 153.584 167.234 153.647 163.199 152.711C158.657 151.66 154.643 149.468 151.381 146.493C150.341 145.54 151.465 143.815 152.723 144.426C154.465 145.271 156.319 145.934 158.272 146.385C167.902 148.617 177.526 145.169 183.771 138.157H183.766Z" fill="#663C2B"/>
<path d="M148.444 103.041C149.153 99.9264 147.18 96.8325 144.034 96.131C140.888 95.4295 137.764 97.3822 137.055 100.497C136.347 103.612 137.737 109.271 140.883 109.972C144.029 110.674 147.736 106.156 148.449 103.041H148.444Z" fill="#824F36"/>
<path d="M199.975 114.17C200.755 110.796 198.585 107.444 195.125 106.684C191.664 105.924 188.227 108.039 187.447 111.414C186.668 114.788 188.198 120.919 191.658 121.679C195.119 122.439 199.196 117.544 199.981 114.17H199.975Z" fill="#824F36"/>
<path d="M159.368 145.718C145.843 142.676 137.139 129.53 139.644 115.938L143.62 94.3832C146.363 79.5065 160.97 69.889 175.771 73.2171C190.573 76.5452 199.624 91.4812 195.696 106.094L190.005 127.265C186.412 140.615 172.893 148.76 159.368 145.723V145.718Z" fill="#824F36"/>
<path d="M175.653 73.2293C161.169 69.9304 146.777 79.1123 143.509 93.7318L143.28 94.7435C143.269 94.782 143.263 94.8205 143.258 94.8589L142.762 98.3118C142.648 99.109 143.16 99.8622 143.939 100.038C144.647 100.198 145.372 99.8348 145.671 99.164L150.59 88.0303C152.431 83.8627 156.931 81.5865 161.338 82.5871L184.576 87.8763C188.989 88.8825 192.083 92.8851 191.974 97.4486L191.68 109.638C191.663 110.375 192.159 111.018 192.873 111.177C193.652 111.353 194.431 110.897 194.67 110.127L195.705 106.74C195.705 106.74 195.711 106.707 195.716 106.696L195.727 106.746L195.967 105.674C199.235 91.0542 190.138 76.5282 175.653 73.2293Z" fill="black"/>
<path d="M159.48 107.62C159.001 109.814 158.336 111.53 157.493 111.346C156.651 111.163 156.761 109.325 157.239 107.131C157.718 104.937 158.383 103.221 159.225 103.405C160.067 103.589 159.958 105.426 159.48 107.62Z" fill="black"/>
<path d="M178.999 111.877C178.521 114.071 177.855 115.787 177.013 115.603C176.171 115.42 176.28 113.582 176.759 111.388C177.237 109.194 177.903 107.478 178.745 107.662C179.587 107.845 179.478 109.683 178.999 111.877Z" fill="black"/>
<path d="M162.861 99.3004C163.298 99.0923 163.633 98.6964 163.737 98.195C163.908 97.3607 163.378 96.5281 162.534 96.3496C162.37 96.3149 158.806 95.5863 154.945 97.6072C154.174 98.0071 153.882 98.9418 154.28 99.7236C154.681 100.49 155.626 100.784 156.397 100.384C159.22 98.898 161.85 99.4279 161.883 99.4346C162.221 99.5028 162.563 99.4284 162.861 99.3004Z" fill="black"/>
<path d="M177.215 102.43C176.904 102.059 176.765 101.56 176.879 101.061C177.071 100.231 177.9 99.6949 178.741 99.8839C178.905 99.9207 182.449 100.742 185.117 104.187C185.652 104.872 185.528 105.843 184.841 106.388C184.158 106.918 183.176 106.792 182.641 106.107C180.693 103.581 178.082 102.967 178.049 102.96C177.713 102.881 177.433 102.671 177.215 102.43Z" fill="black"/>
<path d="M164.985 125.75C164.492 125.495 163.948 125.645 163.689 126.063C163.416 126.499 163.555 127.086 163.993 127.354C164.196 127.478 164.407 127.598 164.618 127.707C168.674 129.801 174.203 128.889 177.222 125.637C177.391 125.451 177.478 125.212 177.469 124.958C177.46 124.705 177.355 124.475 177.167 124.299C177.107 124.238 177.038 124.196 176.957 124.154C176.578 123.959 176.117 124.042 175.828 124.354C173.362 127.017 168.821 127.754 165.473 126.026C165.306 125.939 165.133 125.851 164.978 125.74L164.973 125.75L164.985 125.75Z" fill="black"/>
</g>
<defs>
<clipPath id="clip0_5_614">
<rect width="312" height="312" rx="17.414" fill="white"/>
</clipPath>
</defs>
</svg>
