<svg width="312" height="312" viewBox="0 0 312 312" fill="none" xmlns="http://www.w3.org/2000/svg"><g clip-path="url(#clip0_2203_85951)"><rect width="312" height="312" rx="17.414" fill="#F8F8F8"/><path d="M76.849 196.742c19.669 0 35.614-15.945 35.614-35.614 0-19.669-15.945-35.614-35.614-35.614-19.67 0-35.615 15.945-35.615 35.614 0 19.669 15.945 35.614 35.614 35.614z" fill="#000"/><path d="M44.225 316.228l-13.2 24.674c-2.888 1.634-6.039 2.447-9.143 2.447a18.38 18.38 0 01-15.291-8.153l-12.295-18.21a51.71 51.71 0 01-5.257-47.699l22.15-56.65a51.79 51.79 0 018.114-13.897l.922 77.662c-.573 6.782 23.993 39.826 23.993 39.826h.007z" fill="#FF7059"/><path d="M141.363 316.228H23.109c-6.79 0-12.14-5.807-11.567-12.589l7.773-104.907c6.55-9.29 24.984-18.279 34.414-24.396 2.013-1.231 17.8-11.218 25.108-14.841 5.08-3.252 8.927 1.525 18.388 6.193 16.32 9.903 28.816 16.22 42.59 26.378l2.005 17.025.348 2.934.418 3.515.426 3.601 3.794 32.284 6.139 52.214c.573 6.782-4.776 12.589-11.566 12.589h-.016z" fill="#FF7059"/><path d="M144.426 316.228c-8.408 0-22.576-9.98-30.117-15.802-2.083-1.603-5.102-.116-5.102 2.516v13.286h35.219z" fill="#E55041"/><path d="M104.699 209.796H87.434a6.4 6.4 0 00-6.403 6.403v39.098a6.41 6.41 0 006.403 6.402h17.265a6.41 6.41 0 006.403-6.402v-39.098a6.4 6.4 0 00-6.403-6.403z" fill="#fff"/><path d="M114.068 233.781H89.2c-1.75 0-2.888 1.812-2.153 3.383l2.826 5.97a8.907 8.907 0 004.475 4.366l18.001 7.99c.526.24 1.123.356 1.719.356a4.257 4.257 0 004.25-4.25v-13.557a4.257 4.257 0 00-4.25-4.25v-.008z" fill="#824F36"/><path d="M144.416 316.227h-11.249l-13.658-11.93-1.145-67.381c-.024-1.354 1.463-2.198 2.609-1.478l25.804 16.003c-1.912-16.274-5.094-43.333-6.975-59.36 15.143 10.452 27.872 55.783 34.7 71.972 11.304 26.796-3.128 52.26-30.101 52.182l.015-.008z" fill="#FF7059"/><path d="M105.565 174.808l-9.074 17.931c-4.544 8.958-17.327 8.942-21.856 0l-9.05-17.931a12.139 12.139 0 01-1.216-7.13l6.14-46.353h30.132l3.654 27.632 1.03 7.773 1.448 10.948a12.216 12.216 0 01-1.208 7.13zM66.37 122.193a5.877 5.877 0 00-7.596-3.422 5.898 5.898 0 00-3.422 7.611c1.154 3.05 5.52 7.084 8.563 5.93 3.043-1.153 3.616-7.068 2.454-10.111v-.008z" fill="#824F36"/><path d="M98.823 151.954C86.026 156.809 71.68 150.7 66.3 138.103l-8.517-19.967c-5.86-13.796.898-29.691 14.912-35.01 14.013-5.319 29.637 2.083 34.39 16.297l6.883 20.587c4.351 12.984-2.322 27.082-15.136 31.952l-.008-.008z" fill="#824F36"/><path d="M105.326 156.731c-1.145.38-3.213 1.092-4.815 1.386a25.264 25.264 0 01-11.373-.557 25.317 25.317 0 01-11.04-6.395c-.953-.929.208-2.493 1.385-1.858a25.558 25.558 0 005.218 2.105 25.401 25.401 0 0019.596-2.454l1.029 7.773z" fill="#663C2B"/><path d="M105.988 96.458c-5.288-5.071-13.2-6.302-19.75-3.02-6.743 3.384-13.41 8.679-15.066 12.52l-7.928 18.294a1.777 1.777 0 01-.96.922 1.718 1.718 0 01-2.222-.999l-3.221-8.485c-5.118-13.487 1.169-28.887 14.547-34.314 6.968-2.834 14.409-2.462 20.742.387a26.307 26.307 0 0113.851 14.703h.015l-.008-.008zm-2.593 21.09c.774 2.145 1.711 3.755 2.671 3.407.96-.349.65-2.184-.124-4.32-.774-2.137-1.703-3.732-2.663-3.392-.96.341-.651 2.184.116 4.305zm-4.057-7.386a1.613 1.613 0 01-1.153-.836 1.582 1.582 0 01.658-2.122c.131-.077 3.406-1.757 7.703-.867.86.178 1.402.999 1.224 1.866a1.59 1.59 0 01-1.874 1.223c-3.143-.665-5.567.558-5.582.581-.31.163-.658.201-.976.163v-.016.008zm-15.012 9.925c-.96.349-.65 2.184.116 4.305.774 2.145 1.71 3.747 2.67 3.407.96-.341.651-2.184-.123-4.328-.774-2.145-1.703-3.732-2.663-3.391v.007zm1.054-4.939c-.217.24-.503.433-.844.518-.03-.007-2.663.643-4.614 3.198a1.587 1.587 0 01-2.215.294 1.573 1.573 0 01-.286-2.214c2.679-3.484 6.256-4.344 6.41-4.367a1.58 1.58 0 011.882 1.177 1.613 1.613 0 01-.333 1.386v.015-.007z" fill="#000"/><path d="M98.883 136.052s-5.443 2.903-10.762-.194" stroke="#000" stroke-width="1.324" stroke-miterlimit="10" stroke-linecap="round"/><path d="M133.211 292.862c-8.594-17.196 2.764-52.895 2.764-52.895l14.253-36.241a46.492 46.492 0 0119.247-22.778l33.833-20.385h49.326l32.951 19.851a46.434 46.434 0 0119.882 24.496l18.155 52.113a46.42 46.42 0 01-7.928 44.696 63.624 63.624 0 01-51.122 25.743h-74.704c-23.157 0-44.765-12.411-55.721-32.812-.317-.596-.627-1.192-.929-1.788h-.007z" fill="#C3DCF4"/><path d="M240.805 123.726h-25.689l-12.147 36.837 21.701 36.28c1.487 2.485 5.087 2.485 6.573 0l21.717-36.28-12.147-36.837h-.008zm6.273-6.953a5.877 5.877 0 017.595-3.422 5.898 5.898 0 013.422 7.611c-1.154 3.05-5.52 7.084-8.563 5.93-3.043-1.153-3.616-7.068-2.454-10.111v-.008z" fill="#FFBD6E"/><path d="M256.157 111.431c-.155.433-.318.852-.503 1.277l-.388.906-2.539 5.962-3.136 7.332-2.462 5.775a25.466 25.466 0 01-2.082 3.91 25.335 25.335 0 01-9.392 8.594 25.433 25.433 0 01-21.051 1.347 25.314 25.314 0 01-5.961-3.221 8.035 8.035 0 01-.488-.364c-8.454-6.457-12.232-17.783-8.687-28.367l6.883-20.586c.364-1.077.79-2.114 1.27-3.113 5.845-12.147 20.176-18.101 33.121-13.185 13.58 5.164 20.347 20.262 15.407 33.741l.008-.008z" fill="#FFBD6E"/><path d="M235.666 145.187a1.008 1.008 0 01-.318.558 25.308 25.308 0 01-11.04 6.395 25.262 25.262 0 01-11.373.557c-1.348-.247-4.948-1.269-6.775-1.819l2.501-7.564a8.035 8.035 0 01-.488-.364v-.031c.186.093.356.193.527.286 5.682 3.113 13.386 4.646 20.052 2.788a25.548 25.548 0 005.218-2.106c.96-.519 1.905.426 1.703 1.3h-.007z" fill="#E59A48"/><path d="M207.449 91.038c5.288-5.071 13.201-6.302 19.75-3.02 6.744 3.384 13.41 8.68 15.067 12.52l7.928 18.294c.186.419.542.759.96.922a1.718 1.718 0 002.222-.999l3.221-8.485c5.117-13.487-1.169-28.886-14.548-34.314-6.968-2.833-14.408-2.462-20.741.387a26.306 26.306 0 00-13.851 14.703h-.016l.008-.008zm3.18 20.595c-.55 2.051-1.293 3.623-2.215 3.375-.921-.247-.774-1.982-.224-4.033.549-2.036 1.293-3.608 2.206-3.36.914.247.774 1.982.233 4.018zm3.181-7.201c.441-.116.82-.426 1.006-.867a1.474 1.474 0 00-.782-1.92c-.132-.062-3.306-1.371-7.239-.194a1.47 1.47 0 10.844 2.818c2.872-.867 5.218.078 5.241.101.302.124.628.139.922.07v-.016l.008.008zm14.746 8.052c.922.248.775 1.982.233 4.018-.542 2.036-1.293 3.623-2.215 3.376-.921-.248-.774-1.982-.224-4.034.55-2.052 1.293-3.608 2.214-3.36h-.008z" fill="#000"/><path d="M227.516 106.778c.216.209.503.363.828.418.031-.008 2.524.387 4.545 2.609a1.47 1.47 0 102.175-1.982c-2.764-3.027-6.163-3.546-6.31-3.562a1.472 1.472 0 00-1.657 1.247c-.069.472.101.937.419 1.262v.015-.007z" fill="#000"/><path d="M233.797 122.293s-5.35 8.517-17.629 6.473" stroke="#000" stroke-width="1.324" stroke-miterlimit="10" stroke-linecap="round"/><path d="M171.561 275.349a16.93 16.93 0 01-1.835-18.039l5.342-10.685c.829-1.649 3.314-1.06 3.314.782v31.039a8.126 8.126 0 01-6.821-3.097zm112.639 0a16.93 16.93 0 001.835-18.039l-5.342-10.685c-.829-1.649-3.314-1.06-3.314.782v31.039a8.126 8.126 0 006.821-3.097z" fill="#9BC2DE"/><path d="M273.96 196.743h-92.024a8.291 8.291 0 00-8.291 8.291v52.446a8.291 8.291 0 008.291 8.292h92.024a8.288 8.288 0 008.292-8.292v-52.446a8.292 8.292 0 00-8.292-8.291z" fill="#fff"/><path d="M227.954 236.739a5.49 5.49 0 000-10.979 5.485 5.485 0 00-5.489 5.489 5.485 5.485 0 005.489 5.49z" fill="#BCBCBC"/><path d="M284.922 229.112h-27.447c-1.912 0-3.174 1.99-2.361 3.724l3.112 6.597a9.847 9.847 0 004.925 4.815l19.866 8.811a4.694 4.694 0 006.596-4.289v-14.958a4.693 4.693 0 00-4.691-4.692v-.008zm-116.261-1.115a4.694 4.694 0 00-4.692 4.692v14.958a4.693 4.693 0 006.596 4.289l19.867-8.811a9.849 9.849 0 004.924-4.815l3.112-6.597c.813-1.734-.441-3.724-2.361-3.724h-27.446v.008z" fill="#FFBD6E"/></g><defs><clipPath id="clip0_2203_85951"><rect width="312" height="312" rx="17.414" fill="#fff"/></clipPath></defs></svg>