<svg width="214" height="214" viewBox="0 0 214 214" fill="none" xmlns="http://www.w3.org/2000/svg">
<g clip-path="url(#clip0_2216_148567)">
<rect width="214" height="214" rx="17.414" fill="#F8F8F8"/>
<path d="M76.5291 156.352H143.079L144.347 107.368L67.1938 133.47L76.5291 156.352Z" fill="#DCC6FF"/>
<path d="M167.297 206.419L177.616 158.304C180.493 144.884 178.705 130.884 172.536 118.623L162.971 99.6077L142.392 108.172C135.89 110.879 130.82 116.194 128.43 122.817L100.233 200.824C97.8323 207.458 102.749 214.463 109.803 214.463H157.349C162.145 214.463 166.296 211.111 167.302 206.419" fill="#ED9696"/>
<path d="M167.297 206.419L177.616 158.304C180.493 144.884 178.705 130.884 172.536 118.623L162.971 99.6077L142.392 108.172C135.89 110.879 130.82 116.194 128.43 122.817L100.233 200.824C97.8323 207.458 102.749 214.463 109.803 214.463H157.349C162.145 214.463 166.296 211.111 167.302 206.419" fill="#ED9696"/>
<path d="M167.297 206.419L177.616 158.304C180.493 144.884 178.705 130.884 172.536 118.623L162.971 99.6077L142.392 108.172C135.89 110.879 130.82 116.194 128.43 122.817L100.233 200.824C97.8323 207.458 102.749 214.463 109.803 214.463H157.349C162.145 214.463 166.296 211.111 167.302 206.419" fill="#DCC6FF"/>
<path d="M163.226 101.399L155.338 97.9753L146.607 100.522L142.383 114.918C142.027 116.345 143.668 117.422 144.838 116.531L163.226 102.777V101.399Z" fill="#F4C9B8"/>
<path d="M116.309 156.352L120.296 145.327C120.575 144.561 119.546 144.014 119.065 144.665L110.386 156.352H116.314H116.309Z" fill="#306DC6"/>
<path d="M107.276 181.34L101.461 197.427L118.092 207.061C128.468 213.073 141.134 209.925 147.82 201.044L147.826 201.043L147.89 200.95C148.214 200.515 148.524 200.067 148.818 199.605L173.036 155.377L160.728 111.014L128.481 186.995L107.276 181.34Z" fill="#BCA4EA"/>
<path d="M94.8408 120.839L91.5159 100.442C89.6528 89.013 78.8043 81.2345 67.3346 83.1041C55.8649 84.9738 48.0483 95.795 49.9114 107.224L53.2363 127.621C49.9157 130.66 47.1506 134.259 45.0761 138.238L40.2767 108.795C37.5505 92.071 48.9867 76.2389 65.7695 73.5031C82.5523 70.7674 98.4265 82.1476 101.153 98.8716L105.952 128.314C102.721 125.2 98.9569 122.668 94.8428 120.839L94.8408 120.839Z" fill="#3E5FFF"/>
<path d="M36.6639 160.474C40.446 183.675 62.3864 199.407 85.6675 195.612C108.949 191.817 124.759 169.931 120.977 146.73C117.195 123.528 95.2544 107.797 71.9714 111.592C48.6884 115.387 32.8818 137.272 36.6639 160.474Z" fill="#3E5FFF"/>
<path d="M68.4471 148.631C67.5998 143.433 71.0844 138.539 76.2296 137.7C81.3749 136.861 86.2333 140.395 87.0806 145.593C87.636 149 86.3313 152.278 83.9162 154.367L85.756 165.653C86.1942 168.342 84.3743 170.897 81.7138 171.331C79.0533 171.765 76.516 169.919 76.0777 167.231L74.238 155.945C71.2846 154.731 69.0064 152.037 68.4511 148.63L68.4471 148.631Z" fill="#2E53BC"/>
<path d="M174.448 155.548L160.329 104.692L134.64 165.222L121.795 195.487L147.427 194.722L174.448 155.548Z" fill="#DCC6FF"/>
<path d="M145.441 101.472L163.395 102.725L168.126 73.7583C169.883 63.0015 162.586 52.8549 151.829 51.098C141.072 49.341 130.925 56.6384 129.169 67.3951L127.339 78.5944C125.467 90.0582 133.854 100.654 145.442 101.466" fill="#F4C9B8"/>
<path d="M129.107 69.0001L126.073 72.777C125.576 73.4107 125.516 74.2821 125.93 74.9757L127.608 78.0001L129.107 69.0001Z" fill="#F4C9B8"/>
<path d="M134.867 62.243C135.164 62.2915 135.483 62.205 135.72 61.9777C136.114 61.5988 136.127 60.9748 135.748 60.5804C135.683 60.5087 134.075 58.8498 131.34 58.5305C130.797 58.4639 130.301 58.8539 130.24 59.398C130.178 59.9422 130.558 60.4363 131.107 60.4984C133.108 60.731 134.307 61.9409 134.316 61.9535C134.468 62.1112 134.663 62.2041 134.868 62.2376" fill="black"/>
<path d="M130.265 70.7782C129.951 72.4946 129.863 73.9154 130.364 74.0082C130.864 74.101 131.286 72.7402 131.599 71.0238C131.913 69.3073 132.001 67.8865 131.501 67.7937C131 67.701 130.579 69.0617 130.265 70.7782Z" fill="black"/>
<path d="M131.429 85.7357C131.061 85.6758 130.745 85.8845 130.665 86.2039C130.582 86.5395 130.792 86.8841 131.128 86.9666C131.282 87.003 131.444 87.0348 131.6 87.0604C134.622 87.5541 137.964 85.8224 139.214 83.1229C139.284 82.9681 139.289 82.7972 139.232 82.6383C139.175 82.4793 139.057 82.3548 138.903 82.2797C138.852 82.2547 138.799 82.2405 138.739 82.2308C138.458 82.185 138.179 82.3333 138.06 82.5908C137.039 84.8014 134.293 86.2146 131.799 85.8073C131.675 85.7871 131.545 85.7659 131.424 85.7294L131.429 85.7357Z" fill="black"/>
<path d="M169.339 75.7628L165.053 93.3953C162.912 93.0193 162.076 92.3753 160.508 90.9802C158.942 89.5914 157.763 87.773 157.134 85.6794L154.129 75.6422L138.03 52.6163C138.453 50.2205 140.739 48.6244 143.129 49.049L151.454 50.5218C151.513 50.5248 151.567 50.5352 151.627 50.5444L151.707 50.5567C151.794 50.5743 151.882 50.592 151.975 50.6085C152.211 50.6593 152.458 50.7015 152.694 50.7523C152.917 50.8052 153.134 50.8593 153.359 50.9186C153.447 50.9425 153.535 50.96 153.623 50.9839C153.902 51.0598 154.162 51.139 154.43 51.2233C154.456 51.2253 154.477 51.2346 154.504 51.2429C164.747 54.4864 171.255 64.8888 169.332 75.7576" fill="#824F36"/>
<path d="M159.92 74.8516C158.85 72.6833 156.217 71.7943 154.049 72.865C151.88 73.9357 150.991 76.5682 152.062 78.7365C153.133 80.9048 155.765 81.7939 157.934 80.7232C160.102 79.6525 160.991 77.02 159.92 74.8516Z" fill="#F4C9B8"/>
<path d="M35.237 162.167C38.6408 159.986 41.1697 157.21 42.9179 154.822C44.7236 152.355 43.7945 148.708 41.1383 147.722L35.0388 145.462C34.4567 145.247 33.8208 145.608 33.7081 146.218L31.3233 159.133C30.8638 161.632 33.237 163.458 35.237 162.167Z" fill="#F4C9B8"/>
<path d="M164.546 70.7588L178.419 66.3826L178.887 66.2337C178.932 66.2185 178.971 66.2078 179.015 66.1979C180.25 65.8664 181.581 65.8147 182.918 66.1002C187.444 67.0646 190.337 71.5179 189.372 76.0434C188.408 80.5689 183.959 83.4624 179.429 82.4973C178.091 82.2119 176.897 81.6258 175.904 80.8168C175.87 80.7908 175.837 80.7598 175.799 80.7278L175.432 80.4051L164.541 70.7581L164.546 70.7588Z" fill="#824F36"/>
<path d="M168.405 68.3976L168.177 75.8686C168.154 76.5378 168.618 77.1244 169.275 77.2684C170.022 77.4297 170.76 76.9498 170.916 76.2029L172.58 68.3801C172.792 67.3795 171.888 66.5028 170.895 66.7449L169.459 67.0967C168.857 67.2433 168.42 67.7809 168.404 68.403" fill="black"/>
<path d="M81.9669 182.092L96.793 192L100.793 190L104.429 187.53L63.3598 164.686L67.2471 174.255C67.6607 175.273 68.4583 176.088 69.4674 176.522L80.3498 181.213C80.9144 181.456 81.4557 181.751 81.9669 182.092Z" fill="#2E53BC"/>
<path d="M69.3437 175.486L82.7051 180.161L86.293 169.5L75.4653 160.704C74.7921 160.157 73.8537 160.929 74.2602 161.695L76.7453 166.381L66.09 163.461C64.514 163.029 63.118 164.576 63.7085 166.1L66.1481 172.395C66.7094 173.843 67.8774 174.973 69.3437 175.486Z" fill="#F4C9B8"/>
<path d="M86.293 169.5L151.235 186.847C147.355 201.397 130.718 208.287 117.691 200.738L82.2561 179.957L84.793 173.5L86.293 169.5Z" fill="#DCC6FF"/>
</g>
<defs>
<clipPath id="clip0_2216_148567">
<rect width="214" height="214" rx="17.414" fill="white"/>
</clipPath>
</defs>
</svg>
