<svg width="120" height="120" viewBox="0 0 120 120" fill="none" xmlns="http://www.w3.org/2000/svg">
<rect width="120" height="120" fill="#56A227"/>
<path fill-rule="evenodd" clip-rule="evenodd" d="M61.5464 68.0788C57.7912 68.0788 55.5266 65.7727 55.5266 61.6305V51.2708H59.61V61.4675C59.61 63.3285 60.1939 64.2836 61.5676 64.2836C62.9918 64.2836 63.6685 63.3527 63.6685 61.4675V51.2708H67.7262V61.6305C67.7262 65.6806 65.2564 68.0795 61.5464 68.0795V68.0788ZM72.8634 62.4829V67.8087H68.8102V51.2701H74.3065C76.0566 51.2701 77.3843 51.3877 78.5007 52.1776C79.971 53.2027 80.7389 54.759 80.7389 56.8312C80.7389 58.9713 79.7605 60.7396 78.1077 61.7376C77.0576 62.369 75.7541 62.4844 74.0289 62.4844H72.8634V62.4829ZM72.877 55.0668H73.9693C75.7979 55.0668 76.6722 55.6416 76.6722 57.0636C76.6722 58.604 75.6794 59.1328 73.6396 59.1328H72.8777V55.0668H72.877ZM103.237 58.5987V67.8072H99.174V51.2716H102.836L108.939 60.4612V51.2708H113V67.808H109.428L103.237 58.5987ZM45.913 68.3503C43.4606 68.3503 41.3574 67.4526 39.7235 65.7101C38.1567 64.0399 37.3631 61.9699 37.3631 59.4986C37.3631 57.1903 38.2502 55.0736 39.8857 53.4464C41.5211 51.8245 43.5768 51 45.9372 51C48.1573 51 50.2597 51.8713 51.871 53.4736C53.5547 55.1437 54.4426 57.2853 54.4426 59.5711C54.4426 61.9699 53.5985 64.1108 52.0347 65.7357C50.4241 67.43 48.2267 68.3503 45.913 68.3503ZM45.8376 55.066C48.1701 55.066 50.105 56.9957 50.105 59.4096C50.105 62.108 48.1701 64.0128 45.7901 64.0128C43.5066 64.0128 41.4299 62.0144 41.4299 59.4096C41.4299 56.9957 43.3663 55.0668 45.8376 55.0668V55.066ZM89.835 68.3503C87.3811 68.3503 85.2794 67.4526 83.6447 65.7101C82.0772 64.0399 81.2813 61.9699 81.2813 59.4986C81.2813 57.1903 82.1684 55.0736 83.8069 53.4464C85.4446 51.8245 87.4973 51 89.8577 51C92.0793 51 94.1771 51.8713 95.793 53.4736C97.473 55.1437 98.3601 57.2853 98.3601 59.5711C98.3601 61.9699 97.522 64.1108 95.9544 65.7357C95.1667 66.5658 94.2174 67.226 93.165 67.6757C92.1127 68.1253 90.9794 68.3549 89.835 68.3503ZM89.7521 55.066C92.0876 55.066 94.0225 56.9957 94.0225 59.4096C94.0225 62.108 92.0876 64.0128 89.7091 64.0128C87.4218 64.0128 85.3473 62.0144 85.3473 59.4096C85.3473 56.9957 87.283 55.0668 89.7513 55.0668L89.7521 55.066ZM9.32721 65.695C7.78454 64.0293 7 61.9647 7 59.5002C7 57.1986 7.87506 55.0871 9.4909 53.4645C11.103 51.8464 13.1345 51 15.4602 51C18.9672 51 22.0314 53.1831 23.3463 56.7543H18.7801C17.767 55.6725 16.7041 55.1324 15.4157 55.1324C13.0183 55.1324 11.1286 57.1262 11.1286 59.5228C11.1286 62.1759 13.1556 64.2179 15.4149 64.2179C16.938 64.2179 18.2966 63.4213 19.1037 61.9647H14.4267V58.6319H23.7634C23.7846 59.0038 23.8087 59.3832 23.8087 59.7333C23.8087 61.6116 23.3463 63.2078 22.4003 64.6185C20.8327 66.9434 18.2061 68.3503 15.4149 68.3503C12.9949 68.3503 10.9431 67.433 9.32721 65.695ZM28.9346 62.4829V67.808H24.8912V51.2708H30.3769C32.118 51.2708 33.4397 51.3885 34.5584 52.1783C36.0226 53.2027 36.7898 54.759 36.7898 56.8086C36.7898 59.4821 35.3957 61.4841 33.0504 62.1351L37.093 67.8087H32.0969L28.9361 62.4829H28.9346ZM28.958 55.0668H30.0842C31.8857 55.0668 32.7539 55.6416 32.7539 57.0636C32.7539 58.604 31.7687 59.1328 29.7553 59.1328H28.958V55.0668Z" fill="white"/>
</svg>
