<svg width="109" height="34" viewBox="0 0 109 34" fill="none" xmlns="http://www.w3.org/2000/svg">
<g clip-path="url(#clip0_3139_677)">
<path d="M52.9219 5.82422H50.2646V21.8045H52.9219V5.82422Z" fill="black"/>
<path d="M61.9366 12.6394C59.9156 12.19 58.1682 11.802 58.1682 10.1217C58.1682 8.79147 59.2793 7.99733 61.1463 7.99733C63.0133 7.99733 64.1552 8.72649 64.8186 10.2209L64.844 10.2805L67.2728 9.79136L67.2475 9.70473C66.4354 7.01007 64.3038 5.58423 61.081 5.58423C57.8583 5.58423 55.5998 7.45046 55.5998 10.1217C55.5998 13.6032 58.5108 14.2927 61.0774 14.9027C63.0586 15.3702 64.7679 15.7781 64.7679 17.3519C64.7679 18.8121 63.5661 19.6531 61.4689 19.6531C59.5313 19.6531 58.0595 18.7417 57.4323 17.148L57.4069 17.0866L54.9092 17.5974L54.9346 17.6804C55.7321 20.3967 58.1827 22.0193 61.4907 22.0193C65.0687 22.0193 67.3798 20.1874 67.3798 17.3519C67.3798 13.8505 64.4905 13.2062 61.9366 12.6412V12.6394Z" fill="black"/>
<path d="M75.4092 12.6394C73.3882 12.19 71.6409 11.802 71.6409 10.1217C71.6409 8.79147 72.752 7.99733 74.619 7.99733C76.4859 7.99733 77.6278 8.72649 78.2913 10.2209L78.3166 10.2805L80.7455 9.79136L80.7201 9.70473C79.9081 7.01007 77.7765 5.58423 74.5537 5.58423C71.3309 5.58423 69.0724 7.45046 69.0724 10.1217C69.0724 13.6032 71.9834 14.2927 74.5501 14.9027C76.5312 15.3702 78.2405 15.7781 78.2405 17.3519C78.2405 18.8121 77.0388 19.6531 74.9416 19.6531C73.0039 19.6531 71.5321 18.7417 70.905 17.148L70.8796 17.0866L68.3818 17.5974L68.4072 17.6804C69.2047 20.3967 71.6554 22.0193 74.9633 22.0193C78.5414 22.0193 80.8524 20.1874 80.8524 17.3519C80.8524 13.8505 77.9596 13.2062 75.4092 12.6412V12.6394Z" fill="black"/>
<path d="M82.9951 21.8027H93.3124V19.3462H85.6524V14.8756H92.9245V12.5311H85.6524V8.27883H93.3124V5.82422H82.9951V21.8027Z" fill="black"/>
<path d="M109 13.8017C109 9.82563 106.06 6.52454 102.23 5.93074C101.558 5.84952 100.834 5.80981 100.053 5.80981H95.8643V21.7901H100.053C100.838 21.7901 101.563 21.7504 102.236 21.6691C106.064 21.0735 109 17.7742 109 13.8017ZM98.5197 19.3337V8.24638H100.117C100.849 8.24638 101.505 8.29331 102.098 8.38355L102.774 8.54238C104.978 9.28418 106.569 11.3616 106.569 13.8017C106.569 16.2419 104.978 18.3193 102.774 19.0611L102.094 19.2001C101.509 19.2903 100.862 19.3373 100.138 19.3373H98.5197V19.3337Z" fill="black"/>
<path d="M35.373 29.7387C35.373 27.2732 37.0606 25.5081 39.4224 25.5081C41.4815 25.5081 42.714 26.4484 43.2288 28.2984L41.8549 28.5673C41.4525 27.414 40.6966 26.8581 39.4949 26.8581C38.0067 26.8581 36.979 28.0276 36.979 29.735C36.979 31.4424 38.0104 32.5976 39.4949 32.5976C40.6096 32.5976 41.4688 31.9713 41.8277 30.901L43.2016 31.1699C42.7593 32.9224 41.3854 33.9602 39.4242 33.9602C37.0642 33.9638 35.3749 32.1987 35.3749 29.7332L35.373 29.7387Z" fill="black"/>
<path d="M44.0986 29.7387C44.0986 26.8058 46.145 25.5081 48.235 25.5081C50.3249 25.5081 52.384 26.8039 52.384 29.7387C52.384 32.6734 50.3376 33.9999 48.2476 33.9999C46.1577 33.9999 44.0986 32.704 44.0986 29.7387ZM50.778 29.7387C50.778 27.9591 49.7467 26.8617 48.2313 26.8617C46.716 26.8617 45.6991 27.9446 45.6991 29.7387C45.6991 31.5327 46.7142 32.6318 48.2458 32.6318C49.7775 32.6318 50.778 31.5345 50.778 29.7387Z" fill="black"/>
<path d="M53.9824 25.6633H55.5866V27.1451C55.9563 26.1344 56.888 25.5208 58.2619 25.5208C60.5222 25.5208 61.5663 26.8166 61.5663 29.394V33.8105H59.9658V29.5221C59.9658 27.7425 59.277 26.9015 57.7635 26.9015C56.25 26.9015 55.5902 27.9122 55.5902 29.708V33.8105H53.986V25.6633H53.9824Z" fill="black"/>
<path d="M62.7373 31.8466L64.1983 31.446C64.6006 32.1878 65.4435 32.5848 66.5872 32.5848C67.8615 32.5848 68.5467 32.1842 68.5467 31.446C68.5467 29.5797 63.0962 31.2763 63.0962 27.8543C63.0962 26.4591 64.5843 25.5188 66.4712 25.5188C67.9594 25.5188 69.4602 26.2606 69.946 27.385L68.5158 27.7695C68.1733 27.1702 67.3721 26.8291 66.4984 26.8291C65.3529 26.8291 64.6677 27.2136 64.6677 27.8832C64.6677 29.735 70.1617 28.0258 70.1617 31.4027C70.1617 32.9693 68.7732 33.9511 66.5872 33.9511C64.7402 33.9511 63.2394 33.1227 62.7373 31.843V31.8466Z" fill="black"/>
<path d="M71.3369 30.0943V25.6633H72.9374V29.9643C72.9374 31.7313 73.5827 32.5723 75.127 32.5723C76.6714 32.5723 77.3003 31.5616 77.3003 29.7658V25.6633H78.9045V33.8123H77.3003V32.3305C76.9414 33.3412 75.9989 33.9675 74.6413 33.9675C72.381 33.9675 71.3369 32.659 71.3369 30.0943Z" fill="black"/>
<path d="M80.8617 25.6633H82.4659V27.201C82.7523 26.147 83.6803 25.5207 84.9546 25.5207C86.3285 25.5207 87.001 26.0315 87.4433 27.4591C87.8293 26.2192 88.9169 25.5081 90.4485 25.5081C92.5076 25.5081 93.3668 26.7336 93.3668 29.6665V33.8122H91.7626V29.7964C91.7626 27.7154 91.2171 26.8906 89.8594 26.8906C88.5018 26.8906 87.8692 27.7461 87.8692 29.7675V33.814H86.2651V29.8108C86.2651 27.6739 85.7793 26.905 84.4489 26.905C83.1184 26.905 82.4586 27.8327 82.4586 29.9246V33.814H80.8545V25.6615H80.8599L80.8617 25.6633Z" fill="black"/>
<path d="M94.7949 29.7387C94.7949 27.2335 96.4824 25.5081 98.9313 25.5081C101.534 25.5081 103.107 27.4176 102.908 30.1538H96.3991C96.4553 31.7348 97.4431 32.6319 99.0309 32.6319C100.176 32.6319 100.918 32.2474 101.32 31.4623L102.794 31.6879C102.136 33.1986 100.847 33.9674 99.0038 33.9674C96.4571 33.9674 94.7967 32.2871 94.7967 29.7368L94.7949 29.7387ZM101.404 28.8976C101.288 27.6017 100.401 26.7769 98.9566 26.7769C97.512 26.7769 96.6238 27.4898 96.4408 28.8976H101.405H101.404Z" fill="black"/>
<path d="M104.521 25.6633H106.126V27.0314C106.441 26.1632 107.3 25.3655 109 25.6073L108.83 27.1451C106.999 26.804 106.127 27.7876 106.127 29.7802V33.8122H104.523V25.6633H104.521Z" fill="black"/>
<path d="M30.2739 14.013C30.2739 6.35673 24.073 0.115511 16.413 0.00360972V0H13.7557V5.82971C6.14105 5.99756 0 12.2171 0 19.8372C0 27.4574 6.14105 33.6769 13.7557 33.8448V33.8484H16.413V28.0223C24.0766 27.9104 30.2739 21.671 30.2739 14.0148V14.013ZM6.20449 19.8372C6.20449 15.6229 9.56503 12.1738 13.7594 12.0096V27.6667C9.56503 27.4989 6.20449 24.0534 6.20449 19.8372ZM16.413 21.8442V6.18346C20.6544 6.29536 24.0748 9.7625 24.0748 14.013C24.0748 18.2634 20.6544 21.7305 16.413 21.8424V21.8442Z" fill="#D7272D"/>
<path d="M43.1917 17.0091L43.208 17.0055C44.5185 16.8015 45.7221 16.1337 46.5958 15.1302C47.4803 14.1123 47.9661 12.8146 47.9661 11.4718C47.9661 9.34746 46.6465 7.27368 44.6998 6.3929C43.4328 5.81896 42.0063 5.82618 40.6414 5.82618H36.3438V21.8028H39.001V17.1264C40.3894 17.1264 41.8069 17.1733 43.1935 17.0091H43.1917ZM38.9974 14.6483V8.23567C39.804 8.23567 40.6106 8.20138 41.4136 8.21762C42.1767 8.23386 43.0431 8.22303 43.7373 8.56776C45.1384 9.26263 45.8961 10.9303 45.4194 12.4248C45.0279 13.6521 43.8932 14.5888 42.5827 14.6321C42.2782 14.6483 38.9974 14.6718 38.9974 14.6483Z" fill="black"/>
</g>
<defs>
<clipPath id="clip0_3139_677">
<rect width="109" height="34" fill="white"/>
</clipPath>
</defs>
</svg>
