<svg width="120" height="120" viewBox="0 0 120 120" fill="none" xmlns="http://www.w3.org/2000/svg">
<rect width="120" height="120" fill="#002DA1"/>
<g clip-path="url(#clip0_3642_4532)">
<path d="M5.43412 56.6081H7.43773L7.90523 54.5106L10.8773 53.589L10.2094 56.6081H12.6805L12.2464 58.5466H9.77527L8.77347 62.964C8.70668 63.1864 8.63989 63.5678 8.63989 63.9492C8.63989 64.553 9.07401 64.9343 9.70848 64.9343C10.2094 64.9343 10.7103 64.839 11.0442 64.7119L10.5767 66.7458C10.1092 66.8411 9.57491 66.9682 9.07401 66.9682C7.20397 66.9682 5.86823 66.2691 5.86823 64.3305C5.86823 63.536 6.0352 62.7733 6.23556 61.9788L7.00361 58.5466H5L5.43412 56.6081Z" fill="white"/>
<path d="M77.1634 65.1886H77.13C76.1949 66.3326 75.2265 66.9682 73.6904 66.9682C71.787 66.9682 70.4179 65.9513 70.4179 64.0763C70.4179 60.7394 74.3249 60.4852 76.9296 60.4852H77.898C77.9648 60.1992 77.9648 59.9131 77.9648 59.6271C77.9648 58.6102 76.796 58.3242 75.8276 58.3242C74.6254 58.3242 73.4233 58.6102 72.3213 59.1186L72.722 57.0212C73.8908 56.6398 75.093 56.4174 76.3285 56.4174C78.4657 56.4174 80.4693 57.1483 80.4693 59.5318C80.4693 60.8983 79.4007 64.8708 79.167 66.7775H76.8294L77.1634 65.1886ZM74.4585 65.0614C76.5289 65.0614 77.1633 63.6949 77.5975 62.0742H76.6291C75.2933 62.0742 73.056 62.2966 73.056 64.0127C73.056 64.6801 73.7572 65.0614 74.4585 65.0614Z" fill="white"/>
<path d="M13.8159 56.6081H16.5875L14.3168 66.714H11.5451L13.8159 56.6081ZM14.8177 52.2542H17.5894L17.0217 54.7648H14.25L14.8177 52.2542Z" fill="white"/>
<path d="M24.9359 58.928C24.4016 58.5784 23.667 58.4195 22.8989 58.4195C20.6949 58.4195 19.4594 60.3898 19.4594 62.2966C19.4594 63.5996 19.9269 64.9343 21.7969 64.9343C22.4648 64.9343 23.333 64.7436 24.0343 64.4258L23.7338 66.5233C22.8989 66.9047 21.9639 67 21.0623 67C18.324 67 16.5542 65.2521 16.5542 62.6462C16.5542 59.1186 19.0253 56.4174 22.8321 56.4174C23.8673 56.4174 24.8691 56.6081 25.6038 56.7987L24.9359 58.928Z" fill="white"/>
<path d="M27.9747 52H30.7464L28.9098 60.2945H28.9431L32.8168 56.6081H36.3899L31.3141 61.2161L34.4865 66.7458H31.3809L28.6426 61.375H28.6092L27.407 66.7458H24.7022L27.9747 52Z" fill="white"/>
<path d="M46.3745 56.6081H48.3782L48.8457 54.5106L51.8177 53.589L51.1498 56.6081H53.6209L53.1868 58.5466H50.7157L49.7139 62.964C49.6471 63.1864 49.5803 63.5678 49.5803 63.9492C49.5803 64.553 50.0144 64.9343 50.6489 64.9343C51.1498 64.9343 51.6507 64.839 51.9847 64.7119L51.5171 66.7458C51.0496 66.8411 50.5153 66.9682 50.0144 66.9682C48.1444 66.9682 46.8087 66.2691 46.8087 64.3305C46.8087 63.536 46.9756 62.7733 47.176 61.9788L47.944 58.5466H45.9404L46.3745 56.6081Z" fill="white"/>
<path d="M45.4395 60.2309C45.4395 57.6568 43.7031 56.3856 41.0984 56.3856C37.5921 56.3856 35.0542 59.4047 35.0542 62.5508C35.0542 65.5699 37.1246 66.9682 40.1634 66.9682C41.2987 66.9682 42.4675 66.714 43.5361 66.3962L43.9034 64.2987C42.8682 64.7436 41.7662 65.0297 40.6309 65.0297C38.861 65.0297 37.8258 64.4258 37.6922 62.8369C37.6922 62.7415 37.6922 62.6462 37.6922 62.5508C37.6922 62.5191 37.6922 62.5191 37.6922 62.4873V62.4555C37.6922 61.7564 37.8592 61.089 38.1264 60.4534C38.6607 59.1504 39.3953 58.2606 41.0316 58.2606C42.2004 58.2606 42.8014 58.8644 42.8014 59.9449C42.8014 60.1674 42.7681 60.3898 42.7347 60.6441H38.9612C38.7274 61.4386 38.6607 61.9788 38.6607 62.4555H45.1724C45.3394 61.7246 45.4395 60.9936 45.4395 60.2309Z" fill="white"/>
<path d="M54.8231 57.7203C54.8899 57.339 54.9901 56.9258 55.0569 56.6081H57.6282L57.3944 57.9746H57.4278C58.1625 56.9258 59.398 56.3856 60.7004 56.3856C61.9693 56.3856 63.2717 57.0847 63.4052 58.3242H63.4386C64.1399 57.0212 65.676 56.3856 67.1787 56.3856C68.7816 56.3856 70.1173 57.625 70.1173 59.1504C70.1173 60.0403 69.8836 61.089 69.6498 61.9153L68.5478 66.7458H65.7762L66.8782 61.8199C67.0117 61.2161 67.2455 60.2627 67.2455 59.6589C67.2455 58.928 66.6444 58.4513 65.9432 58.4513C64.0063 58.4513 63.5388 60.5805 63.2049 61.947L62.1029 66.7458H59.3312L60.4332 61.8199C60.5668 61.2161 60.8006 60.2627 60.8006 59.6589C60.8006 58.928 60.1995 58.4513 59.4982 58.4513C57.6282 58.4513 57.0939 60.5805 56.7599 61.947L55.658 66.7458H52.8863L54.8231 57.7203Z" fill="white"/>
<path d="M88.7175 58.6737C88.417 58.5148 87.6489 58.2924 86.8809 58.2924C86.046 58.2924 85.0108 58.5148 85.0108 59.3093C85.0108 60.5805 88.6173 61.0572 88.6173 63.536C88.6173 66.1737 86.213 66.9682 83.842 66.9682C82.7401 66.9682 81.6047 66.8093 80.6029 66.3644L81.204 64.2669C81.972 64.6801 82.7735 65.0614 83.842 65.0614C84.7771 65.0614 85.7455 64.7754 85.7455 63.9492C85.7455 62.3284 82.139 62.1695 82.139 59.6271C82.139 57.2436 84.5433 56.4174 86.7473 56.4174C87.7491 56.4174 88.7843 56.6081 89.352 56.7352L88.7175 58.6737Z" fill="white"/>
<path d="M90.4874 56.6081H92.491L92.9585 54.5106L95.9305 53.589L95.2626 56.6081H97.7338L97.2996 58.5466H94.8285L93.8267 62.964C93.7599 63.1864 93.6931 63.5678 93.6931 63.9492C93.6931 64.553 94.1273 64.9343 94.7617 64.9343C95.2626 64.9343 95.7635 64.839 96.0975 64.7119L95.63 66.7458C95.1625 66.8411 94.6282 66.9682 94.1273 66.9682C92.2572 66.9682 90.9215 66.2691 90.9215 64.3305C90.9215 63.536 91.0884 62.7733 91.2554 61.9788L92.0569 58.5466H90.0533L90.4874 56.6081Z" fill="white"/>
<path d="M109.255 57.9746C109.321 57.5297 109.421 57.0847 109.488 56.6081H112.126L111.759 58.5148H111.792C112.293 57.4025 113.662 56.3856 114.931 56.3856C115.299 56.3856 115.666 56.4174 116 56.4809L115.432 59.0551C115.132 58.9597 114.731 58.8962 114.364 58.8962C112.394 58.8962 111.458 60.5805 111.091 62.2013L110.089 66.7458H107.318L109.255 57.9746Z" fill="white"/>
<path d="M107.351 60.2309C107.351 57.6568 105.615 56.3856 103.01 56.3856C99.537 56.3856 96.9657 59.4047 96.9657 62.5508C96.9657 65.5699 99.0361 66.9682 102.075 66.9682C103.21 66.9682 104.379 66.714 105.448 66.3962L105.815 64.2987C104.78 64.7436 103.678 65.0297 102.542 65.0297C100.773 65.0297 99.7374 64.4258 99.6038 62.8369C99.6038 62.7415 99.6038 62.6462 99.6038 62.5508C99.6038 62.5191 99.6038 62.5191 99.6038 62.4873V62.4555C99.6038 61.7564 99.7708 61.089 100.038 60.4534C100.572 59.1504 101.307 58.2606 102.943 58.2606C104.112 58.2606 104.713 58.8644 104.713 59.9449C104.713 60.1674 104.68 60.3898 104.646 60.6441H100.873C100.639 61.4386 100.572 61.9788 100.572 62.4555H107.084C107.251 61.7246 107.351 60.9936 107.351 60.2309Z" fill="white"/>
</g>
<defs>
<clipPath id="clip0_3642_4532">
<rect width="111" height="15" fill="white" transform="translate(5 52)"/>
</clipPath>
</defs>
</svg>
