<svg width="215" height="215" viewBox="0 0 215 215" fill="none" xmlns="http://www.w3.org/2000/svg">
<g clip-path="url(#clip0_794_7531)">
<rect width="215" height="215" rx="12" fill="#F8F8F8"/>
<path d="M60.287 220.646L57.2548 156.719C56.8444 148.022 59.5232 139.404 64.9606 133.203C67.1037 130.752 69.5203 128.598 72.1649 126.797L78.8335 122.248L86.8472 116.777L93.3903 112.297L112.769 112.046L121.809 111.932L127.941 116.115L137.175 122.431L143.581 126.808C143.649 126.853 143.718 126.899 143.786 126.956C153.601 133.761 159.004 146.403 158.024 159.341L153.316 221.604C152.871 227.497 148.483 232.023 143.239 232L70.5691 231.715C65.0746 231.692 60.5491 226.847 60.2642 220.658L60.287 220.646Z" fill="#4680E1"/>
<path d="M127.269 118.544L123.941 123.023C115.824 133.932 99.4778 133.91 91.3958 122.989L88.1014 118.544L93.4363 100.841L99.5348 80.6183H115.847L127.281 118.544H127.269Z" fill="#F4C9B8"/>
<path d="M123.758 106.859C122.846 107.521 121.866 108.113 120.84 108.604C118.252 109.869 115.323 110.564 112.256 110.564C108.802 110.564 105.542 109.675 102.715 108.102C101.815 107.6 102.339 106.198 103.353 106.426C104.744 106.734 106.192 106.905 107.685 106.905C113.282 106.905 118.355 104.568 121.946 100.806L123.769 106.859H123.758Z" fill="#CEA193"/>
<path d="M92.3989 76.4918C92.3989 79.0224 90.3584 83.1262 87.8392 83.1262H87.7936C85.2858 83.0806 83.2795 78.9996 83.2795 76.4918C83.2795 74.155 85.0464 72.2171 87.3376 71.9549C87.5086 71.9549 87.6796 71.9321 87.8392 71.9321C89.0931 71.9321 90.2102 72.4337 91.031 73.243C91.8859 74.0752 92.3989 75.2265 92.3989 76.5032H92.3875L92.3989 76.4918Z" fill="#FFBD6E"/>
<path d="M132.092 76.4916C132.092 78.9995 130.074 83.069 127.578 83.126H127.532C125.48 83.126 123.736 80.3902 123.166 78.0191C123.029 77.472 122.961 76.9704 122.961 76.503C122.961 73.9952 125.001 71.9434 127.521 71.9434C127.692 71.9434 127.84 71.9662 127.999 71.9662C127.999 71.9662 127.999 71.989 128.022 71.9662C130.291 72.2283 132.08 74.1776 132.08 76.503L132.092 76.4916Z" fill="#FFBD6E"/>
<path d="M128.066 70.3933C128.066 70.644 128.066 70.9176 128.044 71.1798V71.214L128.009 71.955L127.713 79.524L127.576 83.1376L127.371 88.0051C127.371 88.1191 127.348 88.2331 127.348 88.3584C127.063 93.2145 125.046 97.5804 121.922 100.852C121.5 101.274 121.09 101.673 120.657 102.049C120.486 102.197 120.326 102.334 120.155 102.471C119.608 102.927 119.038 103.337 118.457 103.725C118.24 103.873 118.001 104.01 117.784 104.158C116.109 105.149 114.308 105.902 112.381 106.369C112.096 106.438 111.811 106.506 111.526 106.552C111.207 106.62 110.911 106.666 110.591 106.723C110.272 106.768 109.942 106.814 109.622 106.837C109.508 106.859 109.372 106.871 109.258 106.871C108.745 106.916 108.209 106.939 107.673 106.939C107.308 106.939 106.932 106.916 106.567 106.905C106.282 106.882 105.997 106.871 105.713 106.837C105.393 106.802 105.097 106.768 104.778 106.723H104.732C104.459 106.688 104.219 106.643 103.946 106.574C103.74 106.552 103.547 106.506 103.341 106.46C99.4999 105.605 96.0574 103.622 93.4128 100.863C90.2096 97.5006 88.1691 93.0093 87.9639 88.0165L87.7929 84.0381V83.9469L87.7587 83.149L87.6105 79.524L87.337 72.8897L87.3028 71.9664L87.2686 71.2254C86.881 61.5475 93.2988 53.226 102.19 50.7752C102.863 50.5928 103.547 50.4218 104.242 50.3078C104.516 50.2622 104.789 50.2166 105.074 50.1938C105.108 50.171 105.165 50.171 105.211 50.171C105.428 50.1368 105.644 50.1255 105.883 50.1027C106.111 50.0685 106.351 50.0571 106.602 50.0571C106.955 50.0343 107.297 50.0229 107.65 50.0229C109.144 50.0229 110.591 50.171 111.993 50.4902C112.472 50.5928 112.962 50.7068 113.441 50.855C121.877 53.34 128.032 61.1599 128.032 70.4047H128.044L128.066 70.3933Z" fill="#F4C9B8"/>
<path d="M107.685 50C96.3086 50 87.0752 59.222 87.0752 70.5984V71.4761L87.2804 74.1208C87.326 74.7363 87.8389 75.2037 88.4431 75.2037C89.0017 75.2037 89.4804 74.8161 89.5944 74.2689L90.9053 67.7258C91.954 62.4821 95.5106 58.082 100.424 55.9618H100.435C105.052 53.9669 110.295 53.9669 114.912 55.9618C119.825 58.082 123.382 62.4821 124.43 67.7258L125.741 74.2689C125.855 74.8161 126.334 75.2037 126.893 75.2037C127.508 75.2037 128.01 74.7363 128.055 74.1208L128.261 71.4419V71.4077L128.283 71.4419V70.6098C128.283 59.2334 119.061 50.0114 107.685 50.0114" fill="black"/>
<path d="M128.283 130.342V116.936C122.048 120.345 114.889 122.283 107.286 122.283C99.6827 122.283 93.1282 120.493 87.0752 117.335V130.65C93.3448 133.078 100.161 134.411 107.286 134.411C114.411 134.411 121.797 132.964 128.283 130.33V130.342Z" fill="#C3DCF4"/>
<path d="M93.1504 119.946V132.61C92.2385 132.371 91.3379 132.12 90.4602 131.846V118.931C91.3493 119.296 92.2385 119.638 93.1504 119.946Z" fill="#9BC2DE"/>
<path d="M97.471 68.2275C97.1632 68.3187 96.8098 68.2617 96.5248 68.0451C96.0575 67.6917 95.9663 67.0191 96.3197 66.5518C96.3767 66.4606 97.9042 64.4885 100.788 63.8046C101.37 63.6678 101.939 64.0211 102.076 64.6025C102.213 65.1839 101.848 65.7538 101.278 65.8906C99.1695 66.3922 98.0295 67.8285 98.0181 67.8513C97.87 68.0451 97.6762 68.1591 97.4596 68.2275H97.471Z" fill="black"/>
<path d="M117.978 68.2275C118.286 68.3187 118.639 68.2617 118.924 68.0451C119.391 67.6917 119.483 67.0191 119.129 66.5518C119.072 66.4606 117.545 64.4885 114.661 63.8046C114.079 63.6678 113.509 64.0211 113.373 64.6025C113.236 65.1839 113.601 65.7538 114.17 65.8906C116.279 66.3922 117.419 67.8285 117.431 67.8513C117.579 68.0451 117.773 68.1591 117.989 68.2275H117.978Z" fill="black"/>
<path d="M59.9333 166.734L17.0266 126.004C6.80154 116.292 10.0731 99.2504 23.1708 94.0182L83.2675 70L83.6551 86.0273L51.4295 102.305C44.9322 105.182 46.4746 107.239 51.7601 110.251L82.9939 122.858L59.9219 166.745L59.9333 166.734Z" fill="#4680E1"/>
<path d="M156.073 167.118L197.919 125.317C207.905 115.343 204.2 98.3923 190.966 93.4907L130.276 71L130.299 87.0273L162.719 102.382C169.864 104.932 168.322 108.017 162.582 110.521L131.884 123.824L156.061 167.107L156.073 167.118Z" fill="#4680E1"/>
<path d="M77.9666 181.638L86.744 184.67C88.5679 185.297 90.4602 183.952 90.4602 182.026V111.066C90.4602 110.678 90.312 110.313 90.0384 110.04C89.4685 109.47 88.5451 109.481 87.9866 110.04L78.2858 119.832C76.8723 121.256 76.0858 123.183 76.0858 125.178V178.971C76.0858 180.168 76.8495 181.228 77.978 181.615L77.9666 181.638Z" fill="#C3DCF4"/>
<path d="M136.479 154.257H127.702C126.163 154.257 124.897 153.003 124.897 151.453V111.066C124.897 110.678 125.046 110.313 125.319 110.04C125.889 109.47 126.813 109.481 127.371 110.04L137.072 119.832C138.485 121.256 139.272 123.183 139.272 125.178V151.442C139.272 152.98 138.018 154.246 136.468 154.246L136.479 154.257Z" fill="#C3DCF4"/>
<path d="M76.9756 73.1026C76.9756 73.1026 80.1248 62.9032 91.4397 63.3533C99.6426 63.6749 94.5889 66.1829 94.5889 66.1829C94.5889 66.1829 82.577 70.5045 85.5644 77.2827C88.5518 84.0608 95.6967 87.0576 96.344 89.2956C96.9913 91.5335 86.4855 88.3567 84.1952 87.0962C81.9048 85.8358 75.8429 79.1734 76.9756 73.1154V73.1026Z" fill="#F4C9B8"/>
<path d="M137.32 74.4532C137.32 74.4532 135.351 63.8465 124.774 64.3872C117.102 64.7862 121.917 68.7251 121.917 68.7251C121.917 68.7251 133.017 71.4411 130.16 78.2376C127.303 85.034 120.616 88.0718 119.996 90.3116C119.376 92.5513 128.543 89.4492 130.707 88.1619C132.871 86.8747 138.342 80.4902 137.32 74.4532Z" fill="#F4C9B8"/>
<path d="M113 97C112.493 97 111.985 96.8686 111.543 96.6245C110.612 96.1081 110.029 95.1317 110.001 94.0708C109.982 93.2728 110.274 92.5124 110.828 91.9303C111.383 91.3482 112.126 91.0196 112.935 91.0009C113.724 90.9821 114.486 91.2731 115.069 91.827C115.652 92.3809 115.981 93.1226 116 93.9206C116 94.0708 116 94.2117 115.981 94.3525C115.812 95.8171 114.561 96.9531 113.076 96.9906C113.057 96.9906 113.029 96.9906 113.01 96.9906L113 97ZM113 92.1181H112.953C112.446 92.1275 111.975 92.334 111.628 92.7001C111.28 93.0663 111.092 93.5451 111.11 94.0427C111.129 94.7092 111.496 95.3289 112.079 95.6481C112.37 95.8077 112.7 95.8922 113.038 95.8828C113.978 95.864 114.759 95.1505 114.872 94.2211C114.881 94.1366 114.89 94.0521 114.89 93.9582C114.881 93.4606 114.674 92.9912 114.298 92.6438C113.941 92.3058 113.48 92.1181 113 92.1181Z" fill="black"/>
<path d="M112.009 74.8255L111.809 81.636C110.636 79.4769 109.17 78.1974 107.584 78.1974C106.092 78.1974 104.705 79.3303 103.573 81.2761L103.319 74.7322C104.452 72.7863 106.078 72.3865 107.584 72.3865C109.17 72.3865 110.836 72.653 111.996 74.8255H112.009Z" fill="#FB7059"/>
<path d="M126.735 85.4552C130.747 82.3232 131.453 76.5389 128.321 72.5406C125.189 68.5289 119.405 67.8225 115.407 70.9546C111.395 74.0866 110.689 79.8709 113.821 83.8692C116.953 87.8809 122.737 88.5872 126.735 85.4552Z" fill="black"/>
<path fill-rule="evenodd" clip-rule="evenodd" d="M114.173 69.3801C119.043 65.5655 126.086 66.4273 129.898 71.3098C133.71 76.1794 132.848 83.2204 127.966 87.0317C123.097 90.8436 116.057 89.9818 112.245 85.1014C108.432 80.2317 109.294 73.1898 114.176 69.3781L115.407 70.9546L114.173 69.3801ZM126.745 73.7714C124.293 70.6305 119.767 70.0796 116.64 72.529L116.637 72.531C113.497 74.9832 112.946 79.5089 115.395 82.6359L115.397 82.6384C117.849 85.7793 122.375 86.3302 125.502 83.8808L125.504 83.8788C128.645 81.4266 129.196 76.9009 126.747 73.7739L126.745 73.7714Z" fill="#FB7059"/>
<path d="M99.0802 86.0459C103.412 83.367 104.745 77.6894 102.079 73.3712C99.4001 69.0397 93.7225 67.7069 89.4043 70.3724C85.0728 73.0513 83.74 78.729 86.4055 83.0472C89.0844 87.3787 94.762 88.7115 99.0802 86.0459Z" fill="black"/>
<path fill-rule="evenodd" clip-rule="evenodd" d="M88.3537 68.6706C93.6108 65.4255 100.52 67.0483 103.78 72.3192L103.781 72.3207C107.026 77.5777 105.403 84.4871 100.132 87.7469L99.0802 86.0459L100.131 87.7478C94.8738 90.9929 87.9644 89.3701 84.7046 84.0992L84.7037 84.0977C81.4586 78.8407 83.0814 71.9313 88.3523 68.6715L88.3537 68.6706ZM98.0295 84.3442C94.6503 86.4299 90.2049 85.3874 88.1068 81.9957C86.0217 78.6167 87.0643 74.1718 90.4555 72.0739C93.8347 69.9885 98.2799 71.0312 100.378 74.4228C102.463 77.8015 101.42 82.246 98.0297 84.3441" fill="#FB7059"/>
<path d="M101.5 78.3442L95.27 85.2688C94.9027 85.3386 94.5207 85.3666 94.1387 85.3666C91.9348 85.3666 89.9513 84.4451 88.5996 82.9653L98 72C100.057 73.2286 101.485 75.873 101.5 78.3442Z" fill="white"/>
<path d="M128.3 78.3442L122.071 85.2688C121.703 85.3386 121.321 85.3666 120.939 85.3666C118.736 85.3666 116.752 84.4451 115.4 82.9653L124.801 72C126.858 73.2286 128.286 75.873 128.3 78.3442Z" fill="white"/>
</g>
<defs>
<clipPath id="clip0_794_7531">
<rect width="215" height="215" rx="12" fill="white"/>
</clipPath>
</defs>
</svg>
