<svg width="216" height="216" viewBox="0 0 216 216" fill="none" xmlns="http://www.w3.org/2000/svg">
<g clip-path="url(#clip0_16723_357925)">
<rect x="0.924805" y="0.898438" width="215" height="215" rx="12" fill="#F8F8F8"/>
<path fill-rule="evenodd" clip-rule="evenodd" d="M48.3257 0.471525C47.7005 0.91601 47.152 1.30602 46.8473 1.51422C27.6437 14.662 22.6334 40.9679 35.6622 60.2508L35.6624 60.2511C48.1638 78.7617 73.234 83.8017 92.2 72.4725L93.9949 75.4773C73.4944 87.7231 46.3417 82.3173 32.7619 62.21C18.6555 41.3319 24.079 12.8606 44.8705 -1.37409L44.872 -1.37508C45.1516 -1.56609 45.6489 -1.91977 46.2453 -2.34386C46.6212 -2.61114 47.0363 -2.90638 47.4611 -3.2065C48.5028 -3.94246 49.6584 -4.74823 50.2303 -5.07877L51.9817 -2.0485C51.5824 -1.81771 50.5846 -1.12786 49.4807 -0.347955C49.092 -0.0733038 48.6954 0.208639 48.3257 0.471525Z" fill="#3E5FFF"/>
<path d="M110.891 144.699C129.325 144.699 144.268 129.755 144.268 111.322C144.268 92.8885 129.325 77.9453 110.891 77.9453C92.4579 77.9453 77.5146 92.8885 77.5146 111.322C77.5146 129.755 92.4579 144.699 110.891 144.699Z" fill="black"/>
<path d="M145.502 221.382L110.257 215.569V215.473L109.969 215.518L109.68 215.473V215.569L74.4357 221.382L51.8695 360.859C49.3452 376.464 61.3952 390.614 77.1977 390.614H142.734C158.542 390.614 170.587 376.458 168.062 360.859L145.496 221.382H145.502Z" fill="#FF7059"/>
<path d="M153.986 221.719H82.399L72.9583 239.35C70.8981 240.527 68.6511 241.093 66.4267 241.093C62.1818 241.093 58.0273 239.033 55.4973 235.275L46.7244 222.257C39.9552 212.205 38.5516 199.47 42.9663 188.178L58.7971 147.704C61.7743 140.086 67.1851 133.656 74.1808 129.423L91.8908 118.691H128.035L145.745 129.423C152.741 133.656 158.152 140.086 161.129 147.704L176.96 188.178C177.005 188.292 177.045 188.399 177.09 188.512C183.186 204.558 171.152 221.719 153.992 221.719H153.986Z" fill="#FFBD6E"/>
<path d="M128.051 118.69C118.203 129.008 101.732 129.013 91.8838 118.69L97.8551 83.6602H122.091L128.057 118.69H128.051Z" fill="#824F36"/>
<path d="M126.069 107.032C125.271 107.948 123.07 109.052 122.113 109.511C119.719 110.677 117.019 111.322 114.183 111.322C110.991 111.322 107.986 110.501 105.371 109.052C104.539 108.588 105.026 107.298 105.96 107.507C107.244 107.796 108.586 107.948 109.955 107.948C115.128 107.948 121.496 103.149 124.813 99.668L126.064 107.026L126.069 107.032Z" fill="#663C2B"/>
<path d="M95.8457 79.8516C95.8457 82.1835 93.961 85.9756 91.6348 85.9756H91.5895C89.2745 85.9303 87.4238 82.1608 87.4238 79.8516C87.4238 77.6895 89.0595 75.9009 91.1763 75.6576C91.3291 75.6576 91.482 75.6406 91.6405 75.6406C92.7951 75.6406 93.8308 76.1047 94.5893 76.8462C95.376 77.6159 95.8571 78.68 95.8571 79.8573" fill="#824F36"/>
<path d="M132.511 79.8516C132.511 82.1665 130.643 85.9303 128.345 85.9756H128.3C126.404 85.9756 124.796 83.4456 124.27 81.2552C124.145 80.7458 124.083 80.2817 124.083 79.8516C124.083 77.5367 125.968 75.6406 128.294 75.6406C128.447 75.6406 128.588 75.6576 128.741 75.6576C128.741 75.6576 128.741 75.6745 128.758 75.6576C130.858 75.9009 132.511 77.6951 132.511 79.8516Z" fill="#824F36"/>
<path d="M128.792 74.2212C128.792 74.4533 128.792 74.7023 128.775 74.9457V74.9797L128.747 75.6588L128.47 82.6489L128.345 85.9825L128.158 90.4709C128.158 90.5784 128.141 90.6859 128.141 90.7935C127.881 95.2818 126.013 99.3117 123.127 102.334C122.742 102.719 122.357 103.093 121.955 103.444C121.802 103.585 121.649 103.704 121.491 103.828C120.981 104.247 120.455 104.632 119.917 104.983C119.719 105.124 119.499 105.243 119.3 105.385C117.755 106.296 116.091 106.992 114.314 107.422C114.054 107.485 113.788 107.547 113.527 107.592C113.233 107.654 112.956 107.7 112.661 107.745C112.367 107.79 112.061 107.824 111.767 107.853C111.66 107.87 111.535 107.881 111.427 107.881C110.946 107.926 110.454 107.943 109.962 107.943C109.622 107.943 109.282 107.926 108.943 107.915C108.682 107.898 108.416 107.887 108.156 107.853C107.862 107.824 107.584 107.79 107.29 107.745H107.245C106.996 107.717 106.764 107.666 106.52 107.604C106.334 107.587 106.152 107.541 105.966 107.496C102.417 106.709 99.2359 104.875 96.8022 102.328C93.8364 99.2268 91.9573 95.0781 91.7705 90.4652L91.6177 86.7919V86.7127L91.5894 85.9713L91.4479 82.6206L91.1989 76.4965L91.1706 75.6475L91.1422 74.9683C90.7856 66.0313 96.7117 58.3451 104.924 56.0811C105.541 55.9113 106.175 55.7585 106.82 55.651C107.069 55.6057 107.33 55.5718 107.59 55.5435C107.618 55.5265 107.669 55.5265 107.715 55.5265C107.913 55.4982 108.116 55.4812 108.332 55.4642C108.547 55.4359 108.762 55.4189 108.994 55.4189C109.316 55.4019 109.639 55.3906 109.967 55.3906C111.343 55.3906 112.684 55.5321 113.98 55.8208C114.427 55.9113 114.874 56.0189 115.322 56.1604C123.115 58.4583 128.792 65.6804 128.792 74.2156" fill="#824F36"/>
<path d="M109.955 55.3906C99.4449 55.3906 90.9268 63.9088 90.9268 74.4193V75.1495C90.9268 75.1495 90.9268 75.206 90.9268 75.2343L91.1192 77.6738C91.1645 78.2341 91.6342 78.6699 92.1946 78.6699C92.7266 78.6699 93.2021 78.336 93.3889 77.838C95.0642 73.31 98.5224 69.6706 102.948 67.7576H102.96C107.425 65.8275 112.48 65.8275 116.945 67.7576C121.372 69.6706 124.824 73.31 126.5 77.8323C126.686 78.336 127.162 78.6699 127.694 78.6699C128.26 78.6699 128.73 78.2341 128.769 77.6738L128.962 75.1947C128.962 75.1947 128.962 75.1721 128.962 75.1607L128.979 75.1947V74.425C128.979 63.9145 120.46 55.3963 109.95 55.3963L109.955 55.3906Z" fill="black"/>
<path d="M116.126 165.934H103.793C101.267 165.934 99.2197 167.981 99.2197 170.507V198.439C99.2197 200.964 101.267 203.012 103.793 203.012H116.126C118.652 203.012 120.699 200.964 120.699 198.439V170.507C120.699 167.981 118.652 165.934 116.126 165.934Z" fill="white"/>
<path d="M122.816 183.072H105.049C103.81 183.072 102.995 184.363 103.521 185.483L105.536 189.751C106.193 191.138 107.324 192.247 108.728 192.869L121.588 198.569C121.972 198.739 122.397 198.829 122.821 198.829C124.497 198.829 125.861 197.471 125.861 195.79V186.106C125.861 184.43 124.502 183.066 122.821 183.066" fill="#824F36"/>
<path d="M101.749 116.696L91.8838 118.688L102.236 141.39C105.258 148.012 114.665 148.018 117.687 141.39L128.051 118.682L115.503 115.484" fill="#824F36"/>
<path fill-rule="evenodd" clip-rule="evenodd" d="M191.432 120.895C190.123 93.3704 162.792 71.9265 126.761 71.9012L126.763 68.4012C163.918 68.4273 193.498 90.6761 194.928 120.729C195.644 135.783 188.138 150.191 175.671 161.006C163.197 171.829 145.66 179.154 126.001 180.089C124.163 180.176 122.34 180.207 120.532 180.192L120.561 176.692C122.31 176.706 124.068 176.677 125.834 176.593C144.742 175.694 161.521 168.649 173.378 158.362C185.243 148.069 192.085 134.629 191.432 120.895Z" fill="#3E5FFF"/>
<path d="M123.782 68.0691C124.701 67.7015 126.759 67.187 127.641 68.0691C128.523 68.9511 128.744 71.3767 128.744 72.4793L123.782 72.4793V68.0691Z" fill="black"/>
<path d="M199.924 108.898C199.924 113.869 195.894 117.898 190.924 117.898C185.953 117.898 181.924 113.869 181.924 108.898C181.924 103.928 185.953 99.8984 190.924 99.8984C195.894 99.8984 199.924 103.928 199.924 108.898Z" fill="white"/>
<path fill-rule="evenodd" clip-rule="evenodd" d="M190.924 114.398C193.961 114.398 196.424 111.936 196.424 108.898C196.424 105.861 193.961 103.398 190.924 103.398C187.886 103.398 185.424 105.861 185.424 108.898C185.424 111.936 187.886 114.398 190.924 114.398ZM190.924 117.898C195.894 117.898 199.924 113.869 199.924 108.898C199.924 103.928 195.894 99.8984 190.924 99.8984C185.953 99.8984 181.924 103.928 181.924 108.898C181.924 113.869 185.953 117.898 190.924 117.898Z" fill="#3E5FFF"/>
<path d="M35.9238 37.8984C35.9238 42.869 31.8944 46.8984 26.9238 46.8984C21.9533 46.8984 17.9238 42.869 17.9238 37.8984C17.9238 32.9279 21.9533 28.8984 26.9238 28.8984C31.8944 28.8984 35.9238 32.9279 35.9238 37.8984Z" fill="white"/>
<path fill-rule="evenodd" clip-rule="evenodd" d="M26.9238 43.3984C29.9614 43.3984 32.4238 40.936 32.4238 37.8984C32.4238 34.8609 29.9614 32.3984 26.9238 32.3984C23.8863 32.3984 21.4238 34.8609 21.4238 37.8984C21.4238 40.936 23.8863 43.3984 26.9238 43.3984ZM26.9238 46.8984C31.8944 46.8984 35.9238 42.869 35.9238 37.8984C35.9238 32.9279 31.8944 28.8984 26.9238 28.8984C21.9533 28.8984 17.9238 32.9279 17.9238 37.8984C17.9238 42.869 21.9533 46.8984 26.9238 46.8984Z" fill="#3E5FFF"/>
<path d="M103.698 89.583C103.698 91.1807 103.495 92.4747 102.882 92.4747C102.269 92.4747 102.066 91.1807 102.066 89.583C102.066 87.9853 102.269 86.6914 102.882 86.6914C103.495 86.6914 103.698 87.9853 103.698 89.583Z" fill="black"/>
<path d="M117.913 89.583C117.913 91.1807 117.71 92.4747 117.097 92.4747C116.484 92.4747 116.281 91.1807 116.281 89.583C116.281 87.9853 116.484 86.6914 117.097 86.6914C117.71 86.6914 117.913 87.9853 117.913 89.583Z" fill="black"/>
<path d="M104.761 83.2997C105.033 83.0887 105.206 82.7626 105.202 82.3981C105.194 81.7918 104.699 81.2931 104.085 81.2969C103.966 81.2977 101.377 81.3314 98.9978 83.3227C98.522 83.7179 98.4606 84.4124 98.8558 84.8958C99.251 85.3678 99.9531 85.4292 100.429 85.034C102.167 83.5721 104.077 83.5418 104.101 83.5414C104.346 83.5376 104.573 83.434 104.761 83.2997Z" fill="black"/>
<path d="M115.22 83.2997C114.947 83.0887 114.775 82.7626 114.779 82.3981C114.786 81.7918 115.281 81.2931 115.895 81.2969C116.015 81.2977 118.604 81.3314 120.983 83.3227C121.458 83.7179 121.52 84.4124 121.125 84.8958C120.73 85.3678 120.027 85.4292 119.552 85.034C117.813 83.5721 115.904 83.5418 115.88 83.5414C115.634 83.5376 115.408 83.434 115.22 83.2997Z" fill="black"/>
<path fill-rule="evenodd" clip-rule="evenodd" d="M106.957 100.719C106.612 100.589 106.226 100.762 106.094 101.107C105.962 101.453 106.135 101.841 106.481 101.974C106.564 102.005 106.649 102.03 106.733 102.054C106.883 102.095 107.1 102.148 107.387 102.199C107.962 102.302 108.819 102.402 109.99 102.402C111.162 102.402 112.019 102.302 112.594 102.199C112.881 102.148 113.098 102.095 113.247 102.054C113.332 102.03 113.416 102.003 113.499 101.974C113.846 101.841 114.019 101.453 113.886 101.107C113.755 100.762 113.369 100.589 113.024 100.719C113.024 100.719 113.023 100.719 113.023 100.719C113.014 100.722 112.97 100.738 112.888 100.76C112.779 100.791 112.603 100.834 112.357 100.878C111.863 100.967 111.086 101.059 109.99 101.059C108.895 101.059 108.117 100.967 107.624 100.878C107.378 100.834 107.202 100.791 107.093 100.76C107.011 100.738 106.967 100.722 106.958 100.719C106.957 100.719 106.957 100.719 106.957 100.719Z" fill="black"/>
</g>
<defs>
<clipPath id="clip0_16723_357925">
<rect x="0.924805" y="0.898438" width="215" height="215" rx="12" fill="white"/>
</clipPath>
</defs>
</svg>
