<svg width="215" height="215" viewBox="0 0 215 215" fill="none" xmlns="http://www.w3.org/2000/svg">
<g clip-path="url(#clip0_12049_319218)">
<rect width="215" height="215" rx="12" fill="#F8F8F8"/>
<path d="M190.857 217.626L195.128 166.099C196.377 151.016 194.337 135.847 189.139 121.636L184 109.002L158.951 116.278L152.644 126.279C139.342 147.372 129.148 170.274 122.386 194.273L118.271 208.875C116.821 214.029 120.324 219.256 125.64 219.874L180.349 226.228C185.653 226.845 190.411 222.95 190.852 217.626" fill="#95D1F9"/>
<path d="M96.1941 157.008L157.864 164.171L184.5 109.001L89.9566 128.536L96.1941 157.008Z" fill="#95D1F9"/>
<path d="M103.835 91.2292C104.915 81.934 115.567 67.4644 119.476 62.4188C120.123 61.5832 119.662 60.3646 118.627 60.1616C118.222 60.085 117.796 60.1834 117.47 60.4413L99.2274 74.8925C94.9876 78.2499 92.2535 83.1542 91.6299 88.5224L91.4815 89.8002L97.5642 91.0328L103.834 91.2351L103.835 91.2292Z" fill="#FFBD6E"/>
<path d="M103.836 91.2291L96.1951 157.007C80.9948 155.242 71.626 139.523 77.2978 125.315L91.4823 89.8001L103.835 91.235L103.836 91.2291Z" fill="#95D1F9"/>
<path d="M171.519 179.201L184 109.503L237.241 224.393L227.543 232.072L171.519 179.201Z" fill="#95D1F9"/>
<path d="M41.116 71.5058L31.1845 70.3522C29.0295 70.1018 26.904 71.0189 25.6091 72.7652L19.6412 80.7867C18.3471 82.5259 18.0795 84.8298 18.9404 86.8194L22.9099 96.0026C23.7709 97.9921 25.6287 99.379 27.7837 99.6293L37.7153 100.783C39.8703 101.033 41.9956 100.116 43.2905 98.3699L49.2595 90.3412C50.5535 88.6019 50.8211 86.298 49.9602 84.3085L45.9897 75.1325C45.1287 73.143 43.2711 71.7561 41.116 71.5058Z" fill="#FF7059"/>
<path d="M52.9736 12.9707L43.0421 11.817C40.8871 11.5667 38.7616 12.4837 37.4667 14.23L31.4986 22.2516C30.2045 23.9908 29.9369 26.2947 30.7978 28.2842L34.7675 37.4675C35.6285 39.457 37.4863 40.8439 39.6413 41.0942L49.5729 42.2478C51.7279 42.4981 53.8532 41.5811 55.1481 39.8348L61.1171 31.806C62.4111 30.0668 62.6787 27.7629 61.8178 25.7734L57.8473 16.5974C56.9863 14.6079 55.1287 13.221 52.9736 12.9707Z" fill="#FF7059"/>
<path d="M85.5389 33.3066L75.6073 32.153C73.4523 31.9026 71.327 32.8197 70.0321 34.566L64.064 42.5877C62.7699 44.3269 62.5023 46.6308 63.3633 48.6203L67.3329 57.8034C68.1939 59.7929 70.0516 61.1798 72.2066 61.4301L82.1381 62.5837C84.2932 62.8341 86.4186 61.9171 87.7135 60.1707L93.6825 52.1421C94.9765 50.4029 95.2442 48.099 94.3832 46.1095L90.4127 36.9333C89.5518 34.9438 87.6939 33.5569 85.5389 33.3066Z" fill="#FF7059"/>
<path d="M140.094 148.548C137.976 152.779 135.97 157.064 134.088 161.411L125.469 160.41L138.588 147.457C139.343 146.711 140.572 147.592 140.094 148.548Z" fill="#6AAED8"/>
<path d="M192.409 198.917L183.674 190.67C182.625 189.679 180.974 190.859 181.572 192.171L191.212 213.344L192.409 198.917Z" fill="#6AAED8"/>
<g clip-path="url(#clip1_12049_319218)">
<path d="M184.157 110.084L177.363 104.18L168.94 102.271L161.999 119.085C161.436 120.451 162.904 121.759 164.199 121.049L184.157 110.084Z" fill="#FFBD6E"/>
<path d="M184.156 110.084L195.885 83.06C200.24 73.0265 195.637 61.3568 185.6 57.0005C175.563 52.6442 163.897 57.2487 159.541 67.2856L155.006 77.732C150.364 88.4283 155.92 100.801 166.996 104.441" fill="#FFBD6E"/>
<path d="M158.79 69.0139L155.215 71.7603C154.577 72.255 154.303 73.086 154.536 73.8636L155.414 76.8011L157.679 73.3419L158.793 69.0154L158.786 69.0125L158.79 69.0139Z" fill="#FFBD6E"/>
<path d="M196.635 81.0449C199.606 71.5106 194.972 61.0671 185.601 56.9995C178.526 53.9288 170.641 55.3106 165.078 59.909C164.997 59.9761 164.918 60.0432 164.84 60.1102C169.863 63.1335 174.569 60.1145 174.836 59.9374C166.216 68.2348 179.163 79.153 182.068 80.7857C182.125 81.5539 182.168 82.3498 182.212 83.1609C182.532 89.0894 182.895 95.8321 189.154 98.5592L195.882 83.0576C196.166 82.4031 196.417 81.7308 196.635 81.0449Z" fill="#824F36"/>
<path d="M178.698 82.2757C179.632 80.1244 182.129 79.1387 184.281 80.0724C186.432 81.0061 187.418 83.5037 186.484 85.6549C185.55 87.8061 183.053 88.7918 180.901 87.8582C178.75 86.9245 177.764 84.4269 178.698 82.2757Z" fill="#FFBD6E"/>
<path d="M160.969 65.2288C160.732 65.0422 160.581 64.7473 160.586 64.4184C160.599 63.869 161.052 63.4356 161.601 63.4482C161.7 63.447 164.018 63.5145 166.106 65.323C166.523 65.6796 166.569 66.3126 166.209 66.7272C165.847 67.1396 165.226 67.1949 164.805 66.8309C163.279 65.5067 161.57 65.4396 161.555 65.4414C161.337 65.4361 161.134 65.3541 160.971 65.226" fill="#824F36"/>
<path d="M159.793 70.8521C159.064 72.4475 158.628 73.8093 159.093 74.0231C159.558 74.2369 160.302 73.0162 161.033 71.4222C161.761 69.8268 162.198 68.465 161.733 68.2512C161.267 68.0375 160.524 69.2581 159.793 70.8521Z" fill="black"/>
<path fill-rule="evenodd" clip-rule="evenodd" d="M157.021 87.2072C156.68 87.2804 156.343 87.0645 156.268 86.7233C156.192 86.3807 156.408 86.0416 156.751 85.9658C156.751 85.9658 156.932 85.9344 156.998 85.9262C157.144 85.9082 157.354 85.8891 157.63 85.8808C158.183 85.8643 158.999 85.8909 160.096 86.0541C161.193 86.2173 161.982 86.4294 162.506 86.6062C162.768 86.6945 162.963 86.7739 163.097 86.8337C163.166 86.8642 163.323 86.9436 163.323 86.9435C163.628 87.1157 163.736 87.5031 163.564 87.8088C163.393 88.1133 163.008 88.2218 162.702 88.0525C162.692 88.0467 162.502 87.9457 162.1 87.8101C161.65 87.6585 160.935 87.4634 159.909 87.3108C158.884 87.1582 158.142 87.1366 157.668 87.1508C157.253 87.1633 157.042 87.2031 157.022 87.207C157.022 87.2071 157.021 87.2072 157.021 87.2072Z" fill="black"/>
</g>
</g>
<defs>
<clipPath id="clip0_12049_319218">
<rect width="215" height="215" rx="12" fill="white"/>
</clipPath>
<clipPath id="clip1_12049_319218">
<rect width="67.0079" height="73.9398" fill="white" transform="translate(139.881 45) rotate(8.46204)"/>
</clipPath>
</defs>
</svg>
