<svg width="58" height="56" viewBox="0 0 58 56" fill="none" xmlns="http://www.w3.org/2000/svg">
<g id="logo 1" clip-path="url(#clip0_782_68510)">
<g id="type">
<g id="Group">
<path id="Vector" d="M16.1755 28C16.1755 29.8989 14.6362 31.4381 12.7373 31.4381C10.8384 31.4381 9.29913 29.8988 9.29913 28C9.29913 26.1011 10.8385 24.5619 12.7373 24.5619C14.6362 24.5619 16.1755 26.1012 16.1755 28ZM29.1967 24.5619C27.2978 24.5619 25.7584 26.1012 25.7584 28C25.7584 29.8989 27.2978 31.4381 29.1967 31.4381C31.0955 31.4381 32.6348 29.8988 32.6348 28C32.6348 26.1012 31.0955 24.5619 29.1967 24.5619ZM57.1967 28C57.1967 43.464 44.6606 56 29.1967 56C13.7327 56 1.19666 43.464 1.19666 28C1.19666 12.536 13.7327 0 29.1967 0C44.6606 0 57.1967 12.536 57.1967 28ZM20.4732 28C20.4732 23.7276 17.0097 20.2642 12.7374 20.2642C8.46497 20.2642 5.0016 23.7277 5.0016 28C5.0016 32.2724 8.46497 35.7358 12.7374 35.7358C14.9832 35.7358 16.1756 34.2782 16.1756 34.2782V35.6105H20.4733V28H20.4732ZM36.9326 28C36.9326 23.7276 33.4691 20.2642 29.1968 20.2642C27.1125 20.2642 25.7585 21.3951 25.7585 21.3951L25.7586 16.486H21.461V28C21.461 32.2724 24.9245 35.7358 29.1968 35.7358C33.4691 35.7359 36.9326 32.2724 36.9326 28ZM53.3273 28.9847H48.9493C48.5257 30.4033 47.2124 31.4381 45.656 31.4381C43.7571 31.4381 42.2179 29.8988 42.2179 28C42.2179 26.1011 43.7573 24.5619 45.656 24.5619C47.2124 24.5619 48.5257 25.5967 48.9493 27.0153H53.3273C52.8432 23.2083 49.5946 20.2642 45.656 20.2642C41.3836 20.2642 37.9202 23.7277 37.9202 28C37.9202 32.2724 41.3837 35.7358 45.656 35.7358C49.5945 35.7359 52.8432 32.7918 53.3273 28.9847Z" fill="#999999"/>
</g>
</g>
</g>
<defs>
<clipPath id="clip0_782_68510">
<rect width="56.9333" height="56" fill="white" transform="translate(0.768066)"/>
</clipPath>
</defs>
</svg>
