<svg xmlns="http://www.w3.org/2000/svg" width="120" height="120" fill="none" xmlns:v="https://vecta.io/nano"><path fill="#fff" d="M0 0h120v120H0z"/><g clip-path="url(#A)"><g fill="#f90"><path d="M73.467 69.562c-6.501 4.819-15.923 7.391-24.036 7.391-11.375 0-21.615-4.232-29.363-11.269-.609-.553-.063-1.308.667-.877 8.361 4.893 18.699 7.836 29.377 7.836 7.202 0 15.125-1.499 22.409-4.609 1.101-.47 2.021.725.945 1.528zm2.703-3.11c-.828-1.068-5.493-.504-7.587-.255-.638.078-.735-.48-.161-.882 3.715-2.63 9.812-1.871 10.523-.989s-.185 7.033-3.676 9.967c-.536.451-1.047.211-.808-.387.784-1.969 2.542-6.382 1.709-7.454z"/></g><g fill="#221f1f"><path d="M68.729 46.749v-2.557a.63.63 0 0 1 .643-.647h11.38c.365 0 .657.265.657.647v2.189c-.005.367-.312.847-.857 1.606l-5.897 8.468c2.191-.054 4.504.274 6.491 1.401.448.255.57.627.604.994v2.728c0 .372-.409.808-.838.583-3.501-1.846-8.151-2.047-12.023.02-.394.215-.808-.215-.808-.588v-2.591c0-.416.005-1.126.419-1.758l6.832-9.854h-5.946a.63.63 0 0 1-.657-.642zM27.217 62.7h-3.462c-.331-.024-.594-.274-.618-.593V44.236c0-.358.297-.642.667-.642h3.229c.336.015.604.274.628.598v2.336h.063c.842-2.258 2.425-3.311 4.558-3.311 2.167 0 3.521 1.053 4.494 3.311.838-2.258 2.742-3.311 4.782-3.311 1.451 0 3.038.602 4.008 1.954 1.096 1.504.872 3.688.872 5.603l-.005 11.279c0 .357-.297.646-.667.646h-3.457a.66.66 0 0 1-.623-.646v-9.472c0-.754.068-2.635-.097-3.35-.258-1.2-1.032-1.538-2.035-1.538-.838 0-1.714.563-2.069 1.464s-.321 2.41-.321 3.423v9.472c0 .357-.297.646-.667.646H33.04c-.351-.024-.623-.304-.623-.646l-.005-9.472c0-1.993.326-4.927-2.133-4.927-2.488 0-2.391 2.86-2.391 4.927v9.472c0 .357-.297.646-.667.646zm63.99-19.483c5.137 0 7.918 4.437 7.918 10.079 0 5.451-3.073 9.776-7.918 9.776-5.045 0-7.791-4.437-7.791-9.967 0-5.564 2.781-9.888 7.791-9.888zm.029 3.649c-2.552 0-2.712 3.497-2.712 5.676s-.034 6.847 2.683 6.847c2.683 0 2.81-3.761 2.81-6.053 0-1.508-.063-3.311-.516-4.741-.39-1.244-1.164-1.729-2.264-1.729zm14.55 15.834h-3.448a.66.66 0 0 1-.623-.646l-.005-17.876c.029-.328.317-.583.667-.583h3.209c.302.015.55.22.619.5v2.733h.063c.969-2.444 2.328-3.61 4.718-3.61 1.554 0 3.068.563 4.042 2.106.906 1.43.906 3.835.906 5.564v11.25c-.039.313-.326.563-.667.563h-3.472c-.317-.024-.58-.26-.614-.563V52.43c0-1.954.224-4.814-2.167-4.814-.842 0-1.616.568-2.001 1.43-.487 1.092-.55 2.179-.55 3.384v9.624c-.005.357-.307.646-.677.646zm-46.129-8.536v-.754c-2.503 0-5.147.539-5.147 3.507 0 1.504.774 2.522 2.104 2.522.974 0 1.846-.602 2.396-1.582.682-1.205.648-2.336.648-3.693zm3.491 8.488a.72.72 0 0 1-.818.083c-1.149-.96-1.354-1.406-1.987-2.322-1.899 1.949-3.243 2.532-5.707 2.532-2.912 0-5.181-1.807-5.181-5.427 0-2.826 1.524-4.751 3.691-5.691 1.88-.833 4.504-.98 6.511-1.21v-.45c0-.828.063-1.807-.419-2.522-.424-.642-1.232-.906-1.943-.906-1.32 0-2.498.681-2.785 2.091-.058.313-.287.622-.599.637l-3.36-.362c-.282-.064-.594-.294-.516-.73.774-4.094 4.451-5.329 7.743-5.329 1.685 0 3.886.45 5.215 1.734 1.685 1.582 1.524 3.693 1.524 5.99v5.427c0 1.631.672 2.346 1.305 3.227.224.314.273.691-.01.926l-2.654 2.312-.01-.01m-48.879-8.488v-.754c-2.503 0-5.147.539-5.147 3.507 0 1.504.774 2.522 2.104 2.522.974 0 1.845-.602 2.396-1.582.682-1.205.648-2.336.648-3.693zm3.491 8.488a.72.72 0 0 1-.818.083c-1.149-.96-1.354-1.406-1.987-2.322-1.899 1.949-3.243 2.532-5.707 2.532-2.912 0-5.181-1.807-5.181-5.427 0-2.826 1.524-4.751 3.691-5.691 1.88-.833 4.504-.98 6.51-1.21v-.45c0-.828.063-1.807-.419-2.522-.424-.642-1.232-.906-1.943-.906-1.32 0-2.498.681-2.785 2.091-.058.313-.287.622-.599.637l-3.36-.362c-.282-.064-.594-.294-.516-.73.774-4.094 4.451-5.329 7.742-5.329 1.685 0 3.886.45 5.215 1.734 1.685 1.582 1.524 3.693 1.524 5.99v5.427c0 1.631.672 2.346 1.305 3.227.224.314.273.691-.01.926l-2.654 2.312-.01-.01"/></g></g><defs><clipPath id="A"><path fill="#fff" transform="translate(4 43)" d="M0 0h112v34H0z"/></clipPath></defs></svg>