<svg width="179" height="36" viewBox="0 0 179 36" fill="none" xmlns="http://www.w3.org/2000/svg">
<g clip-path="url(#clip0_782_68472)">
<path d="M4.78125 4.64516H8.67719C12.236 4.64516 13.7719 5.76899 13.7719 8.05411C13.7719 10.0395 12.1985 11.3881 9.08927 11.3881H4.81872V4.64516H4.78125ZM0.0986328 27.0094H9.61372C14.596 27.0094 19.6158 25.2112 19.6158 19.4797C19.6158 16.0708 17.2183 13.486 13.9217 13.1113V13.0364C16.6564 12.2123 18.492 10.2268 18.492 7.26743C18.492 2.47242 14.4087 0.636841 10.4004 0.636841H0.0986328V27.0094ZM4.78125 15.3965H9.27657C13.0976 15.3965 14.8583 16.3704 14.8583 19.1425C14.8583 22.6264 11.4868 23.0385 9.08927 23.0385H4.78125V15.3965Z" fill="#999999"/>
<path d="M22.6501 0H27.108V27.0094H22.6501V0Z" fill="#999999"/>
<path d="M34.6002 18.0562C34.6002 15.2466 36.5856 12.6993 39.8447 12.6993C43.1413 12.6993 45.0893 15.2841 45.0893 18.0562C45.0893 20.8658 43.1038 23.4131 39.8447 23.4131C36.5856 23.4506 34.6002 20.8658 34.6002 18.0562ZM30.1423 18.0562C30.1423 23.6754 34.4503 27.4589 39.8822 27.4589C45.2766 27.4589 49.622 23.6754 49.622 18.0562C49.622 12.4371 45.314 8.6535 39.8822 8.6535C34.4503 8.69096 30.1423 12.4371 30.1423 18.0562Z" fill="#999999"/>
<path d="M56.1027 18.0562C56.1027 15.2466 58.0882 12.6993 61.3473 12.6993C64.6438 12.6993 66.5918 15.2841 66.5918 18.0562C66.5918 20.8658 64.6064 23.4131 61.3473 23.4131C58.0507 23.4506 56.1027 20.8658 56.1027 18.0562ZM51.6074 18.0562C51.6074 23.6754 55.9154 27.4589 61.3473 27.4589C66.7417 27.4589 71.0871 23.6754 71.0871 18.0562C71.0871 12.4371 66.7791 8.6535 61.3473 8.6535C55.9529 8.69096 51.6074 12.4371 51.6074 18.0562Z" fill="#999999"/>
<path d="M73.8219 9.1405H78.055V11.9501H78.1299C78.9166 10.2643 80.6398 8.69098 83.5992 8.69098C86.3713 8.69098 88.2444 9.77735 89.1809 12.025C90.492 9.73988 92.4025 8.69098 95.0623 8.69098C99.8198 8.69098 101.506 12.0999 101.506 16.3705V27.0469H97.0477V16.8949C97.0477 14.6473 96.3734 12.7368 93.7137 12.7368C90.9041 12.7368 89.8552 15.0593 89.8552 17.3445V27.0469H85.3973V16.3705C85.3973 14.1603 84.4983 12.6993 82.3255 12.6993C79.3661 12.6993 78.2423 14.872 78.2423 17.2321V27.0094H73.7844V9.1405H73.8219Z" fill="#999999"/>
<path d="M120.011 18.0562C120.011 20.8658 118.026 23.4131 114.767 23.4131C111.47 23.4131 109.522 20.8283 109.522 18.0562C109.522 15.2466 111.508 12.6993 114.767 12.6993C118.026 12.6993 120.011 15.2841 120.011 18.0562ZM105.177 27.0094H109.41V24.3122H109.485C110.796 26.4849 113.156 27.4589 115.628 27.4589C121.135 27.4589 124.469 23.3757 124.469 18.0562C124.469 12.7742 120.91 8.65349 115.816 8.65349C112.444 8.65349 110.683 10.2268 109.747 11.3881H109.635V0H105.177V27.0094Z" fill="#999999"/>
<path d="M130.987 16.2955C131.324 13.7107 132.973 12.0625 135.595 12.0625C138.405 12.0625 140.09 13.7107 140.128 16.2955H130.987ZM144.623 19.6296V18.3933C144.623 12.1748 141.214 8.6535 136.232 8.6535C130.837 8.6535 126.492 12.4371 126.492 18.0562C126.492 23.6754 130.8 27.4589 136.232 27.4589C139.079 27.4589 141.701 26.4475 143.799 23.8627L140.577 21.4277C139.453 22.8138 137.992 23.8627 135.782 23.8627C133.272 23.8627 131.287 22.2518 130.987 19.6296H144.623Z" fill="#999999"/>
<path d="M147.545 9.1405H152.003V11.9875H152.078C153.052 9.92719 155.037 8.69098 157.36 8.69098C157.922 8.69098 158.446 8.80336 158.971 8.9532V13.2612C158.221 13.0739 157.51 12.9241 156.798 12.9241C152.602 12.9241 152.003 16.4829 152.003 17.4194V27.0094H147.545V9.1405Z" fill="#999999"/>
<path d="M169.01 12.6993C172.269 12.6993 174.292 14.872 174.292 17.9438C174.292 20.9407 172.269 23.1884 168.973 23.1884C165.938 23.1884 163.728 20.8283 163.728 18.0188C163.728 14.872 165.863 12.6993 169.01 12.6993ZM174.292 9.1405V11.8377H174.217C172.906 9.66496 170.546 8.69098 168.074 8.69098C162.567 8.69098 159.233 12.8117 159.233 18.0937C159.233 23.1509 162.792 27.2716 168.149 27.2716C170.396 27.2716 172.681 26.41 173.993 24.6493H174.067V25.9605C174.067 29.5193 172.719 31.9542 168.411 31.9542C165.901 31.9542 164.065 31.0177 162.267 29.3694L159.57 33.0406C162.117 35.2883 165.114 36 168.448 36C175.416 36 178.563 31.9168 178.563 25.436V9.1405H174.292Z" fill="#999999"/>
</g>
<defs>
<clipPath id="clip0_782_68472">
<rect width="178.464" height="36" fill="white" transform="translate(0.0986328)"/>
</clipPath>
</defs>
</svg>
