<svg width="120" height="120" viewBox="0 0 120 120" fill="none" xmlns="http://www.w3.org/2000/svg">
<rect width="120" height="120" fill="white"/>
<path d="M106.012 62.6253L110.086 56.1812H114.476L110.2 62.8527L114.648 69.6938H110.258L106.012 63.08V69.6938H101.88V49.3969L106.012 49.0284V62.6253ZM96.2013 62.3137C96.2013 60.5253 95.4548 59.1053 93.5327 59.1053C91.6105 59.1053 90.864 60.5253 90.864 62.3137V63.5631C90.864 65.3506 91.6105 66.7705 93.5327 66.7705C95.4548 66.7705 96.2013 65.3506 96.2013 63.5622V62.3137ZM86.733 63.2789V62.5978C86.733 58.7084 88.9715 55.8979 93.5327 55.8979C98.0938 55.8979 100.332 58.7084 100.332 62.5978V63.2789C100.332 67.1674 98.0938 69.9779 93.5327 69.9779C88.9706 69.9779 86.733 67.1674 86.733 63.2789ZM81.2255 62.3137C81.2255 60.5253 80.4791 59.1053 78.5579 59.1053C76.6348 59.1053 75.8892 60.5253 75.8892 62.3137V63.5631C75.8892 65.3506 76.6348 66.7705 78.5579 66.7705C80.4791 66.7705 81.2255 65.3506 81.2255 63.5622V62.3137ZM71.7582 63.2789V62.5978C71.7582 58.7084 73.9958 55.8979 78.5569 55.8979C83.119 55.8979 85.3575 58.7084 85.3575 62.5978V63.2789C85.3575 67.1674 83.119 69.9779 78.5569 69.9779C73.9958 69.9779 71.7582 67.1674 71.7582 63.2789ZM66.2498 62.4273C66.2498 60.5253 65.5042 59.1062 63.5247 59.1062C61.832 59.1062 60.9135 60.2979 60.9135 62.2284V63.6474C60.9135 65.5779 61.832 66.7705 63.5247 66.7705C65.5042 66.7705 66.2498 65.3506 66.2498 63.4494V62.4273ZM70.3818 63.3642C70.3818 67.139 68.5456 69.9779 64.7578 69.9779C62.6922 69.9779 61.2585 68.9558 60.6841 67.6505V69.6947H56.7824V49.3978L60.9135 49.0275V58.0548C61.5156 56.8632 62.8356 55.897 64.7587 55.897C68.5456 55.897 70.3818 58.7359 70.3818 62.5117V63.3632V63.3642ZM46.3688 61.6894H51.361V61.3484C51.361 59.8726 50.7588 58.7084 48.9505 58.7084C47.0857 58.7084 46.3688 59.8726 46.3688 61.6894ZM42.2377 63.4494V62.2568C42.2377 58.4252 44.4466 55.8979 48.9505 55.8979C53.1962 55.8979 55.0619 58.4527 55.0619 62.2V64.3569H46.3688C46.4548 66.2031 47.2864 67.0263 49.5822 67.0263C51.1316 67.0263 52.767 66.7137 53.9714 66.2031L54.7178 69.0127C53.6273 69.581 51.3897 70.0063 49.4102 70.0063C44.1886 70.0063 42.2377 67.4232 42.2377 63.4494ZM37.7339 55.8979C39.3406 55.8979 40.8604 56.2389 41.6929 56.8063L40.7753 59.7021C40.1435 59.3904 39.1103 59.0769 38.0207 59.0769C35.7822 59.0769 34.8072 60.3547 34.8072 62.5401V63.3358C34.8072 65.5211 35.7831 66.7989 38.0207 66.7989C39.1112 66.7989 40.1435 66.4873 40.7753 66.1738L41.6929 69.0704C40.8604 69.6369 39.3406 69.9779 37.7339 69.9779C32.885 69.9779 30.6761 67.3948 30.6761 63.2496V62.6263C30.6761 58.4811 32.885 55.8979 37.7339 55.8979ZM19.775 63.421C19.775 65.4358 20.5206 66.7705 22.4427 66.7705C24.1355 66.7705 24.9957 65.5495 24.9957 63.619V62.2568C24.9957 60.3263 24.1355 59.1062 22.4427 59.1062C20.5206 59.1062 19.775 60.44 19.775 62.4558V63.421ZM15.6431 62.5126C15.6431 58.7368 17.4505 55.8979 21.2384 55.8979C23.3039 55.8979 24.5665 56.9484 25.1687 58.2538V56.1821H29.1277V69.6938H25.1687V67.6496C24.5952 68.9558 23.3039 69.9779 21.2375 69.9779C17.4505 69.9779 15.6431 67.139 15.6431 63.3642V62.5117V62.5126ZM13.5785 52.2927C12.2872 52.2927 11.9135 52.861 11.9135 54.1095V56.1812H15.3572L15.0131 59.5316H11.9144V69.6938H7.78333V59.5325H5V56.1821H7.78333V54.1663C7.78333 50.7884 9.15973 49 13.005 49C13.8375 49 14.8124 49.0568 15.4146 49.1421V52.2927H13.5785Z" fill="#1877F2"/>
</svg>
