<svg width="112" height="68" viewBox="0 0 112 68" fill="none" xmlns="http://www.w3.org/2000/svg">
<g id="inc_logo 1" clip-path="url(#clip0_862_1383)">
<g id="Layer_1-2">
<path id="Vector" d="M13.0572 30.2168V23.7381H16.9753V7.47096H13.0572V0.5H33.9553V7.47096H30.0372V23.7334H33.9553V30.2168H13.0572Z" fill="black"/>
<path id="Vector_2" d="M53.1195 30.2168V23.7381H56.1516V16.9547C56.1516 14.9107 54.6782 13.9966 52.7831 13.9966C50.3811 13.9966 48.5713 15.7452 48.5713 18.122V23.7381H51.6887V30.2168H35.3435V23.7381H38.2951V13.9685H35.3435V7.48035H48.2349V11.9526C48.4433 11.7839 48.6565 11.5354 48.8271 11.3291C51.1865 8.66171 53.8823 7.70068 57.4213 7.70068C62.3912 7.70068 66.4372 9.70243 66.4372 15.1639V23.7334H69.0904V30.2122H53.1242L53.1195 30.2168Z" fill="black"/>
<path id="Vector_3" d="M95.0863 17.0718L86.2646 18.0329C86.1604 15.6092 85.6535 13.0496 82.6687 13.0496C78.8785 13.0496 78.58 16.1764 78.58 19.1767V19.2424C78.58 22.2426 78.8738 25.3695 82.6687 25.3695C84.6585 25.3695 86.4162 24.2397 86.4162 21.8535H86.7052L95.2047 21.8582L95.1337 22.6083C93.6839 29.6777 87.2359 30.7841 82.5881 30.7841C75.3015 30.7841 68.1381 27.24 68.1381 19.1955V19.2189C68.1381 11.1744 75.3015 7.63033 82.5881 7.63033C82.5881 7.63033 94.0156 6.89901 95.091 17.0718H95.0863Z" fill="black"/>
<path id="Vector_4" d="M101.923 26.6399C101.923 28.6745 100.255 30.3199 98.199 30.3199C96.1428 30.3199 94.4751 28.6698 94.4751 26.6399C94.4751 24.61 96.1428 22.9552 98.199 22.9552C100.255 22.9552 101.923 24.6054 101.923 26.6399Z" fill="black"/>
<path id="Vector_5" d="M40.6971 33.1609C31.9749 33.1609 26.9008 38.9271 26.9008 50.3047C26.9008 61.6823 31.9749 67.5 40.6971 67.5C49.4193 67.5 54.5502 61.5839 54.5502 50.3047C54.5502 39.0255 49.315 33.1609 40.6971 33.1609ZM40.7255 60.5947C37.5465 60.5947 36.869 57.5616 36.869 50.3328C36.869 43.104 37.5465 40.0709 40.7255 40.0709C43.9045 40.0709 44.582 43.104 44.582 50.3328C44.582 57.5616 43.9045 60.5947 40.7255 60.5947Z" fill="black"/>
<path id="Vector_6" d="M69.422 33.1609C60.6998 33.1609 55.6257 38.9271 55.6257 50.3047C55.6257 61.6823 60.6998 67.5 69.422 67.5C78.1442 67.5 83.2751 61.5839 83.2751 50.3047C83.2751 39.0255 78.0399 33.1609 69.422 33.1609ZM69.4504 60.5947C66.2714 60.5947 65.5939 57.5616 65.5939 50.3328C65.5939 43.104 66.2714 40.0709 69.4504 40.0709C72.6295 40.0709 73.3069 43.104 73.3069 50.3328C73.3069 57.5616 72.6295 60.5947 69.4504 60.5947Z" fill="black"/>
<path id="Vector_7" d="M98.1469 33.1609C89.4247 33.1609 84.3506 38.9271 84.3506 50.3047C84.3506 61.6823 89.4247 67.5 98.1469 67.5C106.869 67.5 112 61.5839 112 50.3047C112 39.0255 106.765 33.1609 98.1469 33.1609ZM98.1753 60.5947C94.9963 60.5947 94.3188 57.5616 94.3188 50.3328C94.3188 43.104 94.9963 40.0709 98.1753 40.0709C101.354 40.0709 102.032 43.104 102.032 50.3328C102.032 57.5616 101.354 60.5947 98.1753 60.5947Z" fill="black"/>
<path id="Vector_8" d="M22.9212 46.8778C21.1729 45.2604 18.5956 44.276 14.9854 44.276C11.3753 44.276 9.43756 45.837 8.56108 46.6012L9.28122 41.2991H23.5086V33.4421H2.86159L0.672758 49.0295L6.70389 52.1236C7.74146 51.2797 9.69814 49.8077 12.1807 49.8077C13.2799 49.8077 14.2843 50.1687 15.0613 50.9047C15.9851 51.786 16.5773 53.2112 16.5773 55.2364C16.5773 55.9396 16.511 56.5537 16.3878 57.0928C15.8714 59.3289 14.3601 60.2196 12.4223 60.2196C8.52792 60.2196 8.85482 55.4192 9.7313 53.7222L9.67919 53.6706L0 58.6445C0.705922 64.7294 6.92183 67.5 12.2044 67.5C15.6061 67.5 18.9699 66.5577 21.803 64.1809C22.8122 63.3371 23.6508 62.3011 24.3046 61.1666C25.3895 59.2821 25.9722 57.1162 25.9722 55.077C25.9722 51.8235 25.0816 48.8701 22.9212 46.8731V46.8778Z" fill="black"/>
</g>
</g>
<defs>
<clipPath id="clip0_862_1383">
<rect width="112" height="67" fill="white" transform="translate(0 0.5)"/>
</clipPath>
</defs>
</svg>
