<svg width="241" height="36" viewBox="0 0 241 36" fill="none" xmlns="http://www.w3.org/2000/svg">
<g id="new-york-post-logo-vector 1" clip-path="url(#clip0_782_68483)">
<g id="nypost-logo">
<path id="Vector" d="M162.017 0.830089H152.66L148.868 3.67407L149.519 0.770503H140.256L138.76 2.10001C138.384 1.88153 137.612 1.43153 137.215 1.16712C136.625 0.839399 135.314 0.830089 135.165 0.830089H120.78L118.811 2.36132C118.311 1.90574 117.044 0.881606 115.464 0.546435C112.609 -0.12825 111.866 -0.00721633 110.942 0.0387144C110.661 0.0529902 110.373 0.067266 110.04 0.067266C108.01 0.067266 105.817 0.759951 104.818 1.11809L104.857 0.769261L95.4743 0.83133L91.5248 3.99062L91.4193 0.83133H82.2742L80.2073 2.35946L80.7857 0.830709H72.5896L69.2689 3.21725L69.1659 0.830709H60.9629L58.3728 2.76104L58.168 0.771744H36.0424L35.8189 0.889674L35.8798 0.767399L27.5005 0.83133L24.8688 2.74304L24.5057 0.771744H15.6932L8.46221 6.55653L0.562744 35.5841H8.3598L12.4402 32.5769L12.8697 35.5841H20.4669L21.5674 34.6562L21.8889 34.686L22.4289 35.5841H37.4774L40.8092 33.1467L40.412 35.5841H47.9825L52.5979 32.3535L51.8283 35.5841H59.5527L67.2877 29.7683L76.5421 10.8107L77.9802 23.1102L74.4672 35.5841H82.9768L88.5381 31.3151C89.0762 32.374 90.7372 35.1261 93.6538 35.5779C94.6072 35.7567 96.1639 35.8157 96.2297 35.8181H96.2421C97.4232 35.8181 98.1494 35.8076 99.361 35.5773C100.785 35.3067 101.564 34.9752 102.857 34.4228L102.956 34.3812C104.256 33.8257 105.901 32.8196 106.825 32.23L106.143 35.5835H114.198L117.278 33.4657L116.749 35.5835H133.692L137.385 32.922L138.254 35.5835H147.615L154.984 29.6746L151.628 13.9508L162.015 0.829468L162.017 0.830089Z" fill="#999999"/>
<path id="Vector_2" d="M223.349 0.771752L221.746 1.87657C221.345 1.6314 220.424 1.08458 219.716 0.797821C217.829 0.0343775 216.579 -0.0196221 214.589 0.0095501C212.175 0.0467912 210.508 0.29941 208.089 1.57554C207.019 2.14036 205.72 3.22036 205.12 3.74173C204.718 3.05898 203.812 1.69037 202.766 1.21554C200.36 0.104515 198.823 0.106377 196.326 0.185204C194.028 0.258445 192.695 0.538995 190.626 1.38499C189.187 1.97464 187.378 3.24084 186.646 3.77277C186.361 3.27249 185.826 2.37188 185.405 1.91071C184.812 1.11934 183.25 0.810855 183.074 0.77858L168.505 0.772373L161.742 6.14503L153.546 35.5841H161.879L169.34 29.8676L170.349 26.7828C170.808 26.7909 171.807 26.7952 172.54 26.7177C173.074 26.6599 173.767 26.5203 174.234 26.4179C174.061 27.537 173.776 30.1445 174.596 31.752C176.129 34.7586 178.855 35.3706 181.57 35.5835C182.196 35.6375 182.751 35.6642 183.268 35.6642C185.119 35.6642 186.502 35.3197 188.404 34.686C190.331 34.0436 192.798 32.4453 193.62 31.8929C194.077 32.464 195.21 33.7984 196.276 34.421C197.792 35.3086 198.902 35.4166 200.586 35.5817C201.189 35.6419 201.727 35.6704 202.233 35.6704C203.988 35.6704 205.417 35.3371 207.509 34.4415C209.518 33.593 212.506 31.6794 213.905 30.7546L212.731 35.3501H220.641L227.99 29.7472L233.042 12.067L239.09 6.89916L240.766 0.772993H223.35L223.349 0.771752Z" fill="#999999"/>
<path id="Vector_3" d="M34.5236 1.76918H28.7624L25.0289 14.1022L23.6709 1.76918H16.3158L9.12821 28.5083L9.08911 28.6573H14.7311L18.935 14.2263L20.5259 28.6573H26.8258L34.4807 1.91815M73.5107 1.76918L67.1872 14.5305L68.4174 1.89953L68.4298 1.77104H62.1205L56.1557 14.2654L57.3803 1.89953L57.3927 1.76918H36.6277L29.3241 28.5083L29.2837 28.6573H43.4925L45.218 23.7253H37.3415L39.1539 17.3856H46.3135L47.7938 12.4537H40.5163L42.3206 6.81784H49.9755L48.458 28.5313L48.4493 28.6567H54.8727L61.6556 14.1848L60.1858 28.6573H66.3778L79.3253 1.93863L79.406 1.7698M115.905 15.5298L115.964 15.5391L117.886 8.81458H117.854C117.879 8.69231 117.934 8.47755 117.988 8.26838C118.253 7.23432 118.747 5.31081 118.491 4.32889C117.908 1.61029 116.009 1.10132 115.228 1.00822C113.44 0.673051 112.96 0.669327 111.679 0.656913L111.274 0.653189C110.378 0.6445 109.803 0.636431 108.848 0.774223C107.418 0.980291 106.616 1.16525 105.35 1.78284C104.51 2.19249 104.058 2.48421 103.33 3.08938C101.999 4.19793 100.659 6.54474 100.592 6.67074L95.8932 23.9382C95.8746 24.0288 95.4401 26.1987 96.1446 27.3116C96.5294 27.9199 96.9348 28.1682 97.4952 28.5096L97.7088 28.6399C98.903 29.381 99.785 29.5051 101.121 29.6913L101.277 29.7137C101.915 29.8037 102.455 29.8453 102.975 29.8453C103.755 29.8453 104.489 29.7497 105.422 29.5958C106.708 29.3829 107.496 29.2345 108.741 28.6474C109.715 28.188 110.248 27.8405 111.114 27.1043C112.107 26.2602 113.398 24.5384 113.498 24.2281H113.5C114.156 21.8856 115.877 15.7601 115.958 15.5571L115.906 15.5323L115.905 15.5298ZM138.625 4.20599C138.482 3.65358 138.32 3.34324 137.955 2.92552C137.577 2.49104 137.272 2.32035 136.805 2.07642C136.538 1.93677 136.103 1.78284 136.085 1.77663L121.515 1.77042L114.21 28.5083L114.17 28.6573H120.752L123.922 17.8549L126.63 17.853C126.852 17.8946 127.461 18.0702 127.602 18.3744C127.698 18.5811 127.63 18.9808 127.595 19.1167L125.129 28.5089L125.09 28.656H132.023L134.864 18.5947C134.883 18.537 135.302 17.1883 134.852 16.4981C134.63 16.1592 134.406 16.0189 134.098 15.8246L133.993 15.7588C133.758 15.6099 133.422 15.4683 133.187 15.3777C133.537 15.2194 134.155 14.929 134.579 14.667L134.759 14.5572C135.186 14.2965 135.494 14.109 135.891 13.7112C136.148 13.4555 136.475 13.0123 136.49 12.9937L138.625 5.78005C138.633 5.74033 138.779 4.79937 138.625 4.20599ZM181.93 17.8077C182.265 17.3645 182.412 17.0033 182.584 16.5849C182.653 16.413 182.727 16.2299 182.823 16.0263C184.391 12.6312 185.521 6.78122 185.529 6.73591C185.543 6.68874 185.889 5.57523 185.647 4.85275C185.603 4.67275 185.59 4.50516 185.58 4.34254C185.561 4.09427 185.543 3.83607 185.406 3.54062C185.183 3.054 184.936 2.82869 184.554 2.50221C184.265 2.2558 184.035 2.14656 183.767 2.01994C183.629 1.95539 183.479 1.88339 183.303 1.78532L183.275 1.77042H169.359L161.88 28.5096L161.839 28.6585H168.303L170.768 20.5604C171.2 20.5791 173.077 20.661 174.674 20.661C175.742 20.661 176.481 20.625 176.867 20.5542C177.891 20.3742 178.554 20.1489 179.507 19.6505C180.532 19.1167 181.21 18.7629 181.931 17.8096M204.082 4.73606C204.049 4.59765 204.02 4.45985 203.992 4.32454C203.854 3.66414 203.725 3.03973 203.14 2.72069C202.43 2.24711 201.868 1.87284 200.955 1.54139C199.764 1.11001 198.974 1.07153 197.779 1.01381L197.633 1.0076C197.208 0.985877 196.865 0.976566 196.553 0.976566C195.703 0.976566 194.976 1.05105 193.966 1.24346C192.905 1.4458 192.299 1.59725 191.301 2.01311C190.107 2.51214 189.395 2.88704 188.335 3.79448C187.582 4.43689 186.655 5.63916 186.616 5.69005L181.367 23.8327C181.357 23.927 181.154 26.1739 181.914 27.3129C182.373 28.0031 182.812 28.2793 183.476 28.697C184.572 29.3878 185.421 29.4977 186.593 29.6529C186.738 29.6715 186.889 29.6901 187.045 29.7125C187.796 29.8155 188.382 29.8614 188.946 29.8614C189.606 29.8614 190.255 29.8006 191.188 29.6529C192.55 29.4369 193.322 29.2742 194.508 28.7032C195.515 28.2203 196.073 27.8448 196.884 27.1C197.843 26.2199 198.936 24.5366 199.028 24.2293H199.029C199.717 21.9359 201.517 15.9388 201.605 15.734L201.549 15.7061L201.613 15.7147L203.652 8.521H203.62C203.64 8.43286 203.676 8.2988 203.711 8.16721C203.932 7.34977 204.341 5.82722 204.081 4.7373" fill="white"/>
<path id="Vector_4" d="M196.853 6.64775C196.706 6.35355 196.087 6.19589 195.593 6.11582C195.434 6.08976 195.279 6.07672 195.128 6.07672C194.495 6.07672 193.995 6.30141 193.407 6.59561C192.906 6.84637 192.434 7.9003 192.407 7.95926L188.297 22.0563C188.282 22.1245 187.935 23.7383 188.899 24.1877C189.34 24.3534 189.827 24.5055 190.384 24.5055C190.493 24.5055 190.602 24.4993 190.713 24.4881C191.234 24.4285 191.661 24.2076 192.004 24.0301L192.165 23.9469C192.678 23.6707 192.869 23.1152 192.983 22.7825C193.004 22.7235 193.027 22.6546 193.045 22.6099H193.05C193.173 22.6099 193.215 22.6099 196.569 10.37L197.089 8.27953C197.102 8.2485 197.463 7.50119 196.853 6.64713" fill="#999999"/>
<path id="Vector_5" d="M90.9377 11.0267L90.3667 1.77046H83.6633L85.7922 17.6122L82.8235 28.6573H89.2873L92.3597 18.0231L103.392 1.77046H96.7659M145.803 10.2453L148.177 1.76984H141.359L133.468 28.5071L133.424 28.6573H140.537L144.002 17.2367L146.086 28.5611L146.103 28.6567H153.567L150.497 13.7745L159.857 1.95914L160.006 1.76921H153.489M224.014 1.76921L222.718 6.58387H226.883L220.703 28.5077L220.661 28.6567H227.07L233.292 6.81787H237.753L239.187 1.91942L239.231 1.76921M217.451 15.6763C216.997 14.9917 216.586 14.5851 216.113 14.1147C215.906 13.9098 215.685 13.6907 215.443 13.4307C215.077 13.0365 214.76 12.7311 214.458 12.4376C214.056 12.0465 213.677 11.6791 213.217 11.1447C213.048 10.9485 212.889 10.789 212.737 10.6338C212.399 10.2925 212.108 9.99764 211.882 9.46572C211.609 8.8202 211.429 8.39503 211.541 7.71787C211.609 7.30511 211.661 7.05808 211.921 6.78063C212.12 6.5696 212.31 6.51994 212.595 6.44422L212.747 6.40325C213.128 6.2965 213.337 6.24436 213.699 6.28905C214.121 6.34181 214.369 6.46718 214.688 6.78373C214.945 7.04008 215.051 7.22566 215.127 7.54842C215.19 7.82462 215.158 8.022 215.115 8.2709C215.097 8.37952 215.077 8.49434 215.065 8.62593L215.061 8.66317C215.019 9.09393 214.994 9.35399 214.893 9.78475C214.796 10.1944 214.547 10.8188 214.545 10.825L214.481 10.9864H220.965L220.989 10.9007C220.993 10.8858 221.416 9.39061 221.636 8.43041C221.699 8.15607 221.765 7.91959 221.829 7.69676C221.976 7.17414 222.103 6.72229 222.11 6.05629V5.9756C222.12 4.97133 222.126 4.24637 221.562 3.3501C221.165 2.7201 220.799 2.42031 220.177 2.02307C219.552 1.62335 219.106 1.50791 218.432 1.33101L218.324 1.30308C217.587 1.11067 217.123 1.07591 216.421 1.02377L215.928 0.98653C215.43 0.946806 215.037 0.915771 214.62 0.915771C214.226 0.915771 213.84 0.944944 213.405 1.00701C213.017 1.06287 212.737 1.13736 212.441 1.2168C212.267 1.26398 212.087 1.31239 211.87 1.36142C211.607 1.42039 211.384 1.45639 211.166 1.49053C210.79 1.55135 210.434 1.60846 209.975 1.7779C209.244 2.04852 208.833 2.33528 208.262 2.73376L208.012 2.90631C207.375 3.347 207.014 3.61389 206.47 4.15389L206.324 4.29665C205.903 4.71251 205.599 5.01044 205.276 5.58767C204.997 6.08919 204.896 6.44174 204.756 6.92835L204.679 7.19711C204.499 7.81593 204.407 8.13931 204.323 8.74014L204.29 8.97413C204.201 9.58861 204.138 10.0343 204.267 10.7152C204.36 11.2161 204.5 11.5096 204.692 11.9168L204.802 12.1514C205.192 12.9912 205.601 13.4983 206.077 14.0849C206.271 14.3269 206.474 14.5771 206.694 14.8731C207.248 15.618 207.563 16.0388 208.165 16.7575C208.447 17.0927 208.686 17.3472 208.916 17.593C209.165 17.8586 209.402 18.11 209.692 18.4595C209.795 18.5836 209.888 18.691 209.977 18.7915C210.194 19.0373 210.366 19.2322 210.561 19.5599L210.61 19.6437C210.879 20.0906 211.04 20.3606 211.134 20.8727C211.236 21.4288 211.223 21.7603 211.078 22.2878C210.958 22.7223 210.876 22.983 210.577 23.2934C210.22 23.667 209.911 23.8209 209.353 23.9047C209.173 23.9314 209.026 23.9432 208.89 23.9432C208.563 23.9432 208.284 23.8656 207.959 23.6825C207.593 23.4777 207.413 23.3399 207.242 23.0246C207.077 22.7192 207.078 22.4883 207.08 22.1389V22.0234C207.08 21.7143 207.139 21.5095 207.213 21.2507C207.246 21.1365 207.28 21.0148 207.313 20.8752C207.411 20.4456 207.603 19.7734 207.604 19.766L207.646 19.617H200.955L200.924 19.689C200.915 19.712 200.687 20.2638 200.571 20.6368C200.43 21.0756 200.372 21.3754 200.298 21.7565C200.273 21.8856 200.246 22.0222 200.214 22.1755C200.159 22.4424 200.096 22.6745 200.039 22.8924C199.905 23.4026 199.788 23.8433 199.802 24.4913C199.817 25.2547 199.884 25.7531 200.222 26.5315C200.479 27.1224 200.689 27.4898 201.188 27.9777C201.61 28.3898 201.951 28.5549 202.426 28.7827L202.626 28.8795C203.606 29.3575 204.242 29.4878 205.361 29.6535C205.895 29.7323 206.357 29.769 206.82 29.769C207.352 29.769 207.854 29.723 208.561 29.6535C209.946 29.517 210.738 29.4034 211.993 28.9422C212.928 28.599 213.458 28.3339 214.364 27.7567C215.185 27.2335 215.684 26.902 216.383 26.1529C217.083 25.4031 217.43 24.8885 217.871 23.9507C218.355 22.9203 218.5 22.2916 218.644 21.2755C218.834 19.933 218.916 19.1745 218.582 17.9406C218.324 16.9922 217.999 16.5031 217.451 15.6763Z" fill="white"/>
<path id="Vector_6" d="M111.184 6.62294C110.839 6.23191 110.457 6.16364 109.993 6.11398C109.566 6.06743 109.317 6.13074 108.897 6.23439C108.512 6.32936 108.299 6.40198 107.98 6.6006C107.709 6.77191 107.383 7.13439 107.369 7.15053L102.999 22.1059C102.989 22.1382 102.76 22.8992 102.944 23.3585C103.104 23.7595 103.353 23.9481 103.705 24.1238C103.925 24.2343 104.132 24.2808 104.393 24.2808C104.498 24.2808 104.605 24.2746 104.72 24.2666C104.788 24.2616 104.861 24.2566 104.965 24.2523C105.518 24.2275 105.915 24.2088 106.405 23.8817C106.759 23.6459 106.939 23.451 107.147 23.0786C107.206 22.9718 107.227 22.8179 107.245 22.6813C107.251 22.6441 107.257 22.5919 107.265 22.551H107.28C107.402 22.551 107.444 22.551 110.798 10.3092L111.32 8.215C111.331 8.19018 111.587 7.60177 111.503 7.20453C111.448 6.93763 111.336 6.79487 111.184 6.62232M131.172 7.68121C131.161 7.61294 131.156 7.54652 131.151 7.48259C131.131 7.2548 131.112 7.0388 130.9 6.84825C130.716 6.68253 130.558 6.62977 130.313 6.58508C130.14 6.55281 129.765 6.58136 129.763 6.5826H127.153L125.19 12.8888L125.144 13.0402H128.673L128.695 13.0315C128.718 13.0216 129.263 12.7969 129.549 12.5412C129.889 12.237 130.01 11.9366 130.149 11.589C130.19 11.4885 130.233 11.3817 130.284 11.2682C130.529 10.7201 130.621 10.3483 130.748 9.83437L130.819 9.54637C130.869 9.34589 130.929 9.17024 130.987 9.00017C131.13 8.5781 131.254 8.21376 131.172 7.68121Z" fill="#999999"/>
<path id="Vector_7" d="M178.464 7.0388C178.3 6.83274 178.131 6.75639 177.934 6.66825C177.885 6.64591 177.834 6.62232 177.778 6.59501C177.446 6.43239 177.003 6.35046 176.459 6.35046C175.551 6.35046 174.681 6.57826 174.645 6.58819L174.579 6.60494L172.097 15.2399L172.071 15.3287L172.151 15.374C172.166 15.3833 172.546 15.6012 172.823 15.6781C173.023 15.7352 173.2 15.7588 173.412 15.7588C173.506 15.7588 173.597 15.7551 173.699 15.7507C173.768 15.747 173.838 15.7445 173.916 15.7421L174.032 15.7396C174.485 15.7272 174.783 15.7197 175.242 15.5596C175.916 15.3262 176.315 15.0233 176.767 14.4026C177.022 14.0519 177.112 13.7608 177.215 13.4238C177.259 13.2829 177.306 13.1321 177.369 12.9664C177.855 11.6797 178.366 9.56872 178.369 9.55382C178.378 9.52465 178.588 8.82762 178.608 8.35093C178.614 8.233 178.629 8.12128 178.641 8.01452C178.683 7.67811 178.722 7.36032 178.466 7.04005" fill="#999999"/>
</g>
</g>
<defs>
<clipPath id="clip0_782_68483">
<rect width="240.205" height="36" fill="white" transform="translate(0.562744)"/>
</clipPath>
</defs>
</svg>
