<svg width="233" height="36" viewBox="0 0 233 36" fill="none" xmlns="http://www.w3.org/2000/svg">
<g id="techdirt 1" clip-path="url(#clip0_782_68493)">
<g id="Group">
<path id="Vector" d="M30.1983 9.64266C32.4528 9.64266 34.2804 7.81501 34.2804 5.56049C34.2804 3.30598 32.4528 1.47833 30.1983 1.47833C27.9437 1.47833 26.1161 3.30598 26.1161 5.56049C26.1161 7.81501 27.9437 9.64266 30.1983 9.64266Z" fill="#999999"/>
<path id="Vector_2" d="M17.5186 9.64341C19.7735 9.64341 21.6015 7.81542 21.6015 5.56047C21.6015 3.30553 19.7735 1.47754 17.5186 1.47754C15.2637 1.47754 13.4357 3.30553 13.4357 5.56047C13.4357 7.81542 15.2637 9.64341 17.5186 9.64341Z" fill="#999999"/>
<path id="Vector_3" d="M17.5194 35.0004C19.7739 35.0004 21.6016 33.1727 21.6016 30.9182C21.6016 28.6637 19.7739 26.8361 17.5194 26.8361C15.2649 26.8361 13.4373 28.6637 13.4373 30.9182C13.4373 33.1727 15.2649 35.0004 17.5194 35.0004Z" fill="#999999"/>
<path id="Vector_4" d="M19.5678 14.7125H19.5794C18.6567 13.9883 18.6397 12.9961 18.6397 11.9005C18.6397 10.8049 18.6567 9.81193 19.5794 9.08769H19.5678C20.7831 8.38043 21.6023 7.06784 21.6023 5.56068C21.6023 3.30534 19.7739 1.47852 17.5201 1.47852C16.0122 1.47852 14.6988 2.29773 13.9924 3.51226V3.50068C13.2681 4.42258 12.276 4.43957 11.1803 4.43957C10.0847 4.43957 9.09253 4.42335 8.36906 3.50068V3.51226C7.66026 2.29773 6.34767 1.47852 4.8405 1.47852C2.58516 1.47852 0.757568 3.30534 0.757568 5.56068C0.757568 7.81525 2.58516 9.64284 4.8405 9.64284C6.34767 9.64284 7.66103 8.82285 8.36829 7.60832V7.62068C9.09253 6.698 10.0839 6.68024 11.1796 6.68024C12.2752 6.68024 13.2673 6.69723 13.9916 7.62068V7.60909C14.3475 8.22138 14.8587 8.73175 15.4717 9.08846H15.4594C16.3821 9.8127 16.3983 10.8056 16.3983 11.9013C16.3983 12.9969 16.3821 13.9891 15.4594 14.7133H15.4702C14.2557 15.4206 13.4364 16.7332 13.4364 18.2403C13.4364 20.4941 15.264 22.3217 17.5194 22.3217C19.7732 22.3217 21.6015 20.4941 21.6015 18.2403C21.6015 16.7324 20.7831 15.4198 19.5678 14.7125Z" fill="#999999"/>
</g>
<path id="Vector_5" d="M4.83973 22.3216C7.09425 22.3216 8.92189 20.4939 8.92189 18.2394C8.92189 15.9849 7.09425 14.1572 4.83973 14.1572C2.58521 14.1572 0.757568 15.9849 0.757568 18.2394C0.757568 20.4939 2.58521 22.3216 4.83973 22.3216Z" fill="#999999"/>
<path id="Vector_6" d="M32.229 27.3233C31.3866 26.6052 31.3627 25.6416 31.3627 24.58C31.3627 23.5152 31.3858 22.5516 32.2321 21.832C33.5092 21.1425 34.377 19.7913 34.377 18.2394C34.377 15.9848 32.5494 14.1572 30.2948 14.1572C28.0403 14.1572 26.2119 15.9848 26.2119 18.2394C26.2119 19.7466 27.0319 21.0599 28.248 21.7672H28.1831C29.105 22.4914 29.122 23.4836 29.122 24.58C29.122 25.6748 29.1058 26.667 28.1831 27.3912H28.2464C27.0319 28.0985 26.2127 29.4119 26.2127 30.9183C26.2127 33.1728 28.0411 35.0004 30.2956 35.0004C32.5502 35.0004 34.3778 33.1728 34.3778 30.9183C34.377 29.3632 33.5076 28.012 32.229 27.3233Z" fill="#999999"/>
<path id="Vector_7" d="M4.83973 35.0003C7.09425 35.0003 8.92189 33.1726 8.92189 30.9181C8.92189 28.6636 7.09425 26.8359 4.83973 26.8359C2.58521 26.8359 0.757568 28.6636 0.757568 30.9181C0.757568 33.1726 2.58521 35.0003 4.83973 35.0003Z" fill="#999999"/>
<path id="Vector_8" d="M61.5647 30.9162C53.0236 30.9162 52.2708 27.7752 52.2708 23.7471V4.00879H55.5901V9.18735H70.9026V11.7986H55.5901V23.3047C55.5901 26.2696 55.7229 28.2616 61.5647 28.2616C67.4513 28.2616 67.5833 26.2696 67.5833 23.3047V16.2676H70.9026V23.7471C70.9026 27.7752 70.2394 30.9162 61.5647 30.9162Z" fill="#999999"/>
<path id="Vector_9" d="M94.3145 24.1016C94.3145 27.6425 93.4297 30.9163 84.6662 30.9163C75.9027 30.9163 74.9739 27.7753 74.9739 23.7472V16.0037C74.9739 11.9756 75.9035 8.78906 84.6662 8.78906C93.3849 8.78906 94.3145 11.9756 94.3145 16.0037V20.6935H78.2932V23.3056C78.2932 26.2705 78.6028 28.3065 84.6662 28.3065C90.7296 28.3065 90.9944 26.1377 90.9944 23.66V23.4384H94.3138L94.3145 24.1016ZM84.6662 11.4003C78.6028 11.4003 78.2932 13.4796 78.2932 16.4453V18.0382H90.9944V16.4453C90.9952 13.4796 90.7296 11.4003 84.6662 11.4003Z" fill="#999999"/>
<path id="Vector_10" d="M107.989 30.9163C99.2252 30.9163 98.2964 27.7753 98.2964 23.7472V16.0037C98.2964 11.9756 99.226 8.78906 107.989 8.78906C116.707 8.78906 117.636 11.9756 117.636 16.0037V16.8445H114.317V16.4453C114.317 13.4796 114.051 11.4003 107.989 11.4003C101.925 11.4003 101.616 13.4796 101.616 16.4453V23.3056C101.616 26.2705 101.925 28.3065 107.989 28.3065C114.051 28.3065 114.317 26.2705 114.317 23.3056V22.5968H117.636V23.7472C117.636 27.7753 116.707 30.9163 107.989 30.9163Z" fill="#999999"/>
<path id="Vector_11" d="M137.777 30.5179V16.8438C137.777 13.3916 137.201 11.6212 131.448 11.6212C126.8 11.6212 125.163 13.2141 125.163 17.0206V30.5171H121.844V1H125.163V11.3116C126.491 10.0731 128.659 8.7883 132.067 8.7883C139.9 8.7883 141.095 12.0196 141.095 16.2238V30.5179H137.777Z" fill="#999999"/>
<path id="Vector_12" d="M162.515 30.5179V28.4378C161.321 29.7211 158.931 31.0043 155.169 31.0043C146.716 31.0043 144.946 27.729 144.946 23.348V16.3573C144.946 11.9756 146.716 8.70106 155.169 8.70106C158.798 8.70106 161.144 9.89629 162.339 11.0915V1H168.668V30.5179H162.515ZM162.339 17.0654C162.339 14.2773 161.676 12.8164 156.808 12.8164C151.939 12.8164 151.231 14.2773 151.231 17.0654V22.6423C151.231 25.3856 151.939 26.8905 156.808 26.8905C161.676 26.8905 162.339 25.3856 162.339 22.6423V17.0654Z" fill="#999999"/>
<path id="Vector_13" d="M172.777 6.97461V1H179.106V6.97461H172.777ZM172.777 30.5179V9.18749H179.106V30.5179H172.777Z" fill="#999999"/>
<path id="Vector_14" d="M199.376 21.1366V17.1093C199.376 14.3644 198.446 12.8603 194.418 12.8603C190.657 12.8603 189.55 15.3388 189.55 17.8613V30.5178H183.222V9.1874H189.373V11.2667C189.772 10.7355 191.897 8.7002 195.923 8.7002C204.111 8.7002 205.659 12.4171 205.659 16.3565V21.1358L199.376 21.1366Z" fill="#999999"/>
<path id="Vector_15" d="M220.617 31.005C209.951 31.005 208.889 27.4656 208.889 23.3047V4.00879H215.173V9.18735H232.389V13.3915H215.218V22.4631C215.218 25.2512 215.572 26.9328 220.617 26.9328C225.707 26.9328 226.061 25.2512 226.061 22.4631V16.5332H232.389V23.3047C232.389 27.4656 231.327 31.005 220.617 31.005Z" fill="#999999"/>
</g>
<defs>
<clipPath id="clip0_782_68493">
<rect width="232" height="36" fill="white" transform="translate(0.768066)"/>
</clipPath>
</defs>
</svg>
