<svg width="120" height="120" viewBox="0 0 120 120" fill="none" xmlns="http://www.w3.org/2000/svg">
<rect width="120" height="120" fill="#F5BC30"/>
<path d="M63.4519 50.2783H75.7275V53.3167H66.7675V57.6625H75.4891V60.61H66.7675V65.0167H75.7275V68.0558H63.4519V50.2783ZM109.086 68.39C112.85 68.39 114.971 66.5667 114.971 64.0442C114.971 62.2517 113.716 60.9142 111.087 60.3367L108.31 59.7592C106.696 59.4558 106.189 59.1517 106.189 58.5442C106.189 57.7542 106.966 57.2675 108.4 57.2675C109.953 57.2675 111.088 57.6925 111.417 59.1508H114.672C114.493 56.4167 112.552 54.5925 108.609 54.5925C105.204 54.5925 102.814 56.0217 102.814 58.7867C102.814 60.7017 104.128 61.9475 106.966 62.555L110.072 63.2842C111.296 63.5275 111.625 63.8617 111.625 64.3783C111.625 65.1992 110.699 65.7158 109.206 65.7158C107.324 65.7158 106.249 65.2908 105.831 63.8317H102.545C103.023 66.5667 105.024 68.39 109.086 68.39ZM101.665 65.0775H99.2153C98.4686 65.0775 97.9903 64.7433 97.9903 64.0442V57.9058H101.665V54.9275H97.9903V51.19H94.7048V54.9275H92.2255V57.9058H94.7048V64.895C94.7048 66.6575 95.9291 68.055 98.14 68.055H101.665V65.0775ZM90.8386 54.9275V68.0558H87.5832V66.8708C86.4273 67.8601 84.9669 68.3982 83.4608 68.39C79.6075 68.39 76.5913 65.3208 76.5913 61.4917C76.5913 57.6625 79.6083 54.5933 83.4608 54.5933C84.967 54.5853 86.4274 55.1238 87.5832 56.1133V54.9283H90.8386V54.9275ZM87.6426 61.4917C87.6473 60.9638 87.5493 60.4403 87.3544 59.9516C87.1594 59.4629 86.8715 59.019 86.5072 58.6455C86.143 58.2721 85.7099 57.9767 85.2331 57.7766C84.7562 57.5765 84.2453 57.4757 83.73 57.48C83.2155 57.4783 82.7057 57.581 82.2301 57.7821C81.7544 57.9831 81.3223 58.2786 80.9586 58.6515C80.5949 59.0244 80.3069 59.4673 80.111 59.9548C79.9151 60.4422 79.8154 60.9645 79.8174 61.4917C79.8155 62.0187 79.9153 62.541 80.1112 63.0283C80.3072 63.5157 80.5952 63.9585 80.9589 64.3313C81.3226 64.7041 81.7547 64.9995 82.2303 65.2005C82.7058 65.4015 83.2155 65.5042 83.73 65.5025C85.91 65.5025 87.6426 63.74 87.6426 61.4917ZM13.3063 65.9725C15.727 65.9725 17.5987 64.0675 17.5987 61.2483V50.2775H20.2204V68.0542H17.624V66.4042C16.451 67.6475 14.8282 68.3592 13.0061 68.3592C9.26268 68.3592 6.39126 65.5908 6.39126 61.4008V50.2783H9.01295V61.2492C9.01295 64.1183 10.8594 65.9725 13.3063 65.9725ZM22.167 68.0542H24.6634V66.4292C25.258 67.0431 25.9657 67.53 26.7454 67.8614C27.5252 68.1929 28.3614 68.3623 29.2056 68.36C32.9498 68.36 35.8953 65.3375 35.8953 61.6042C35.8953 57.8458 32.9507 54.8242 29.2056 54.8242C28.3651 54.8217 27.5325 54.9911 26.7568 55.3225C25.981 55.6539 25.2776 56.1407 24.6878 56.7542V50.2783H22.1662V68.055L22.167 68.0542ZM29.0315 66.0992C28.4543 66.1018 27.8824 65.9874 27.3485 65.7625C26.8147 65.5376 26.3296 65.2067 25.9212 64.7889C25.5128 64.371 25.1892 63.8745 24.969 63.3279C24.7488 62.7813 24.6364 62.1955 24.6382 61.6042C24.6364 61.0129 24.7488 60.4272 24.9689 59.8806C25.1891 59.3341 25.5126 58.8376 25.9209 58.4198C26.3293 58.0019 26.8143 57.671 27.348 57.4461C27.8817 57.2211 28.4536 57.1066 29.0307 57.1092C29.606 57.1092 30.1756 57.2256 30.7069 57.4517C31.2381 57.6778 31.7205 58.0093 32.1264 58.4269C32.5323 58.8446 32.8536 59.3403 33.072 59.8855C33.2903 60.4308 33.4014 61.0148 33.3989 61.6042C33.3989 64.0933 31.4279 66.0992 29.0307 66.0992H29.0315ZM43.4334 54.8492C39.7144 54.8492 36.8934 57.9217 36.8934 61.5783C36.8934 65.4383 39.8396 68.3342 43.6579 68.3342C45.9794 68.3342 47.8763 67.2925 49.1494 65.5658L47.3273 64.1942C46.3788 65.4892 45.131 66.0992 43.6587 66.0992C41.5112 66.0992 39.7892 64.5242 39.4394 62.4167H49.7985V61.5783C49.7985 57.7183 47.1028 54.8492 43.4334 54.8492ZM39.4898 60.385C39.9397 58.4042 41.512 57.0842 43.3837 57.0842C45.2563 57.0842 46.8286 58.4042 47.2532 60.385H39.489H39.4898ZM57.6123 57.3883V55.0017H56.7387C55.3412 55.0017 54.3179 55.6617 53.694 56.7033V55.1033H51.1976V68.055H53.7192V60.69C53.7192 58.6842 54.9166 57.3883 56.5638 57.3883H57.6123Z" fill="black"/>
</svg>
