<svg width="150" height="36" viewBox="0 0 150 36" fill="none" xmlns="http://www.w3.org/2000/svg">
<g id="usn-logo-large 1" clip-path="url(#clip0_782_68528)">
<g id="Group 57350">
<g id="Group">
<g id="Clip path group">
<mask id="mask0_782_68528" style="mask-type:luminance" maskUnits="userSpaceOnUse" x="1" y="0" width="149" height="36">
<g id="SVGID_2_">
<path id="Vector" d="M149.121 0H1.2041V35.5H149.121V0Z" fill="white"/>
</g>
</mask>
<g mask="url(#mask0_782_68528)">
<g id="Group_2">
<path id="Vector_2" d="M149.83 -0.530945H0.92688V35.9552H149.83V-0.530945Z" fill="#999999"/>
<path id="Vector_3" d="M149.121 29.0004H1.2041V30.5871H149.121V29.0004Z" fill="white"/>
<path id="Vector_4" d="M149.908 30.5874H1.2041V49.2974H149.908V30.5874Z" fill="#999999"/>
</g>
</g>
</g>
</g>
<g id="Group_3">
<path id="Vector_5" d="M28.1057 22.6462C28.1057 22.1954 28.1057 7.06097 28.1057 7.06097H23.2133C23.2133 7.06097 23.2133 21.5442 23.2133 21.9702C23.2133 24.2914 21.2331 25.6741 18.4334 25.6741C15.2366 25.6741 13.4815 24.2918 13.4815 21.9414C13.4815 21.5169 13.4815 7.06097 13.4815 7.06097H8.59067C8.59067 7.06097 8.59067 21.8549 8.59067 22.3633C8.59067 27.601 12.7479 29.6926 18.3195 29.6926C22.165 29.6926 25.2635 28.6409 26.8809 26.5142V29.4093H31.2449V24.8579H27.7585C27.984 24.1901 28.1057 23.4542 28.1057 22.6462Z" fill="white"/>
<path id="Vector_6" d="M51.492 22.9618C51.492 19.1403 49.1734 17.3014 44.7304 16.452C44.2204 16.3669 42.7487 16.0548 41.6204 15.8292C37.9702 15.0941 36.6397 14.444 36.6397 12.8028C36.6397 11.5289 37.3763 10.7098 41.0816 10.7098C43.9098 10.7098 45.1264 11.3599 45.7199 12.605C45.8904 12.946 46.032 13.4529 46.032 13.707H51.0675C51.0675 13.1394 50.8423 12.2944 50.5576 11.5578C49.4278 8.72959 46.796 6.77783 41.1944 6.77783C34.6321 6.77783 31.5784 9.32163 31.5784 13.115C31.5784 16.8214 34.2638 18.8293 38.6218 19.6492C39.6113 19.8455 41.2521 20.1591 41.9037 20.2734C45.5206 20.9523 46.4566 21.6009 46.4566 23.441C46.4566 24.9128 45.2692 25.8432 41.8719 25.8432C38.9036 25.8432 37.4329 25.28 36.8102 23.9783C36.6397 23.6403 36.4981 22.9614 36.4981 22.5642H31.4626C31.4626 23.015 31.5477 24.12 31.7777 24.8536C32.6792 27.6833 35.1117 29.7201 41.8719 29.7201C46.1186 29.7201 48.9453 28.5282 50.3801 26.5565V29.4095H54.7425V24.8584H51.2187C51.3955 24.2656 51.492 23.634 51.492 22.9618Z" fill="white"/>
<path id="Vector_7" d="M70.5264 21.4588L61.9272 7.06097H56.2417V29.4093H60.9088V14.2734L69.9051 29.4093H75.1935V7.06097H70.5264V21.4588Z" fill="white"/>
<path id="Vector_8" d="M86.0014 12.5347C82.4033 12.5347 79.5559 13.8826 77.9669 16.1908C77.0395 17.5095 76.5281 19.1869 76.5281 21.0754C76.5281 23.1455 76.9774 24.7936 77.7891 26.082C79.3766 28.601 82.3419 29.679 86.001 29.679C88.6676 29.679 90.6782 29.1098 92.1185 28.1824C93.7652 27.1292 94.7244 25.6327 95.1116 24.0441H90.4053C90.3172 24.4053 89.8968 24.9427 89.03 25.3324C88.3381 25.6327 87.35 25.8727 86.001 25.8727C84.2027 25.8727 82.8563 25.3945 82.163 24.645C81.5953 24.0152 81.2644 23.4476 81.2644 22.6936H95.2325C95.5013 20.209 95.0521 17.8393 93.8229 16.041C92.357 13.9114 89.777 12.5347 86.0014 12.5347ZM81.2344 19.5485C81.2344 19.0667 81.6852 18.0801 82.2543 17.5701C83.0645 16.8509 84.3244 16.3986 86.0302 16.3986C87.83 16.3986 88.9682 16.9707 89.6601 17.6596C90.2581 18.2894 90.4633 19.0667 90.4633 19.5481L81.2344 19.5485Z" fill="white"/>
<path id="Vector_9" d="M119.947 12.9247L116.083 25.1818L112.365 12.9247H107.031L103.406 25.1818L99.4492 12.9247H94.4441L100.343 29.41H106.043C106.043 29.41 109.282 19.9385 109.311 19.3672C109.341 19.1867 109.518 18.2101 109.518 18.2101C109.518 18.2101 109.699 19.1867 109.731 19.3975C109.789 19.9385 113.029 29.41 113.029 29.41H118.693L124.657 12.9247H119.947Z" fill="white"/>
<path id="Vector_10" d="M136.039 19.3966C135.471 19.3071 133.163 18.9746 132.204 18.8289C129.866 18.4677 129.354 18.1992 129.354 17.4799C129.354 16.7026 130.135 16.2796 132.774 16.2796C135.051 16.2796 135.919 16.6723 136.249 17.1201C136.397 17.3294 136.46 17.8379 136.46 18.0172H141.106C141.106 17.6878 141.015 16.6723 140.805 16.0396C139.967 13.6737 137.116 12.5048 132.593 12.5048C127.286 12.5048 124.651 14.4232 124.651 17.3568C124.651 20.5078 126.389 22.0953 130.016 22.6038C131.004 22.7539 132.983 23.0545 133.61 23.144C136.038 23.5038 137.029 23.7117 137.029 24.6435C137.029 25.6013 136.19 26.0809 133.463 26.0809C130.854 26.0809 129.596 25.8716 129.295 25.0928C129.175 24.7619 129.146 24.4631 129.146 24.2523H124.382C124.382 24.7926 124.411 25.2433 124.559 25.9019C125.25 28.6003 127.886 29.7067 133.463 29.7067C139.157 29.7067 141.734 27.9691 141.734 24.5526C141.734 21.4659 139.994 19.9967 136.039 19.3966Z" fill="white"/>
<path id="Vector_11" d="M79.2468 11.5868C79.6742 11.5868 80.1365 11.5147 80.4833 11.3701C80.5469 11.4264 80.6191 11.4885 80.6941 11.5421H82.4029C82.0779 11.2836 81.7384 11.0222 81.4396 10.801C81.7994 10.4586 82.0276 9.97197 82.049 9.4084H80.7895C80.7766 9.66541 80.6941 9.90392 80.5469 10.0903C80.2885 9.87804 80.03 9.64692 79.8277 9.48199C80.2755 9.20465 80.7119 8.80897 80.7263 8.23986C80.7263 8.20954 80.7322 8.08529 80.7263 8.04498C80.6945 7.50028 80.196 7.00513 79.3411 7.00513C78.4051 7.00513 77.8634 7.52801 77.839 8.07974C77.839 8.15185 77.839 8.25613 77.839 8.3079C77.8464 8.57933 77.9458 8.887 78.2073 9.25679C77.6755 9.50677 77.1903 9.82442 77.1789 10.3358C77.1789 10.3935 77.1744 10.4978 77.1789 10.5684C77.2173 11.392 78.1792 11.5868 79.2468 11.5868ZM79.0256 8.2602C79.0445 8.10119 79.1281 7.96548 79.3274 7.96548C79.5341 7.96548 79.6047 8.09564 79.6121 8.2443C79.6121 8.2602 79.6121 8.3079 79.6121 8.33527C79.5977 8.51018 79.4372 8.65884 79.2076 8.79455C79.0962 8.64848 79.0326 8.50574 79.0256 8.38149C79.0201 8.34377 79.0201 8.29644 79.0256 8.2602ZM78.8625 10.0093C79.0519 10.2001 79.3189 10.4079 79.5762 10.6291C79.4649 10.6579 79.3104 10.6738 79.1835 10.6738C78.7154 10.6738 78.5146 10.5914 78.5146 10.3747C78.5142 10.2478 78.6573 10.1251 78.8625 10.0093Z" fill="white"/>
<path id="Vector_12" d="M86.2813 11.5425C86.2813 11.5425 86.9687 8.95983 86.9761 8.80932C86.9935 8.95391 87.665 11.5425 87.665 11.5425H89.1671L90.4266 7.05133H89.0935C89.0935 7.05133 88.419 9.82477 88.419 9.9664C88.419 9.82477 87.7372 7.05133 87.7372 7.05133H86.3245C86.3245 7.05133 85.66 9.82477 85.66 9.9664C85.66 9.82477 84.9741 7.05133 84.9741 7.05133H83.5049L84.7907 11.5425H86.2813Z" fill="white"/>
<path id="Vector_13" d="M92.8728 11.6102C94.5166 11.6102 95.2665 10.8344 95.2665 9.25725C95.2665 7.75627 94.5672 6.97046 92.8728 6.97046C91.2117 6.97046 90.4766 7.84132 90.4766 9.27426C90.4762 10.8089 91.2247 11.6102 92.8728 11.6102ZM92.8728 8.0325C93.6342 8.0325 93.8783 8.39933 93.8783 9.28905C93.8783 10.2901 93.5115 10.5574 92.8802 10.5574C92.2231 10.5574 91.8792 10.2413 91.8792 9.28905C91.8788 8.38639 92.1403 8.0325 92.8728 8.0325Z" fill="white"/>
<path id="Vector_14" d="M97.2309 10.0232H98.1598L98.9485 11.5427H100.491L99.4411 9.74439C99.6489 9.69817 99.8512 9.55802 99.9928 9.31839C100.113 9.11907 100.191 8.83322 100.191 8.47194C100.191 8.05148 100.107 7.74973 99.9322 7.52305C99.7055 7.22389 99.3169 7.05231 98.7189 7.05231H95.8759V11.5434H97.2309V10.0232ZM97.2438 8.10917H98.4024C98.6017 8.10917 98.7333 8.15244 98.7995 8.29703C98.8383 8.36359 98.8487 8.48488 98.8487 8.58583C98.8487 8.67532 98.8313 8.79514 98.7966 8.87464C98.7459 8.98595 98.6017 9.02478 98.4327 9.02478H97.2438V8.10917Z" fill="white"/>
<path id="Vector_15" d="M104.687 10.4316H102.531V7.05133H101.141V11.5425H104.687V10.4316Z" fill="white"/>
<path id="Vector_16" d="M109.445 10.8909C109.694 10.5181 109.762 10.1672 109.762 9.20943C109.762 8.39182 109.708 8.0176 109.432 7.63634C109.155 7.25065 108.649 7.05133 107.838 7.05133H105.373V11.5425H107.904C108.712 11.5425 109.175 11.3054 109.445 10.8909ZM106.74 10.4823V8.10154H107.607C107.946 8.10154 108.111 8.1522 108.286 8.34412C108.396 8.47133 108.427 8.88735 108.427 9.20943C108.427 9.57479 108.414 10.0833 108.297 10.2264C108.143 10.4083 107.958 10.4819 107.607 10.4819L106.74 10.4823Z" fill="white"/>
<path id="Vector_17" d="M113.402 10.0232H114.329L115.122 11.5427H116.662L115.611 9.74439C115.817 9.69817 116.024 9.55802 116.164 9.31839C116.282 9.11907 116.362 8.83322 116.362 8.47194C116.362 8.05148 116.278 7.74973 116.103 7.52305C115.876 7.22389 115.488 7.05231 114.89 7.05231H112.048V11.5434H113.402V10.0232ZM113.415 8.10917H114.57C114.768 8.10917 114.904 8.15244 114.973 8.29703C115.008 8.36359 115.017 8.48488 115.017 8.58583C115.017 8.67532 115.002 8.79514 114.968 8.87464C114.917 8.98595 114.768 9.02478 114.601 9.02478H113.415V8.10917Z" fill="white"/>
<path id="Vector_18" d="M121.211 10.4952H118.721V9.82773H121.095V8.76014H118.721V8.10893H121.186V7.05133H117.369V11.5425H121.211V10.4952Z" fill="white"/>
<path id="Vector_19" d="M123.476 10.1365C123.476 10.1365 124.691 10.1465 124.86 10.1439C125.411 10.1324 125.842 9.98933 126.1 9.68758C126.324 9.44906 126.432 9.09665 126.432 8.59854C126.432 8.04089 126.291 7.65372 126.028 7.42704C125.782 7.17151 125.396 7.05133 124.855 7.05133H122.091V11.5425H123.475V10.1365H123.476ZM123.459 8.09562H124.555C124.782 8.09562 124.912 8.16514 124.989 8.30788C125.03 8.36853 125.049 8.48427 125.049 8.62405C125.049 8.75533 125.038 8.83927 124.993 8.92026C124.928 9.04451 124.8 9.13104 124.538 9.13104C124.531 9.13104 123.459 9.13104 123.459 9.13104V8.09562H123.459Z" fill="white"/>
<path id="Vector_20" d="M129.313 11.6102C130.954 11.6102 131.705 10.8344 131.705 9.25725C131.705 7.75627 131.005 6.97046 129.313 6.97046C127.649 6.97046 126.914 7.84132 126.914 9.27426C126.914 10.8089 127.662 11.6102 129.313 11.6102ZM129.313 8.0325C130.075 8.0325 130.316 8.39933 130.316 9.28905C130.316 10.2901 129.949 10.5574 129.315 10.5574C128.659 10.5574 128.318 10.2413 128.318 9.28905C128.318 8.38639 128.576 8.0325 129.313 8.0325Z" fill="white"/>
<path id="Vector_21" d="M133.684 10.0232H134.613L135.405 11.5427H136.943L135.894 9.74439C136.105 9.69817 136.306 9.55802 136.451 9.31839C136.566 9.11907 136.647 8.83322 136.647 8.47194C136.647 8.05148 136.559 7.74973 136.387 7.52305C136.159 7.22389 135.766 7.05231 135.171 7.05231H132.329V11.5434H133.684V10.0232ZM133.696 8.10917H134.854C135.051 8.10917 135.186 8.15244 135.254 8.29703C135.289 8.36359 135.299 8.48488 135.299 8.58583C135.299 8.67532 135.283 8.79514 135.25 8.87464C135.201 8.98595 135.051 9.02478 134.882 9.02478H133.696V8.10917Z" fill="white"/>
<path id="Vector_22" d="M138.476 11.5425H139.875V8.13186H141.311V7.05133H137.051V8.13186H138.476V11.5425Z" fill="white"/>
</g>
</g>
</g>
<defs>
<clipPath id="clip0_782_68528">
<rect width="149" height="36" fill="white" transform="translate(0.901367)"/>
</clipPath>
</defs>
</svg>
