<svg width="242" height="36" viewBox="0 0 242 36" fill="none" xmlns="http://www.w3.org/2000/svg">
<g id="Yahoo_news_logo 1">
<g id="layer1">
<path id="path1139" d="M6 9.27649H13.6176L18.0532 20.1426L22.5464 9.27649H29.9634L18.7951 35H11.3311L14.3882 28.1837L6 9.27649Z" fill="#999999"/>
<path id="path1141" d="M37.6899 8.84485C31.9665 8.84485 28.3483 13.7599 28.3483 18.6544C28.3483 24.1622 32.3152 28.529 37.5814 28.529C41.5097 28.529 42.9909 26.2372 42.9909 26.2372V28.0224H49.6349V9.27753H42.9909V10.9816C42.9909 10.9816 41.3384 8.84485 37.6899 8.84485ZM39.1031 14.8687C41.744 14.8687 43.1068 16.8696 43.1068 18.675C43.1068 20.6191 41.6468 22.527 39.1031 22.527C36.995 22.527 35.0899 20.8773 35.0899 18.7578C35.0899 16.6082 36.6223 14.8687 39.1031 14.8687Z" fill="#999999"/>
<path id="path1145" d="M51.9231 28.0219V1H58.8723V11.0461C58.8723 11.0461 60.5229 8.84672 63.9799 8.84672C68.2085 8.84672 70.686 11.8635 70.686 16.1744V28.0219H63.7876V17.7974C63.7876 16.3385 63.0619 14.9291 61.4179 14.9291C59.7445 14.9291 58.8723 16.3598 58.8723 17.7974V28.0219H51.9231Z" fill="#999999"/>
<path id="path1147" d="M82.5342 8.84583C75.9798 8.84583 72.0769 13.6181 72.0769 18.7312C72.0769 24.5499 76.8024 28.5277 82.559 28.5277C88.1386 28.5277 93.0209 24.7304 93.0209 18.8288C93.0209 12.3713 87.909 8.84583 82.5342 8.84583ZM82.5968 14.9226C84.912 14.9226 86.514 16.7691 86.514 18.7381C86.514 20.4175 85.0213 22.489 82.5968 22.489C80.3752 22.489 78.708 20.7826 78.708 18.7197C78.708 16.7325 80.0941 14.9226 82.5968 14.9226Z" fill="#999999"/>
<path id="path1153" d="M104.598 8.84583C98.0435 8.84583 94.1407 13.6181 94.1407 18.7312C94.1407 24.5499 98.8661 28.5277 104.623 28.5277C110.202 28.5277 115.085 24.7304 115.085 18.8288C115.085 12.3713 109.973 8.84583 104.598 8.84583ZM104.661 14.9226C106.976 14.9226 108.578 16.7691 108.578 18.7381C108.578 20.4175 107.085 22.489 104.661 22.489C102.439 22.489 100.772 20.7826 100.772 18.7197C100.772 16.7325 102.158 14.9226 104.661 14.9226Z" fill="#999999"/>
<path id="path1155" d="M120.568 28.4201C123.117 28.4201 125.183 26.4418 125.183 24.0015C125.183 21.5613 123.117 19.583 120.568 19.583C118.02 19.583 115.954 21.5613 115.954 24.0015C115.954 26.4418 118.02 28.4201 120.568 28.4201Z" fill="#999999"/>
<path id="path1157" d="M126.699 17.9597H118.392L125.765 1H134.041L126.699 17.9597Z" fill="#999999"/>
<g id="g4900">
<path id="path4892" d="M147.851 5.48292C146.673 5.91 146.053 6.27607 145.103 7.1709L144.317 7.88271V6.82517V5.76764H140.288H136.258V16.5464V27.3251H140.288H144.317V21.1629C144.317 17.7462 144.4 14.6957 144.524 14.2889C145.123 12.1535 148.161 11.6044 149.318 13.4551C149.794 14.1872 149.794 14.3093 149.856 20.7562L149.918 27.3251H157.833C157.833 27.3251 157.977 14.1872 157.75 12.2145C157.44 9.16395 156.014 6.96753 153.658 5.82865C152.191 5.11685 149.318 4.95415 147.851 5.48292Z" fill="#999999"/>
<path id="path4894" d="M168.703 5.48256C164.921 6.45875 161.966 9.14326 160.685 12.7633C159.734 15.4478 160.023 19.6373 161.346 22.1997C162.007 23.5013 163.598 25.2096 164.921 26.0231C169.054 28.6263 175.481 28.4636 179.511 25.6367C180.648 24.8232 182.136 22.6268 182.136 22.6268L175.729 20.2067C175.729 20.2067 175.252 20.605 174.893 20.8114C174.402 21.093 173.869 21.3049 173.539 21.4269C172.691 21.7523 171.213 21.9922 169.984 21.3456C168.812 20.7287 167.587 19.0068 167.938 18.6407C168 18.5797 171.327 18.5187 175.357 18.5187C179.366 18.4984 182.776 18.3967 182.941 18.295C183.293 18.0713 183.127 15.0004 182.652 13.2107C181.64 9.36697 178.684 6.47908 174.779 5.48256C173.208 5.07582 170.232 5.07582 168.703 5.48256ZM173.456 11.5024C174.365 11.9701 174.965 12.6209 175.192 13.4141C175.316 13.7801 175.213 13.8615 174.551 13.9835C173.539 14.1462 170.955 14.1462 169.343 13.9835C167.876 13.8208 167.732 13.5361 168.641 12.4582C169.819 11.0956 171.823 10.6889 173.456 11.5024Z" fill="#999999"/>
<path id="path4896" d="M224.769 5.54334C221.38 6.45852 219.623 7.98381 218.796 10.77C217.908 13.8002 219.313 16.7491 222.33 18.0914C222.888 18.3558 224.707 18.9252 226.339 19.3523C229.522 20.2268 229.935 20.4708 229.46 21.2233C229.315 21.4674 228.819 21.5284 227.145 21.508C225.203 21.508 224.831 21.4267 222.95 20.7352C221.814 20.3082 220.739 19.9217 220.553 19.8811C220.326 19.7997 219.912 20.4302 218.962 22.3825C218.259 23.8265 217.68 25.1077 217.68 25.2298C217.68 25.6568 221.276 27.0398 223.777 27.5482C225.409 27.8939 229.481 27.8736 230.906 27.5482C234.812 26.6127 237.168 24.2739 237.457 21.0403C237.643 19.1693 237.106 17.6847 235.784 16.4237C234.44 15.1425 233.221 14.5731 229.439 13.4342C227.104 12.7427 226.443 12.4783 226.381 12.1733C226.153 10.9734 228.737 10.9327 232.229 12.0716C233.572 12.519 234.73 12.8647 234.771 12.8241C234.874 12.7224 237.106 7.5974 237.106 7.47538C237.106 7.272 234.895 6.3975 233.076 5.86874C230.514 5.11626 226.918 4.9739 224.769 5.54334Z" fill="#999999"/>
<path id="path4898" d="M182.549 5.95067C182.549 6.2964 189.782 26.9997 189.947 27.1624C190.05 27.2641 191.6 27.3047 193.419 27.2844L196.705 27.2234L198.565 21.6713C199.577 18.6411 200.466 16.1396 200.528 16.1396C200.59 16.1396 201.479 18.6411 202.512 21.6917L204.392 27.2234L207.782 27.2844L211.191 27.3251L211.873 25.4541C212.245 24.4169 213.878 19.719 215.511 15.0211C217.143 10.3232 218.528 6.31674 218.61 6.11337C218.755 5.78797 218.486 5.76763 214.705 5.76763C212.473 5.76763 210.654 5.78797 210.654 5.82865C210.654 6.35741 207.286 16.8717 207.203 16.6277C207.182 16.526 206.376 14.0652 205.405 11.157L203.669 5.86932L200.652 5.80831L197.655 5.7473L195.858 11.1773C194.886 14.1466 194.018 16.5057 193.915 16.4243C193.812 16.282 191.311 8.39113 190.67 6.11337C190.567 5.80831 190.195 5.76763 186.558 5.76763C184.181 5.76763 182.549 5.84898 182.549 5.95067Z" fill="#999999"/>
</g>
</g>
</g>
</svg>
