<svg width="40" height="40" viewBox="0 0 40 40" fill="none" xmlns="http://www.w3.org/2000/svg">
<g clip-path="url(#clip0_1849_1262)">
<path d="M6.11112 30.2222C5.77779 29.7778 5.11112 29.6667 4.55556 30C4.11112 30.3333 4.00001 31 4.33334 31.5556C5.55556 33.2222 7.00001 34.5556 8.66667 35.7778C8.8889 35.8889 9.11112 36 9.33334 36C9.66667 36 10 35.8889 10.2222 35.5556C10.5556 35.1111 10.4445 34.4444 10 34C8.44445 33 7.22223 31.6667 6.11112 30.2222Z" fill="#D7272D"/>
<path d="M2.77776 20.2222C2.77776 19.6666 2.33332 19.1111 1.66665 19.1111C1.1111 19.1111 0.555542 19.5555 0.555542 20.2222C0.555542 22.2222 0.888875 24.2222 1.55554 26.2222C1.66665 26.6666 2.1111 27 2.55554 27C2.66665 27 2.77776 27 2.88888 26.8889C3.55554 26.6666 3.77776 26.1111 3.66665 25.5555C2.99999 23.7778 2.77776 22 2.77776 20.2222Z" fill="#D7272D"/>
<path d="M2.11115 15.6667C2.22226 15.6667 2.33337 15.6667 2.44448 15.6667C2.88893 15.6667 3.33337 15.3333 3.44448 14.8889C4.00004 13.2222 4.77782 11.5555 5.77782 10.1111C6.22226 9.55554 6.11115 8.88888 5.5556 8.55554C5.11115 8.22221 4.44448 8.33332 4.11115 8.88888C3.00004 10.5555 2.00004 12.3333 1.44448 14.3333C1.22226 14.8889 1.5556 15.4444 2.11115 15.6667Z" fill="#D7272D"/>
<path d="M8.88884 6.44443C9.11106 6.44443 9.33328 6.33332 9.5555 6.22221C10.9999 5.1111 12.5555 4.33332 14.2222 3.66665C14.7777 3.44443 15.1111 2.88887 14.8888 2.33332C14.6666 1.77776 14.1111 1.44443 13.5555 1.66665C11.6666 2.33332 9.88884 3.33332 8.22217 4.55554C7.77772 4.88887 7.66661 5.55554 8.11106 5.99999C8.22217 6.33332 8.5555 6.44443 8.88884 6.44443Z" fill="#D7272D"/>
<path d="M19.9999 37.2222C18.2222 37.2222 16.4444 36.8889 14.6666 36.4444C14.1111 36.2222 13.4444 36.5555 13.3333 37.1111C13.1111 37.6666 13.4444 38.3333 13.9999 38.4444C15.8888 39.1111 17.8888 39.3333 19.9999 39.3333C20.5555 39.3333 21.1111 38.8889 21.1111 38.2222C21.1111 37.7778 20.5555 37.2222 19.9999 37.2222Z" fill="#D7272D"/>
<path d="M20 0.555542C19.8889 0.555542 19.6667 0.555542 19.5556 0.555542C19 0.555542 18.4444 1.1111 18.5556 1.66665C18.5556 2.22221 19 2.66665 19.6667 2.66665C19.7778 2.66665 20 2.66665 20.1111 2.66665C29.6667 2.66665 37.3333 10.4444 37.3333 19.8889C37.3333 27.1111 32.7778 33.6667 25.8889 36.1111C25.3333 36.3333 25 36.8889 25.2222 37.4444C25.3333 37.8889 25.7778 38.1111 26.2222 38.1111C26.3333 38.1111 26.4444 38.1111 26.5556 38C34.2222 35.5555 39.4444 28.2222 39.4444 20C39.4444 9.33332 30.6667 0.555542 20 0.555542Z" fill="#D7272D"/>
<path d="M26.4445 28.1111C26.3333 27.6667 26.5556 27.2222 26.8889 26.8889C27.2222 26.5556 27.6667 26.4445 28.1111 26.4445C29 26.5556 29.8889 26.2222 30.2222 25.4445C30.5556 24.7778 30.8889 24.1111 31 23.4445C31.2222 22.5556 31 21.6667 30.2222 21.2222C29.8889 21 29.6667 20.5556 29.6667 20C29.6667 19.5556 29.8889 19.1111 30.2222 18.7778C30.8889 18.2222 31.2222 17.3333 31 16.5556C30.7778 15.8889 30.5556 15.2222 30.2222 14.5556C29.7778 13.7778 29 13.3333 28.1111 13.5556C27.6667 13.6667 27.2222 13.4445 26.8889 13.1111C26.5556 12.7778 26.4445 12.3333 26.4445 11.8889C26.5556 11 26.2222 10.1111 25.4445 9.77779C24.7778 9.44445 24.1111 9.11112 23.4445 9.00001C22.5556 8.77779 21.6667 9.00001 21.2222 9.77779C21 10.1111 20.5556 10.3333 20 10.3333C19.5556 10.3333 19.1111 10.1111 18.7778 9.77779C18.2222 9.11112 17.3333 8.77779 16.5556 9.00001C15.8889 9.22223 15.2222 9.44445 14.5556 9.77779C13.7778 10.2222 13.3333 11 13.5556 11.8889C13.6667 12.3333 13.4445 12.7778 13.1111 13.1111C12.7778 13.4445 12.3333 13.5556 11.8889 13.5556C11 13.4445 10.1111 13.7778 9.77779 14.5556C9.44445 15.2222 9.11112 15.8889 9.00001 16.5556C8.77779 17.4445 9.00001 18.3333 9.77779 18.7778C10.1111 19 10.3333 19.4445 10.3333 20C10.3333 20.5556 10.1111 20.8889 9.77779 21.2222C9.11112 21.7778 8.77779 22.6667 9.00001 23.4445C9.22223 24.1111 9.44445 24.7778 9.77779 25.4445C10.2222 26.2222 11 26.6667 11.8889 26.4445C12.3333 26.3333 12.7778 26.5556 13.1111 26.8889C13.4445 27.2222 13.5556 27.6667 13.5556 28.1111C13.4445 29 13.7778 29.8889 14.5556 30.2222C15.2222 30.5556 15.8889 30.8889 16.5556 31C17.4445 31.2222 18.3333 31 18.7778 30.2222C19 29.8889 19.4445 29.6667 20 29.6667C20.4445 29.6667 20.8889 29.8889 21.2222 30.2222C21.6667 30.7778 22.2222 31.1111 22.8889 31.1111C23.1111 31.1111 23.3333 31.1111 23.4445 31C24.1111 30.7778 24.7778 30.5556 25.4445 30.2222C26.2222 29.8889 26.5556 29 26.4445 28.1111ZM24.3333 28.4445C23.8889 28.6667 23.4445 28.8889 22.8889 29C22.2222 28.1111 21.1111 27.5556 20 27.5556C18.8889 27.5556 17.7778 28.1111 17.1111 29C16.6667 28.8889 16.1111 28.6667 15.6667 28.4445C15.7778 27.3333 15.4445 26.2222 14.6667 25.3333C13.8889 24.5556 12.7778 24.1111 11.5556 24.3333C11.3333 23.8889 11.1111 23.4445 11 22.8889C11.8889 22.2222 12.4445 21.1111 12.4445 20C12.4445 18.8889 11.8889 17.7778 11 17.1111C11.1111 16.6667 11.3333 16.1111 11.5556 15.6667C12.6667 15.7778 13.7778 15.4445 14.6667 14.6667C15.4445 13.8889 15.8889 12.7778 15.6667 11.5556C16.1111 11.3333 16.5556 11.1111 17.1111 11C17.7778 11.8889 18.8889 12.4445 20 12.4445C21.1111 12.4445 22.2222 11.8889 22.8889 11C23.3333 11.1111 23.8889 11.3333 24.3333 11.5556C24.2222 12.6667 24.5556 13.7778 25.3333 14.6667C26.1111 15.4445 27.2222 15.8889 28.4445 15.6667C28.6667 16.1111 28.8889 16.5556 29 17.1111C28.1111 17.7778 27.5556 18.8889 27.5556 20C27.5556 21.1111 28.1111 22.2222 29 22.8889C28.8889 23.3333 28.6667 23.8889 28.4445 24.3333C27.3333 24.2222 26.2222 24.5556 25.3333 25.3333C24.5556 26.1111 24.1111 27.2222 24.3333 28.4445Z" fill="#D7272D"/>
<path d="M19.9999 15.2222C17.3333 15.2222 15.2222 17.3333 15.2222 20C15.2222 22.6666 17.3333 24.7778 19.9999 24.7778C22.6666 24.7778 24.7777 22.6666 24.7777 20C24.7777 17.3333 22.6666 15.2222 19.9999 15.2222ZM19.9999 22.6666C18.5555 22.6666 17.3333 21.4444 17.3333 20C17.3333 18.5555 18.5555 17.3333 19.9999 17.3333C21.4444 17.3333 22.6666 18.5555 22.6666 20C22.6666 21.4444 21.4444 22.6666 19.9999 22.6666Z" fill="#D7272D"/>
</g>
<defs>
<clipPath id="clip0_1849_1262">
<rect width="40" height="40" fill="white"/>
</clipPath>
</defs>
</svg>
