<svg width="40" height="40" viewBox="0 0 40 40" fill="none" xmlns="http://www.w3.org/2000/svg">
<g clip-path="url(#clip0_1849_1282)">
<path d="M30.5555 30.5555H22C21.5555 30.5555 21.1111 30.2222 21.1111 29.6667C21.1111 29.1111 21.4444 28.7778 22 28.7778H30.5555C31 28.7778 31.4444 29.1111 31.4444 29.6667C31.4444 30.2222 31.1111 30.5555 30.5555 30.5555Z" fill="#D7272D"/>
<path d="M30.4445 25.7778H23.8889C23.3334 25.7778 22.8889 25.4444 22.8889 24.8889C22.8889 24.3333 23.3334 24 23.8889 24H30.4445C31 24 31.4445 24.3333 31.4445 24.8889C31.4445 25.4444 31 25.7778 30.4445 25.7778Z" fill="#D7272D"/>
<path d="M21.1112 13.2222C21.1112 9.88889 18.3334 7.11111 15.0001 7H13.7778V9.55556C10.5556 9.66667 7.77783 12.4444 7.77783 15.7778C7.77783 19.1111 10.4445 21.8889 13.7778 22H15.0001V19.4444C18.4445 19.3333 21.1112 16.5556 21.1112 13.2222ZM10.5556 15.7778C10.5556 13.8889 12.0001 12.4444 13.8889 12.3333V19.2222C12.0001 19.2222 10.5556 17.6667 10.5556 15.7778ZM15.0001 16.6667V9.77778C16.8889 9.77778 18.3334 11.3333 18.3334 13.2222C18.4445 15.1111 16.8889 16.6667 15.0001 16.6667Z" fill="#D7272D"/>
<path d="M37.5555 31.7778C38.2222 30.3333 38.5555 28.6667 38.5555 26.8889C38.5555 20.8889 34.3333 15.8889 28.6666 14.6667C28.6666 15.4444 28.5555 16.1111 28.4444 16.7778C33 17.8889 36.4444 22 36.4444 26.8889C36.4444 28.3333 36.2222 29.6667 35.6666 30.8889L35.3333 31.5555L35.5555 32.2222L36.7777 36.4444L31.1111 36.3333H30.6666L30.2222 36.5555C28.8888 37.1111 27.5555 37.4444 26.1111 37.4444C20.7777 37.4444 16.3333 33.3333 15.7777 28.1111C15.5555 28.1111 15.4444 28.1111 15.2222 28.1111C14.6666 28.1111 14.2222 28.1111 13.6666 28C14.2222 34.4444 19.5555 39.5555 26.1111 39.5555C27.8888 39.5555 29.5555 39.2222 31 38.5555L39.5555 38.8889L37.5555 31.7778Z" fill="#D7272D"/>
<path d="M14.5556 2.22222C17.7778 2.22222 20.7778 3.44444 23.1111 5.77778C25.4444 8.11111 26.6667 11.1111 26.6667 14.3333C26.6667 17.5556 25.4444 20.5556 23.1111 22.8889C20.8889 25.1111 17.7778 26.4444 14.5556 26.4444C12.7778 26.4444 11.1111 26.1111 9.44444 25.3333L8.77778 25L8.11111 25.1111L2.66667 26.3333L3.55556 20.1111L3.66667 19.6667L3.44444 18.8889C3.11111 17.6667 2.44444 15.3333 2.44444 14.1111C2.44444 10.8889 3.66667 7.88889 6 5.55556C8.33333 3.44444 11.3333 2.22222 14.5556 2.22222ZM14.5556 0C6.66667 0 0.333333 6.33333 0.333333 14.2222C0.333333 16.1111 1.33333 19.5556 1.33333 19.5556L0 28.8889L8.55555 27C10.3333 27.8889 12.4444 28.3333 14.5556 28.3333C22.4444 28.3333 28.7778 22 28.7778 14.1111C28.7778 6.33333 22.4444 0 14.5556 0Z" fill="#D7272D"/>
</g>
<defs>
<clipPath id="clip0_1849_1282">
<rect width="40" height="40" fill="white"/>
</clipPath>
</defs>
</svg>
