<svg width="40" height="40" viewBox="0 0 40 40" fill="none" xmlns="http://www.w3.org/2000/svg">
<g clip-path="url(#clip0_1849_1326)">
<path d="M8.44449 12.6667H22.4445C23 12.6667 23.5556 12.2222 23.5556 11.5556C23.5556 10.8889 23.1112 10.4445 22.4445 10.4445H8.44449C7.88893 10.4445 7.33337 10.8889 7.33337 11.5556C7.33337 12.2222 7.77782 12.6667 8.44449 12.6667Z" fill="#D7272D"/>
<path d="M8.44449 17.1111H22.4445C23 17.1111 23.5556 16.6667 23.5556 16C23.5556 15.4444 23.1112 14.8889 22.4445 14.8889H8.44449C7.88893 14.8889 7.33337 15.3333 7.33337 16C7.33337 16.6667 7.77782 17.1111 8.44449 17.1111Z" fill="#D7272D"/>
<path d="M30.7778 15.8889C30.7778 15.6667 30.7778 15.4444 30.7778 15.2222C30.7778 6.77778 24 0 15.5556 0C7.11111 0 0.333333 6.77778 0.333333 15.2222C0.333333 17.2222 1.44444 21 1.44444 21L0 31L9.11111 29C11.1111 29.8889 13.2222 30.4444 15.5556 30.4444C17.2222 30.4444 18.7778 30.1111 20.3333 29.6667C22 37.5556 29.3333 39.7778 30 40C30.6667 39.7778 39.2222 37.2222 39.8889 27.7778C39.8889 20.8889 39.8889 20 39.8889 20L30.7778 15.8889ZM10.1111 27L9.44444 26.6667L8.77778 26.7778L2.66667 28.1111L3.66667 21.2222L3.77778 20.7778L3.66667 20.3333C3.22222 19 2.66667 16.4444 2.66667 15.2222C2.66667 11.7778 4 8.44444 6.44444 6C8.88889 3.55556 12.1111 2.11111 15.5556 2.11111C19 2.11111 22.3333 3.44444 24.7778 5.88889C27.2222 8.33333 28.5556 11.6667 28.5556 15.1111C28.5556 15.4444 28.5556 15.7778 28.5556 16L21.4444 19.2222H8.44444C7.88889 19.2222 7.33333 19.6667 7.33333 20.3333C7.33333 20.8889 7.77778 21.4444 8.44444 21.4444H20C20 22.5556 20 24.3333 20 27.3333C18.5556 27.8889 17.1111 28.1111 15.5556 28.1111C13.6667 28.2222 11.7778 27.7778 10.1111 27ZM37.7778 27.6667C37.5556 31 36.1111 33.6667 33.6667 35.6667C32.2222 36.7778 30.7778 37.4444 30 37.7778C29.2222 37.4444 27.7778 36.8889 26.3333 35.6667C23.8889 33.6667 22.4444 31 22.2222 27.6667C22.2222 24.4444 22.2222 22.4444 22.2222 21.4444L30 18L37.7778 21.4444C37.7778 22.4444 37.7778 24.4444 37.7778 27.6667Z" fill="#D7272D"/>
<path d="M27.8888 31.4445L28.6666 32.2222L35.5555 25.3333C35.9999 24.8889 35.9999 24.2222 35.5555 23.7778C35.1111 23.3333 34.4444 23.3333 33.9999 23.7778L28.6666 29.1111C25.8888 26.2222 25.7777 26.2222 25.3333 26.2222C24.9999 26.2222 24.7777 26.3333 24.5555 26.5556C24.1111 27 24.1111 27.6667 24.5555 28.1111" fill="#D7272D"/>
</g>
<defs>
<clipPath id="clip0_1849_1326">
<rect width="40" height="40" fill="white"/>
</clipPath>
</defs>
</svg>
