<svg width="38" height="40" viewBox="0 0 38 40" fill="none" xmlns="http://www.w3.org/2000/svg">
<path d="M20.1111 20.8889C20.1111 24.3334 22.8889 27.1111 26.3333 27.1111C29.7778 27.1111 32.5555 24.3334 32.5555 20.8889C32.5555 17.4445 29.7778 14.6667 26.3333 14.6667C22.8889 14.6667 20.1111 17.4445 20.1111 20.8889ZM30.4444 20.8889C30.4444 23.1111 28.6666 25 26.3333 25C24 25 22.3333 23.1111 22.3333 20.8889C22.3333 18.6667 24.1111 16.7778 26.4444 16.7778C28.7778 16.7778 30.4444 18.6667 30.4444 20.8889Z" fill="#D7272D"/>
<path d="M37.1111 34.8889C35 31.1111 31 28.5556 26.3334 28.5556C21.6667 28.5556 17.6667 31.1111 15.5556 34.8889C14.3334 37.1111 15.8889 39.8889 18.4445 39.8889H34.2222C36.7778 39.8889 38.4445 37.1111 37.1111 34.8889ZM35.2222 37.1111C35.1111 37.3334 34.7778 37.6667 34.2222 37.6667H18.4445C17.8889 37.6667 17.5556 37.2222 17.4445 37.1111C17.3334 36.8889 17.1111 36.4445 17.4445 35.8889C19.2222 32.6667 22.6667 30.6667 26.3334 30.6667C30 30.6667 33.4445 32.6667 35.2222 35.8889C35.5556 36.4445 35.3334 36.8889 35.2222 37.1111Z" fill="#D7272D"/>
<path d="M21.6667 11C21.6667 10.4445 21.2222 9.88892 20.5556 9.88892H7.00003C6.44447 9.88892 5.88892 10.3334 5.88892 11C5.88892 11.6667 6.33336 12.1111 7.00003 12.1111H20.6667C21.2222 12.1111 21.6667 11.6667 21.6667 11Z" fill="#D7272D"/>
<path d="M7.00003 16.3333C6.44447 16.3333 5.88892 16.7778 5.88892 17.4445C5.88892 18.1111 6.33336 18.5556 7.00003 18.5556H16.6667C17.2222 18.5556 17.7778 18.1111 17.7778 17.4445C17.7778 16.7778 17.3334 16.3333 16.6667 16.3333H7.00003Z" fill="#D7272D"/>
<path d="M13.7778 22.7778H7.00003C6.44447 22.7778 5.88892 23.2222 5.88892 23.8889C5.88892 24.5555 6.33336 25 7.00003 25H13.7778C14.3334 25 14.8889 24.5555 14.8889 23.8889C14.8889 23.2222 14.4445 22.7778 13.7778 22.7778Z" fill="#D7272D"/>
<path d="M11.7778 37.6667H5.11112C3.66668 37.6667 2.44446 36.4444 2.44446 35V5.00001C2.44446 3.55556 3.66668 2.33334 5.11112 2.33334H22.3333C23.7778 2.33334 25 3.55556 25 5.00001V11.1111C25 11.6667 25.4445 12.2222 26.1111 12.2222C26.6667 12.2222 27.2222 11.7778 27.2222 11.1111V5.00001C27.2222 2.33334 25.1111 0.222229 22.4445 0.222229H5.22224C2.55557 0.222229 0.444458 2.33334 0.444458 5.00001V35C0.444458 37.6667 2.55557 39.7778 5.22224 39.7778H11.8889C12.4445 39.7778 13 39.3333 13 38.6667C13 38 12.4445 37.6667 11.7778 37.6667Z" fill="#D7272D"/>
</svg>
