<svg width="40" height="40" viewBox="0 0 40 40" fill="none" xmlns="http://www.w3.org/2000/svg">
<path d="M6.00003 6.55557C6.61368 6.55557 7.11114 6.0581 7.11114 5.44445C7.11114 4.8308 6.61368 4.33334 6.00003 4.33334C5.38638 4.33334 4.88892 4.8308 4.88892 5.44445C4.88892 6.0581 5.38638 6.55557 6.00003 6.55557Z" fill="#D7272D"/>
<path d="M10.1111 6.55557C10.7248 6.55557 11.2222 6.0581 11.2222 5.44445C11.2222 4.8308 10.7248 4.33334 10.1111 4.33334C9.49746 4.33334 9 4.8308 9 5.44445C9 6.0581 9.49746 6.55557 10.1111 6.55557Z" fill="#D7272D"/>
<path d="M14.2222 6.66668C14.8889 6.66668 15.3333 6.11112 15.3333 5.55557C15.3333 4.8889 14.7778 4.44446 14.2222 4.44446C13.5555 4.44446 13.1111 5.00001 13.1111 5.55557C13.1111 6.11112 13.6666 6.66668 14.2222 6.66668Z" fill="#D7272D"/>
<path d="M17.5555 31.8889L18.3333 32.6667L26.4444 24.5556C26.8888 24.1111 26.8888 23.4445 26.4444 23C25.9999 22.5556 25.3333 22.5556 24.8888 23L18.3333 29.5556C14.8888 26 14.8888 26 14.3333 26C13.9999 26 13.7777 26.1111 13.5555 26.3334C13.1111 26.7778 13.1111 27.4445 13.5555 27.8889" fill="#D7272D"/>
<path d="M35 0.222229H4.99997C2.33331 0.222229 0.111084 2.44445 0.111084 5.11112V25.5556C0.111084 28.2222 2.33331 30.4445 4.99997 30.4445H7.99997C9.33331 35.8889 14.2222 39.8889 20 39.8889C25.7778 39.8889 30.6666 35.8889 32 30.4445H35C37.6666 30.4445 39.8889 28.2222 39.8889 25.5556V5.11112C39.8889 2.33334 37.6666 0.222229 35 0.222229ZM4.99997 2.33334H35.1111C36.5555 2.33334 37.7778 3.55556 37.7778 5.00001V8.11112H2.2222V5.11112C2.2222 3.55556 3.44442 2.33334 4.99997 2.33334ZM20 37.6667C14.3333 37.6667 9.77775 33.1111 9.77775 27.4445C9.77775 21.7778 14.3333 17.2222 20 17.2222C25.6666 17.2222 30.2222 21.7778 30.2222 27.4445C30.2222 33.1111 25.6666 37.6667 20 37.6667ZM35 28.2222H32.3333C32.3333 28 32.3333 27.6667 32.3333 27.3333C32.3333 20.4445 26.7778 14.8889 19.8889 14.8889C13 14.8889 7.44442 20.4445 7.44442 27.3333C7.44442 27.6667 7.44442 27.8889 7.44442 28.2222H4.99997C3.44442 28.2222 2.2222 27 2.2222 25.5556V10.3333H37.7778V25.5556C37.7778 27 36.5555 28.2222 35 28.2222Z" fill="#D7272D"/>
</svg>
