<svg width="40" height="40" viewBox="0 0 40 40" fill="none" xmlns="http://www.w3.org/2000/svg">
<path d="M32.2222 24.8889H18.8888C18.3333 24.8889 17.7777 25.3334 17.7777 26C17.7777 26.6667 18.2222 27.1111 18.8888 27.1111H32.2222C32.7777 27.1111 33.3333 26.6667 33.3333 26C33.3333 25.3334 32.7777 24.8889 32.2222 24.8889Z" fill="#D7272D"/>
<path d="M32.2222 30H18.8888C18.3333 30 17.7777 30.4444 17.7777 31.1111C17.7777 31.7778 18.2222 32.2222 18.8888 32.2222H32.2222C32.7777 32.2222 33.3333 31.7778 33.3333 31.1111C33.3333 30.4444 32.7777 30 32.2222 30Z" fill="#D7272D"/>
<path d="M12.5556 15.3334L10.4444 17.4445C10 17.8889 10 18.5556 10.4444 19C10.6667 19.2223 10.8889 19.3334 11.2222 19.3334C11.4444 19.3334 11.7778 19.2223 12 19L14.1111 16.8889L16.2222 19C16.4444 19.2223 16.6667 19.3334 17 19.3334C17.3333 19.3334 17.5556 19.2223 17.7778 19C18.2222 18.5556 18.2222 17.8889 17.7778 17.4445L15.5556 15.3334L17.6667 13.2223C18.1111 12.7778 18.1111 12.1112 17.6667 11.6667C17.2222 11.2223 16.5556 11.2223 16.1111 11.6667L14 13.7778L11.8889 11.6667C11.4444 11.2223 10.7778 11.2223 10.3333 11.6667C9.88889 12.1112 9.88889 12.7778 10.3333 13.2223L12.5556 15.3334Z" fill="#D7272D"/>
<path d="M37.8888 9.44446L37.7777 9.33335C37.7777 9.33335 37.7777 9.33335 37.7777 9.22224L31.2222 1.77779C30.4444 0.888903 29.4444 0.444458 28.4444 0.444458H28H17.1111C14.3333 0.444458 12.1111 3.00001 12.1111 6.00001V6.66668C8.22218 7.66668 5.33329 11.1111 5.33329 15.3333C5.33329 17.2222 5.88885 18.8889 6.88885 20.3333L1.33329 25.8889C0.777737 26.4445 0.777737 27.4445 1.33329 28C1.66663 28.3333 1.99996 28.4445 2.4444 28.4445C2.88885 28.4445 3.22218 28.3333 3.55551 28L8.99996 22.5556C9.88885 23.2222 11 23.7778 12.1111 24V33.8889C12.1111 37 14.3333 39.4445 17.1111 39.4445H34.4444C37.2222 39.4445 39.4444 36.8889 39.4444 33.8889V13.3333C39.2222 11.8889 38.7777 10.5556 37.8888 9.44446ZM29 3.00001C29.3333 3.11112 29.5555 3.33335 29.7777 3.66668L36 10.7778C36.3333 11.1111 36.4444 11.5556 36.5555 12.1111H28.8888V3.00001H29ZM14.1111 8.66668C17.8888 8.66668 20.8888 11.6667 20.8888 15.4445C20.8888 19.2222 17.8888 22.2222 14.1111 22.2222C10.3333 22.2222 7.33329 19.2222 7.33329 15.4445C7.33329 11.6667 10.3333 8.66668 14.1111 8.66668ZM34.2222 37.3333H16.8888C15.3333 37.3333 14 35.7778 14 33.8889V24.2222C16.3333 24.2222 18.4444 23.3333 20.1111 21.7778H32.2222C32.7777 21.7778 33.3333 21.3333 33.3333 20.6667C33.3333 20 32.8888 19.5556 32.2222 19.5556H21.8888C22.5555 18.2222 23 16.7778 23 15.2222C23 10.3333 19 6.33335 14.1111 6.33335V6.11112C14.1111 4.22224 15.4444 2.66668 17 2.66668H26.8888V14.2222H37.1111V34C37.1111 35.7778 35.7777 37.3333 34.2222 37.3333Z" fill="#D7272D"/>
</svg>
