<svg width="25" height="24" viewBox="0 0 25 24" fill="none" xmlns="http://www.w3.org/2000/svg">
<path d="M18.191 20.4595C17.6399 20.4595 17.1917 19.995 17.1917 19.4245C17.1917 18.8539 17.6399 18.3898 18.191 18.3898C18.7421 18.3898 19.1903 18.8539 19.1903 19.4245C19.1903 19.995 18.7421 20.4595 18.191 20.4595ZM7.14493 20.4595C6.59385 20.4595 6.14561 19.995 6.14561 19.4245C6.14561 18.8539 6.59385 18.3898 7.14493 18.3898C7.69599 18.3898 8.14425 18.8539 8.14425 19.4245C8.14425 19.995 7.69599 20.4595 7.14493 20.4595ZM18.5494 14.2267L20.5468 10.6452C20.6613 10.4394 20.5932 10.1764 20.3947 10.0575C20.1961 9.93899 19.9419 10.0095 19.827 10.215L17.8047 13.8419C16.2582 13.1111 14.5213 12.7041 12.668 12.7041C10.8146 12.7041 9.07773 13.1111 7.53122 13.8419L5.5089 10.215C5.39408 10.0095 5.13979 9.93899 4.94129 10.0575C4.74279 10.1764 4.67435 10.4394 4.78917 10.6452L6.78651 14.2267C3.35683 16.158 1.01113 19.7529 0.667969 24H24.668C24.3245 19.7529 21.9788 16.158 18.5494 14.2267Z" fill="black"/>
</svg>
