<svg width="24" height="24" viewBox="0 0 24 24" fill="none" xmlns="http://www.w3.org/2000/svg">
<path fill-rule="evenodd" clip-rule="evenodd" d="M22 20H2C0.89543 20 0 19.1046 0 18V3C0 1.89543 0.89543 1 2 1H22C23.1046 1 24 1.89543 24 3V18C24 19.1046 23.1046 20 22 20ZM6 21H18C18.5523 21 19 21.4477 19 22C19 22.5523 18.5523 23 18 23H6C5.44772 23 5 22.5523 5 22C5 21.4477 5.44772 21 6 21ZM14.9126 3.75C15.0353 4.57062 14.6989 5.37418 14.2553 5.94292C13.78 6.5523 12.9626 7.02435 12.1721 6.99998C12.0283 6.2143 12.3988 5.40586 12.8473 4.86068C13.3421 4.26025 14.1887 3.79956 14.9126 3.75ZM16.5019 15.0152C16.8643 14.4652 16.9983 14.1873 17.2795 13.5649C15.2393 12.7939 14.911 9.91034 16.9301 8.80291C16.3142 8.0351 15.4489 7.59066 14.6324 7.59066C14.0427 7.59066 13.6388 7.74332 13.2719 7.88203C12.9663 7.99752 12.6863 8.10335 12.346 8.10335C11.978 8.10335 11.6522 7.98724 11.3109 7.86562C10.9357 7.73188 10.5417 7.59148 10.0523 7.59148C9.13421 7.59148 8.1584 8.14803 7.54009 9.10109C6.66991 10.4409 6.81778 12.9613 8.22827 15.1095C8.73365 15.8781 9.4072 16.7418 10.2888 16.7499C10.6538 16.7533 10.897 16.645 11.1603 16.5279C11.4619 16.3936 11.7899 16.2476 12.3574 16.2445C12.9281 16.2415 13.2504 16.3891 13.5478 16.5253C13.8043 16.6427 14.0422 16.7517 14.4049 16.7483C15.2864 16.7402 15.9974 15.7831 16.5019 15.0152Z" fill="black"/>
</svg>
