<svg width="25" height="24" viewBox="0 0 25 24" fill="none" xmlns="http://www.w3.org/2000/svg">
<path d="M12.4132 5.92242C9.81379 5.92242 7.60786 7.63498 6.83666 10L3.44653 4.0766C5.6006 1.58425 8.7627 0 12.2908 0C16.6273 0 20.4119 2.38772 22.4465 5.92242H12.4132Z" fill="black"/>
<path d="M16.4465 12C16.4465 14.2091 14.6557 16 12.4465 16C10.2374 16 8.44653 14.2091 8.44653 12C8.44653 9.79086 10.2374 8 12.4465 8C14.6557 8 16.4465 9.79086 16.4465 12Z" fill="black"/>
<path d="M13.4465 18.0318C13.06 18.1153 12.6609 18.1596 12.251 18.1596C10.0926 18.1596 8.20973 16.9418 7.1982 15.1398L7.19236 15.1428L2.08115 6C1.05014 7.79799 0.446533 9.8886 0.446533 12.126C0.446533 18.068 4.62896 23.0075 10.1101 24L13.4465 18.0318Z" fill="black"/>
<path d="M18.5077 12.0018C18.5077 10.4631 17.9153 9.06347 16.951 8H23.7389C24.1888 9.25355 24.4465 10.5971 24.4465 12.0018C24.4465 18.5776 19.0748 23.93 12.4465 24L17.695 15.0031L17.6889 15.0001C18.2065 14.1167 18.5077 13.0942 18.5077 12.0018Z" fill="black"/>
</svg>
