<svg width="25" height="24" viewBox="0 0 25 24" fill="none" xmlns="http://www.w3.org/2000/svg">
<path d="M12.4279 23.2643C9.90102 23.2643 7.6487 22.5924 5.67094 21.2486C3.69319 19.9048 2.22215 18.1257 1.25783 15.9113C0.73995 14.7416 0.440832 13.3978 0.360471 11.8799C0.280111 10.362 0.396187 8.87758 0.708699 7.42663C1.02121 5.97568 1.51677 4.58277 2.19536 3.24789C2.87396 1.91302 3.6731 0.830389 4.59278 0L4.44545 3.76354C4.54367 3.63853 4.84725 3.56933 5.3562 3.55594C5.86515 3.54255 6.17766 3.61175 6.29374 3.76354C6.66875 3.0403 7.3853 2.4242 8.44337 1.91525C9.50145 1.4063 10.5484 1.1429 11.5841 1.12504C11.102 1.52684 10.5685 2.18982 9.98361 3.11396C9.39877 4.0381 9.1376 4.76804 9.2001 5.30378C9.42332 5.37521 9.70235 5.43548 10.0372 5.48459C10.372 5.5337 10.6533 5.56718 10.881 5.58504C11.1087 5.6029 11.4122 5.62075 11.7917 5.63861C12.1712 5.65647 12.3967 5.66986 12.4681 5.67879C12.602 5.72344 12.6444 5.92657 12.5953 6.28819C12.5462 6.64981 12.41 6.98688 12.1868 7.29939C12.1422 7.36189 12.0685 7.44448 11.9658 7.54717C11.8631 7.64985 11.6109 7.80834 11.2091 8.02263C10.8073 8.23693 10.3564 8.38872 9.85637 8.47801L10.0573 11.0094L8.1956 10.112C8.03487 10.4959 8.00139 10.8598 8.09515 11.2036C8.1889 11.5473 8.34962 11.8442 8.57731 12.0942C8.80499 12.3442 9.09742 12.5295 9.45457 12.65C9.81173 12.7706 10.1734 12.7996 10.5394 12.7371C10.9948 12.6567 11.4323 12.5027 11.852 12.275C12.2716 12.0473 12.6444 11.8464 12.9703 11.6723C13.2962 11.4982 13.6244 11.4201 13.9547 11.4379C14.4994 11.4737 14.899 11.621 15.1535 11.8799C15.4079 12.1389 15.495 12.4291 15.4146 12.7505C15.4057 12.7683 15.3945 12.7929 15.3811 12.8242C15.3677 12.8554 15.3298 12.9112 15.2673 12.9916C15.2048 13.0719 15.1244 13.1411 15.0262 13.1992C14.928 13.2572 14.7874 13.3041 14.6043 13.3398C14.4213 13.3755 14.2137 13.38 13.9815 13.3532C13.4458 14.2014 12.8007 14.8064 12.0462 15.168C11.2917 15.5296 10.3564 15.6613 9.24028 15.5631C9.90102 16.1078 10.6265 16.4761 11.4167 16.6681C12.2069 16.86 12.9592 16.8868 13.6735 16.7484C14.3878 16.61 15.0776 16.3779 15.7428 16.052C16.408 15.7261 16.9794 15.3354 17.4571 14.88C17.9348 14.4247 18.2942 13.9604 18.5353 13.4871C18.9192 12.6746 19.0933 11.8152 19.0576 10.9089C19.0219 10.0026 18.8545 9.16107 18.5554 8.38425C18.2563 7.60744 17.9058 7.04938 17.504 6.71008C18.2808 7.04938 18.8924 7.4043 19.3389 7.77485C19.7853 8.1454 20.1291 8.64766 20.3702 9.28161C20.5041 7.76369 20.2474 6.23238 19.6001 4.68768C18.9527 3.14298 18.0174 1.87507 16.7941 0.883963C19.1603 1.57149 20.9997 2.81931 22.3122 4.62741C23.6248 6.43552 24.2989 8.74587 24.3346 11.5585C24.3525 12.6925 24.1717 13.8309 23.7922 14.9738C23.4127 16.1167 22.8613 17.1792 22.1381 18.1614C21.4149 19.1436 20.5711 20.0186 19.6068 20.7865C18.6424 21.5544 17.5375 22.1593 16.2919 22.6013C15.0463 23.0433 13.7583 23.2643 12.4279 23.2643Z" fill="black"/>
</svg>
