<svg width="25" height="24" viewBox="0 0 25 24" fill="none" xmlns="http://www.w3.org/2000/svg">
<path d="M16.8394 0C17.0659 1.51499 16.4449 2.99848 15.626 4.04848C14.7485 5.17347 13.2395 6.04496 11.78 5.99996C11.5145 4.54947 12.1985 3.05698 13.0265 2.05049C13.94 0.941994 15.503 0.0914994 16.8394 0Z" fill="black"/>
<path d="M19.7734 20.7972C20.4424 19.7818 20.6899 19.2688 21.2089 18.1198C17.4424 16.6963 16.8364 11.3728 20.5639 9.32832C19.4269 7.91083 17.8294 7.09033 16.3219 7.09033C15.2333 7.09033 14.4877 7.37216 13.8103 7.62824C13.2462 7.84146 12.7293 8.03683 12.101 8.03683C11.4216 8.03683 10.8201 7.82247 10.1901 7.59794C9.49727 7.35104 8.76993 7.09183 7.8665 7.09183C6.17151 7.09183 4.37002 8.11933 3.22853 9.87881C1.62204 12.3523 1.89503 17.0053 4.49902 20.9712C5.43201 22.3902 6.6755 23.9847 8.30299 23.9997C8.97685 24.006 9.42593 23.8061 9.91196 23.5898C10.4689 23.3418 11.0743 23.0723 12.122 23.0667C13.1756 23.0611 13.7707 23.3336 14.3198 23.585C14.7932 23.8018 15.2325 24.003 15.9019 23.9967C17.5294 23.9817 18.8419 22.2147 19.7734 20.7972Z" fill="black"/>
</svg>
