<svg width="25" height="24" viewBox="0 0 25 24" fill="none" xmlns="http://www.w3.org/2000/svg">
<path fill-rule="evenodd" clip-rule="evenodd" d="M21.7099 19.0683C21.5066 18.9436 21.3158 18.7997 21.14 18.6384C21.0792 18.5776 21.1006 18.3704 21.1209 18.1746C21.1306 18.0809 21.14 17.9897 21.14 17.9185C21.2433 17.5179 21.1706 17.0922 20.9401 16.7487C20.8913 16.7029 20.8376 16.6627 20.7801 16.6287V15.9888C20.7419 13.5221 19.7784 11.1597 18.0805 9.36985C17.4104 8.73509 16.9559 7.90646 16.7807 7.00022V6.77026C16.7807 5.39048 16.7807 2.51093 15.2809 1.00116C14.6215 0.33709 13.7168 -0.0247762 12.7813 0.00131977C10.6817 0.00131977 9.28188 1.00116 9.28188 6.00038C9.19217 7.30571 8.78363 8.5691 8.09206 9.6798C7.8221 10.1997 7.55215 10.7396 7.31218 11.3095C6.63815 12.8488 6.12549 14.4538 5.78242 16.0988C5.34699 16.3525 5.05764 16.7977 5.00255 17.2986L4.92256 17.6286C4.74774 17.6932 4.56685 17.7401 4.38264 17.7685C3.78274 17.8885 2.78289 18.0885 2.78289 18.9983C2.78605 19.2436 2.81284 19.4881 2.86288 19.7282C2.9806 20.2757 2.95302 20.8445 2.78289 21.378C2.77712 21.4211 2.77712 21.4648 2.78289 21.508C2.78289 22.6355 4.46212 22.8382 5.59943 22.9754C5.6622 22.983 5.72333 22.9904 5.78242 22.9977H6.22236C6.49514 23.0793 6.75961 23.1864 7.01223 23.3177C7.71415 23.6975 8.48671 23.929 9.28188 23.9976C9.61055 23.9942 9.92263 23.8526 10.1417 23.6076H10.1917C10.9977 23.2111 11.8831 23.0026 12.7813 22.9977H15.8408C15.8927 23.2014 15.9921 23.3898 16.1308 23.5476C16.4302 23.858 16.8501 24.0223 17.2806 23.9976C18.2735 23.9695 19.1971 23.4819 19.7802 22.6778L20.1002 22.3478C20.456 22.0779 20.8597 21.8777 21.29 21.7579C22.0099 21.498 22.7498 21.228 22.7498 20.4981C22.7498 19.7761 22.1921 19.3965 21.7252 19.0787L21.7099 19.0683ZM13.7812 3.00098C14.3611 3.00098 14.7811 3.62088 14.7811 4.48074C14.7811 5.34061 14.4511 5.82053 13.9712 5.93052C14.1703 5.76278 14.2779 5.51044 14.2611 5.25062C14.2611 4.84069 14.0412 4.50074 13.7812 4.50074C13.5213 4.50074 13.3013 4.83069 13.3013 5.25062C13.2845 5.51044 13.3921 5.76278 13.5912 5.93052C13.1113 5.81054 12.7814 5.23063 12.7814 4.48074C12.7814 3.73086 13.2013 3.00098 13.7812 3.00098ZM11.7815 8.00018C12.6709 7.82213 13.5063 7.43865 14.2211 6.88035C13.6685 6.41319 12.997 6.1086 12.2814 6.00049C11.5129 6.07054 10.7989 6.42752 10.2817 7.00033C10.6927 7.45092 11.2075 7.79417 11.7815 8.00018ZM10.7816 3.00098C11.3615 3.00098 11.7814 3.62088 11.7814 4.48074C11.7814 5.34061 11.4515 5.81054 10.9716 5.93052C11.1707 5.76278 11.2783 5.51044 11.2615 5.25062C11.2615 4.84069 11.0415 4.50074 10.7816 4.50074C10.5216 4.50074 10.3017 4.83069 10.3017 5.25062C10.2849 5.51044 10.3925 5.76278 10.5916 5.93052C10.1117 5.81054 9.78174 5.24063 9.78174 4.48074C9.78174 3.72086 10.2017 3.00098 10.7816 3.00098ZM9.28185 22.9976C9.40183 22.9976 9.49182 22.8976 9.55181 22.7076C9.69045 21.7959 9.26366 20.891 8.47198 20.418C7.78258 19.8092 7.25374 19.04 6.93222 18.1784C6.7701 17.747 6.53317 17.3476 6.23233 16.9985C6.16234 16.9985 6.11235 16.9985 5.98237 17.5285C5.93687 17.8306 5.80886 18.1143 5.61243 18.3483C5.3209 18.567 4.97517 18.7018 4.61258 18.7383C4.32163 18.7699 4.0397 18.8582 3.78271 18.9982C3.7903 19.1865 3.81371 19.3738 3.8527 19.5581C3.99977 20.2188 3.9826 20.9054 3.80271 21.5578C3.9027 21.6978 4.36262 21.8778 5.85239 21.9978H6.4123C6.76058 22.09 7.09633 22.2243 7.41215 22.3977C7.99103 22.716 8.62585 22.9197 9.28185 22.9976ZM15.9209 19.7084C14.4511 21.1882 11.5116 21.0882 10.2118 20.8882C9.93759 20.3722 9.54321 19.9298 9.06195 19.5984C8.52573 19.0799 8.11235 18.4478 7.85214 17.7487C7.64694 17.1541 7.30438 16.6163 6.85229 16.179C7.18035 14.6425 7.65926 13.1421 8.28207 11.6997C8.4168 11.3597 8.57623 11.0443 8.74186 10.7167C8.83435 10.5338 8.92881 10.347 9.02196 10.1499C9.3866 9.47763 9.70075 8.77914 9.96181 8.06025C10.4727 8.5317 11.1014 8.85642 11.7815 9.0001C12.7807 8.74763 13.735 8.34296 14.6111 7.80029C16.071 10.5549 16.8169 13.6316 16.7807 16.7489C16.2455 17.6419 15.9493 18.6577 15.9209 19.6984V19.7084ZM19.4303 21.6579C19.8824 21.2748 20.4106 20.992 20.98 20.8281V20.8181C21.271 20.7383 21.5476 20.6135 21.7999 20.4481C21.7799 20.3381 21.54 20.1682 21.16 19.9182C20.8983 19.7568 20.6538 19.5692 20.4301 19.3583C20.2277 19.1399 20.1105 18.856 20.1002 18.5584C19.6898 18.8982 19.1607 19.0602 18.6304 19.0083H18.2805C17.9029 19.0155 17.5398 18.863 17.2806 18.5884C17.2331 18.5351 17.1897 18.4783 17.1506 18.4184C17.0607 18.8684 16.7807 21.6979 16.7807 21.9979C16.7807 21.9979 16.7807 22.0079 16.7707 22.1678C16.77 22.1798 16.769 22.193 16.7681 22.2074C16.7558 22.3848 16.7319 22.7305 16.8707 22.8877C16.9856 22.9813 17.1334 23.0246 17.2806 23.0077C18.0095 22.9845 18.6827 22.6125 19.0903 22.0079L19.4303 21.6579Z" fill="black"/>
</svg>
