<svg width="25" height="24" viewBox="0 0 25 24" fill="none" xmlns="http://www.w3.org/2000/svg">
<path d="M0.235706 12.2036C0.311198 11.6072 0.386597 11.1573 0.612966 10.6377C1.21662 9.2272 2.34847 8.33636 3.78214 7.81672C6.19675 6.92589 8.68679 7.00014 11.0259 8.03944C11.4032 8.18791 11.7586 8.4557 12.1359 8.67841C12.2307 8.73434 12.1578 8.67841 12.4596 8.85601C12.5554 8.91235 12.6646 8.93986 12.5891 9.00448C12.5194 9.06414 12.2332 9.07872 12.1578 9.07872C11.1768 9.15296 10.3468 9.67259 9.66773 10.3407C8.08315 11.6769 7.17766 13.4586 6.87583 15.3887C6.34764 18.8778 7.63041 21.6245 10.4978 23.7773C10.5732 23.8515 10.6487 23.8515 10.7241 24C8.61134 23.7031 6.80039 22.9607 5.21581 21.7729C2.95212 20.0655 1.36753 17.8385 0.688427 15.0918C0.537514 14.4979 0.298064 13.9803 0.235684 13.2359C0.202027 12.8342 0.160214 12.8 0.235706 12.2036Z" fill="black"/>
<path d="M0.873768 7.36224C1.24767 6.6978 1.54679 6.03337 1.99548 5.36893C4.01455 2.41586 6.70665 0.496351 10.2961 0.127217C14.4838 -0.389571 18.2977 0.643996 21.3637 3.6709C22.7845 5.07361 23.8314 6.77163 24.1305 8.83878C24.4296 10.9059 24.0558 12.8254 22.4854 14.3758C21.4384 15.4832 20.0924 15.9262 18.5968 16C17.5498 16 16.5029 15.9262 15.456 15.6309C15.1568 15.557 14.8577 15.4094 14.5586 15.1879C14.1099 14.8926 14.0351 14.5235 14.3343 14.0067C14.4838 13.7852 14.6334 13.6375 14.7082 13.4899C15.2316 12.5301 15.2316 11.5704 14.9325 10.5368C14.4091 8.98645 13.3621 7.87904 11.9413 7.06694C10.1466 5.95954 8.1275 5.59041 6.03364 5.73807C4.23891 5.88572 2.51895 6.4025 1.02334 7.43608C1.02334 7.36225 1.02333 7.36224 0.873768 7.36224C0.948548 7.36224 0.948548 7.36224 0.873768 7.36224Z" fill="black"/>
<path d="M9.23252 12.6667C10.0254 16.146 12.3318 18.0016 15.431 18.7748C17.5212 19.2387 19.6114 18.9294 21.5574 18.0016C21.7016 17.9243 21.8457 17.9243 21.9178 18.0016C21.9899 18.0789 22.0619 18.3109 21.9899 18.4655C21.9899 18.6201 21.8457 18.7748 21.7736 18.9294C20.2601 21.1716 18.314 22.7953 15.7914 23.5685C13.1246 24.419 10.8902 23.4138 9.37666 21.017C7.71893 18.3882 7.5027 15.6821 9.08836 12.8986C9.16044 12.8213 9.16045 12.744 9.23252 12.6667Z" fill="black"/>
</svg>
